<?xml version="1.0" encoding="UTF-8"?>
<!DOCTYPE svg PUBLIC "-//W3C//DTD SVG 1.1//EN" "http://www.w3.org/Graphics/SVG/1.1/DTD/svg11.dtd">
<svg xmlns="http://www.w3.org/2000/svg" version="1.1" width="434px" height="230px" style="shape-rendering:geometricPrecision; text-rendering:geometricPrecision; image-rendering:optimizeQuality; fill-rule:evenodd; clip-rule:evenodd" xmlns:xlink="http://www.w3.org/1999/xlink">
<g><path style="opacity:0.937" fill="#002855" d="M 96.5,62.5 C 94.7402,66.5465 93.7402,70.8799 93.5,75.5C 92.5655,76.5676 92.2322,77.901 92.5,79.5C 91.5655,80.5676 91.2322,81.901 91.5,83.5C 90.4265,84.2506 90.2599,85.2506 91,86.5C 92.3024,85.9152 93.469,85.2485 94.5,84.5C 97.1667,84.5 99.8333,84.5 102.5,84.5C 111.998,87.1758 117.498,93.5091 119,103.5C 119.499,107.152 119.665,110.818 119.5,114.5C 118.549,115.919 118.216,117.585 118.5,119.5C 117.596,120.209 117.263,121.209 117.5,122.5C 116.662,122.842 116.328,123.508 116.5,124.5C 115.662,124.842 115.328,125.508 115.5,126.5C 114.662,126.842 114.328,127.508 114.5,128.5C 113.662,128.842 113.328,129.508 113.5,130.5C 112.833,130.5 112.5,130.833 112.5,131.5C 111.833,131.5 111.5,131.833 111.5,132.5C 108.876,135.158 106.209,137.825 103.5,140.5C 102.508,140.328 101.842,140.662 101.5,141.5C 100.833,141.5 100.5,141.833 100.5,142.5C 86.8506,147.693 73.184,147.693 59.5,142.5C 59.5,141.5 59.5,140.5 59.5,139.5C 64.5932,121.455 68.9266,103.122 72.5,84.5C 73.4345,83.4324 73.7678,82.099 73.5,80.5C 75.5932,75.1215 76.9265,69.4549 77.5,63.5C 78.2674,62.828 78.9341,61.9947 79.5,61C 85.1771,60.1647 90.8438,59.3314 96.5,58.5C 96.5,59.8333 96.5,61.1667 96.5,62.5 Z M 96.5,101.5 C 96.5,101.167 96.5,100.833 96.5,100.5C 98.9115,100.137 100.411,101.137 101,103.5C 101.814,108.02 101.647,112.354 100.5,116.5C 100.817,112.298 100.483,108.298 99.5,104.5C 99.6716,103.508 99.3382,102.842 98.5,102.5C 98.1583,101.662 97.4916,101.328 96.5,101.5 Z M 88.5,101.5 C 88.5,101.833 88.5,102.167 88.5,102.5C 87.596,103.209 87.2627,104.209 87.5,105.5C 86.5655,106.568 86.2322,107.901 86.5,109.5C 85.5655,110.568 85.2322,111.901 85.5,113.5C 85.1667,113.5 84.8333,113.5 84.5,113.5C 84.5467,110.432 85.0467,107.432 86,104.5C 86.2355,102.881 87.0689,101.881 88.5,101.5 Z M 96.5,101.5 C 96.8417,102.338 97.5084,102.672 98.5,102.5C 98.3284,103.492 98.6618,104.158 99.5,104.5C 99.5,108.5 99.5,112.5 99.5,116.5C 98.0687,117.78 97.4021,119.447 97.5,121.5C 96.5987,122.29 95.9321,123.29 95.5,124.5C 94.8333,124.5 94.5,124.833 94.5,125.5C 93.8333,125.5 93.5,125.833 93.5,126.5C 91.6316,127.263 89.9649,128.263 88.5,129.5C 86.5,129.5 84.5,129.5 82.5,129.5C 82.5,128.5 82.5,127.5 82.5,126.5C 83.4345,125.432 83.7678,124.099 83.5,122.5C 84.6572,119.727 85.3239,116.727 85.5,113.5C 86.4345,112.432 86.7678,111.099 86.5,109.5C 87.4345,108.432 87.7678,107.099 87.5,105.5C 88.404,104.791 88.7373,103.791 88.5,102.5C 91.1272,101.908 93.7938,101.575 96.5,101.5 Z M 83.5,117.5 C 83.5,119.167 83.5,120.833 83.5,122.5C 82.5655,123.568 82.2322,124.901 82.5,126.5C 81.7321,127.263 81.2321,128.263 81,129.5C 80.9011,125.239 81.7345,121.239 83.5,117.5 Z M 95.5,124.5 C 95.8333,124.5 96.1667,124.5 96.5,124.5C 96.5,126.5 95.5,127.5 93.5,127.5C 93.5,127.167 93.5,126.833 93.5,126.5C 94.1667,126.5 94.5,126.167 94.5,125.5C 95.1667,125.5 95.5,125.167 95.5,124.5 Z"/></g>
<g><path style="opacity:0.012" fill="#14175a" d="M 77.5,63.5 C 76.71,64.6085 76.21,65.9419 76,67.5C 75.1799,65.272 75.5132,63.272 77,61.5C 77.4643,62.0944 77.631,62.7611 77.5,63.5 Z"/></g>
<g><path style="opacity:0.016" fill="#152a44" d="M 96.5,62.5 C 97.29,61.3915 97.79,60.0581 98,58.5C 98.5837,61.2567 98.2504,63.9234 97,66.5C 96.51,65.2068 96.3433,63.8734 96.5,62.5 Z"/></g>
<g><path style="opacity:0.008" fill="#060178" d="M 137.5,66.5 C 142.985,65.3483 148.651,65.1816 154.5,66C 148.843,66.4994 143.176,66.6661 137.5,66.5 Z"/></g>
<g><path style="opacity:0.004" fill="#000000" d="M 137.5,66.5 C 137.5,66.8333 137.5,67.1667 137.5,67.5C 136.83,67.0187 136.83,66.6853 137.5,66.5 Z"/></g>
<g><path style="opacity:0.004" fill="#141b40" d="M 175.5,67.5 C 173.265,67.2053 171.265,67.5386 169.5,68.5C 162.469,68.4812 162.136,67.9812 168.5,67C 171.039,66.2042 173.372,66.3709 175.5,67.5 Z"/></g>
<g><path style="opacity:0.869" fill="#022657" d="M 137.5,67.5 C 143.926,66.88 149.926,67.5467 155.5,69.5C 154.384,72.3437 153.384,75.3437 152.5,78.5C 146.896,79.4544 141.229,79.7877 135.5,79.5C 136.167,75.5 136.833,71.5 137.5,67.5 Z"/></g>
<g><path style="opacity:0.008" fill="#000080" d="M 156.5,69.5 C 156.369,68.7611 156.536,68.0944 157,67.5C 157.692,68.4368 157.525,69.1034 156.5,69.5 Z"/></g>
<g><path style="opacity:0.924" fill="#002855" d="M 175.5,67.5 C 177.5,67.5 179.5,67.5 181.5,67.5C 180.341,72.4678 179.341,77.4678 178.5,82.5C 177.957,82.56 177.624,82.8933 177.5,83.5C 183.463,84.4959 189.463,84.8293 195.5,84.5C 195.5,86.1667 195.5,87.8333 195.5,89.5C 194.566,90.5676 194.232,91.901 194.5,93.5C 193.566,94.5676 193.232,95.901 193.5,97.5C 187.118,99.3993 180.451,100.066 173.5,99.5C 172.833,103.833 172.167,108.167 171.5,112.5C 170.566,113.568 170.232,114.901 170.5,116.5C 168.702,120.219 168.202,124.219 169,128.5C 169.383,129.056 169.883,129.389 170.5,129.5C 174.797,131.913 179.131,131.913 183.5,129.5C 184.492,129.328 185.158,129.662 185.5,130.5C 184.566,131.568 184.232,132.901 184.5,134.5C 183.055,137.937 182.055,141.603 181.5,145.5C 172.854,147.438 164.52,146.605 156.5,143C 154.598,141.27 152.931,139.437 151.5,137.5C 151.737,136.209 151.404,135.209 150.5,134.5C 150.334,130.154 150.501,125.821 151,121.5C 154.842,104.464 158.842,87.4637 163,70.5C 165.277,69.8828 167.444,69.2161 169.5,68.5C 171.735,68.7947 173.735,68.4614 175.5,67.5 Z M 170.5,129.5 C 173.041,130.103 175.374,130.103 177.5,129.5C 179.5,129.5 181.5,129.5 183.5,129.5C 179.131,131.913 174.797,131.913 170.5,129.5 Z"/></g>
<g><path style="opacity:0.016" fill="#143450" d="M 136.5,67.5 C 136.737,68.791 136.404,69.791 135.5,70.5C 135.263,69.209 135.596,68.209 136.5,67.5 Z"/></g>
<g><path style="opacity:0.016" fill="#192860" d="M 182.5,67.5 C 183.573,68.2506 183.74,69.2506 183,70.5C 182.517,69.552 182.351,68.552 182.5,67.5 Z"/></g>
<g><path style="opacity:0.016" fill="#17264a" d="M 155.5,69.5 C 155.833,69.5 156.167,69.5 156.5,69.5C 156.784,71.4147 156.451,73.0813 155.5,74.5C 155.5,72.8333 155.5,71.1667 155.5,69.5 Z"/></g>
<g><path style="opacity:0.012" fill="#101140" d="M 135.5,70.5 C 135.768,72.099 135.434,73.4324 134.5,74.5C 134.232,72.901 134.566,71.5676 135.5,70.5 Z"/></g>
<g><path style="opacity:0.016" fill="#152655" d="M 160.5,70.5 C 161.573,71.2506 161.74,72.2506 161,73.5C 160.517,72.552 160.351,71.552 160.5,70.5 Z"/></g>
<g><path style="opacity:0.016" fill="#121d3c" d="M 155.5,74.5 C 155.657,75.8734 155.49,77.2068 155,78.5C 154.235,76.9343 154.402,75.6009 155.5,74.5 Z"/></g>
<g><path style="opacity:0.016" fill="#142f47" d="M 134.5,74.5 C 134.657,75.8734 134.49,77.2068 134,78.5C 133.235,76.9343 133.402,75.6009 134.5,74.5 Z"/></g>
<g><path style="opacity:0.016" fill="#16254a" d="M 93.5,75.5 C 94.0805,78.1853 94.4138,80.852 94.5,83.5C 94.5,83.8333 94.5,84.1667 94.5,84.5C 93.209,84.7373 92.209,84.404 91.5,83.5C 92.4345,82.4324 92.7678,81.099 92.5,79.5C 93.4345,78.4324 93.7678,77.099 93.5,75.5 Z"/></g>
<g><path style="opacity:0.005" fill="#0f021a" d="M 135.5,81.5 C 140.985,80.3483 146.651,80.1816 152.5,81C 146.843,81.4994 141.176,81.6661 135.5,81.5 Z"/></g>
<g><path style="opacity:0.016" fill="#023d3d" d="M 133.5,83.5 C 138.985,82.3483 144.651,82.1816 150.5,83C 144.843,83.4994 139.176,83.6661 133.5,83.5 Z"/></g>
<g><path style="opacity:0.016" fill="#0b3847" d="M 178.5,82.5 C 179.268,81.7375 179.768,80.7375 180,79.5C 180.483,80.448 180.649,81.448 180.5,82.5C 199.472,83.2659 198.805,83.2659 178.5,82.5 Z"/></g>
<g><path style="opacity:0.008" fill="#1b2c59" d="M 204.5,83.5 C 213.324,82.3427 222.324,82.176 231.5,83C 222.506,83.4998 213.506,83.6664 204.5,83.5 Z"/></g>
<g><path style="opacity:0.012" fill="#034d4d" d="M 356.5,83.5 C 361.985,82.3483 367.651,82.1816 373.5,83C 367.843,83.4994 362.176,83.6661 356.5,83.5 Z"/></g>
<g><path style="opacity:0.012" fill="#121542" d="M 73.5,80.5 C 72.5655,81.5676 72.2322,82.901 72.5,84.5C 71.3569,81.9321 71.5236,79.2654 73,76.5C 73.49,77.7932 73.6567,79.1266 73.5,80.5 Z"/></g>
<g><path style="opacity:0.016" fill="#182548" d="M 94.5,83.5 C 98.4076,82.2015 102.408,82.3682 106.5,84C 105.207,84.49 103.873,84.6567 102.5,84.5C 100.052,83.5269 97.3854,83.1936 94.5,83.5 Z"/></g>
<g><path style="opacity:0.915" fill="#002855" d="M 151.5,86.5 C 149.407,91.8785 148.073,97.5451 147.5,103.5C 146.566,104.568 146.232,105.901 146.5,107.5C 144.74,111.547 143.74,115.88 143.5,120.5C 142.566,121.568 142.232,122.901 142.5,124.5C 140.407,129.878 139.073,135.545 138.5,141.5C 137.691,143.028 137.024,144.694 136.5,146.5C 130.833,146.5 125.167,146.5 119.5,146.5C 121.961,135.528 124.294,124.528 126.5,113.5C 127.913,110.781 128.58,107.781 128.5,104.5C 129.434,103.432 129.768,102.099 129.5,100.5C 131.435,95.4271 132.768,90.0937 133.5,84.5C 139.926,83.88 145.926,84.5467 151.5,86.5 Z"/></g>
<g><path style="opacity:0.004" fill="#000000" d="M 152.5,86.5 C 152.369,85.7611 152.536,85.0944 153,84.5C 153.692,85.4368 153.525,86.1034 152.5,86.5 Z"/></g>
<g><path style="opacity:0.932" fill="#002855" d="M 250.5,115.5 C 249.549,116.919 249.216,118.585 249.5,120.5C 248.596,121.209 248.263,122.209 248.5,123.5C 247.662,123.842 247.328,124.508 247.5,125.5C 246.662,125.842 246.328,126.508 246.5,127.5C 245.662,127.842 245.328,128.508 245.5,129.5C 244.662,129.842 244.328,130.508 244.5,131.5C 243.833,131.5 243.5,131.833 243.5,132.5C 242.833,132.5 242.5,132.833 242.5,133.5C 233.26,143.748 221.76,147.748 208,145.5C 207.536,146.094 207.369,146.761 207.5,147.5C 206.566,148.568 206.232,149.901 206.5,151.5C 205.566,152.568 205.232,153.901 205.5,155.5C 204.566,156.568 204.232,157.901 204.5,159.5C 203.566,160.568 203.232,161.901 203.5,163.5C 202.662,163.842 202.328,164.508 202.5,165.5C 196.833,165.5 191.167,165.5 185.5,165.5C 185.5,163.833 185.5,162.167 185.5,160.5C 186.434,159.432 186.768,158.099 186.5,156.5C 189.768,145.422 192.435,134.089 194.5,122.5C 195.434,121.432 195.768,120.099 195.5,118.5C 198.768,107.422 201.435,96.0887 203.5,84.5C 212.839,84.3335 222.173,84.5002 231.5,85C 240.054,86.5546 245.888,91.3879 249,99.5C 250.191,104.767 250.691,110.101 250.5,115.5 Z M 218.5,100.5 C 218.5,102.167 218.5,103.833 218.5,105.5C 217.566,106.568 217.232,107.901 217.5,109.5C 216.566,110.568 216.232,111.901 216.5,113.5C 216.167,113.5 215.833,113.5 215.5,113.5C 215.74,108.88 216.74,104.547 218.5,100.5 Z M 226.5,101.5 C 227.29,102.401 228.29,103.068 229.5,103.5C 229.328,104.492 229.662,105.158 230.5,105.5C 230.5,109.167 230.5,112.833 230.5,116.5C 229.262,118.214 228.595,120.214 228.5,122.5C 227.094,122.973 226.427,123.973 226.5,125.5C 225.29,125.932 224.29,126.599 223.5,127.5C 221.847,127.66 220.514,128.326 219.5,129.5C 217.5,129.5 215.5,129.5 213.5,129.5C 213.5,128.5 213.5,127.5 213.5,126.5C 214.943,122.385 215.943,118.052 216.5,113.5C 217.434,112.432 217.768,111.099 217.5,109.5C 218.434,108.432 218.768,107.099 218.5,105.5C 219.434,104.432 219.768,103.099 219.5,101.5C 221.833,101.5 224.167,101.5 226.5,101.5 Z M 229.5,101.5 C 231.104,102.287 231.771,103.62 231.5,105.5C 231.167,105.5 230.833,105.5 230.5,105.5C 230.672,104.508 230.338,103.842 229.5,103.5C 229.5,102.833 229.5,102.167 229.5,101.5 Z M 231.5,105.5 C 232.162,107.304 232.495,109.304 232.5,111.5C 232.657,114.814 231.991,117.814 230.5,120.5C 230.5,119.167 230.5,117.833 230.5,116.5C 231.482,113.038 231.815,109.371 231.5,105.5 Z M 213.5,121.5 C 213.5,123.167 213.5,124.833 213.5,126.5C 212.596,127.209 212.263,128.209 212.5,129.5C 211.509,126.756 211.843,124.089 213.5,121.5 Z M 223.5,127.5 C 224.167,127.5 224.833,127.5 225.5,127.5C 225.027,128.906 224.027,129.573 222.5,129.5C 222.833,128.833 223.167,128.167 223.5,127.5 Z"/></g>
<g><path style="opacity:0.932" fill="#002855" d="M 313.5,87.5 C 311.407,92.8785 310.073,98.5451 309.5,104.5C 307.407,109.878 306.073,115.545 305.5,121.5C 304.837,123.641 304.503,125.975 304.5,128.5C 304.363,132.447 305.03,136.114 306.5,139.5C 306.595,141.786 307.262,143.786 308.5,145.5C 303.025,146.489 297.358,146.822 291.5,146.5C 291.068,145.29 290.401,144.29 289.5,143.5C 289.289,141.576 288.623,141.243 287.5,142.5C 286.833,142.5 286.5,142.833 286.5,143.5C 285.508,143.328 284.842,143.662 284.5,144.5C 283.508,144.328 282.842,144.662 282.5,145.5C 281.209,145.263 280.209,145.596 279.5,146.5C 273.531,147.006 267.865,146.006 262.5,143.5C 262.5,142.833 262.167,142.5 261.5,142.5C 260.833,141.167 259.833,140.167 258.5,139.5C 258.5,138.833 258.167,138.5 257.5,138.5C 256.492,136.456 255.492,134.456 254.5,132.5C 254.768,130.901 254.434,129.568 253.5,128.5C 253.5,124.167 253.5,119.833 253.5,115.5C 257.142,99.689 266.809,89.5223 282.5,85C 292.828,84.5002 303.161,84.3335 313.5,84.5C 313.5,85.5 313.5,86.5 313.5,87.5 Z M 285.5,100.5 C 287.693,99.2031 290.027,99.2031 292.5,100.5C 292.376,101.107 292.043,101.44 291.5,101.5C 289.735,100.539 287.735,100.205 285.5,100.5 Z M 281.5,101.5 C 281.167,102.167 280.833,102.833 280.5,103.5C 279.833,103.5 279.167,103.5 278.5,103.5C 278.973,102.094 279.973,101.427 281.5,101.5 Z M 285.5,101.5 C 287.099,101.232 288.432,101.566 289.5,102.5C 288.781,104.764 288.448,107.097 288.5,109.5C 287.566,110.568 287.232,111.901 287.5,113.5C 286.549,114.919 286.216,116.585 286.5,118.5C 285.549,119.919 285.216,121.585 285.5,123.5C 284.691,125.028 284.024,126.694 283.5,128.5C 280.904,129.265 278.237,129.599 275.5,129.5C 273.682,124.729 273.015,119.729 273.5,114.5C 274.404,113.791 274.737,112.791 274.5,111.5C 275.674,110.486 276.34,109.153 276.5,107.5C 278.167,106.5 279.5,105.167 280.5,103.5C 282.403,103.204 284.07,102.537 285.5,101.5 Z M 274.5,108.5 C 274.5,109.5 274.5,110.5 274.5,111.5C 273.596,112.209 273.263,113.209 273.5,114.5C 272.515,118.634 272.182,122.968 272.5,127.5C 271.352,123.019 271.185,118.352 272,113.5C 272.374,111.509 273.207,109.842 274.5,108.5 Z M 288.5,109.5 C 288.833,109.5 289.167,109.5 289.5,109.5C 289.58,112.781 288.913,115.781 287.5,118.5C 287.5,116.833 287.5,115.167 287.5,113.5C 288.434,112.432 288.768,111.099 288.5,109.5 Z M 286.5,118.5 C 286.833,118.5 287.167,118.5 287.5,118.5C 287.678,122.122 287.011,125.456 285.5,128.5C 285.5,126.833 285.5,125.167 285.5,123.5C 286.451,122.081 286.784,120.415 286.5,118.5 Z M 287.5,142.5 C 288.623,141.243 289.289,141.576 289.5,143.5C 288.833,143.167 288.167,142.833 287.5,142.5 Z"/></g>
<g><path style="opacity:0.931" fill="#002855" d="M 339.5,84.5 C 338.908,87.1272 338.575,89.7938 338.5,92.5C 337.566,93.5676 337.232,94.901 337.5,96.5C 336.566,97.5676 336.232,98.901 336.5,100.5C 334.74,104.547 333.74,108.88 333.5,113.5C 332.566,114.568 332.232,115.901 332.5,117.5C 331.313,119.74 330.646,122.24 330.5,125C 330.307,127.008 330.974,128.508 332.5,129.5C 334.055,130.633 335.889,131.299 338,131.5C 340.462,130.841 342.962,130.507 345.5,130.5C 345.5,129.167 345.5,127.833 345.5,126.5C 346.434,125.432 346.768,124.099 346.5,122.5C 347.434,121.432 347.768,120.099 347.5,118.5C 349.26,114.453 350.26,110.12 350.5,105.5C 351.434,104.432 351.768,103.099 351.5,101.5C 353.26,97.4535 354.26,93.1201 354.5,88.5C 355.434,87.4324 355.768,86.099 355.5,84.5C 361.5,84.5 367.5,84.5 373.5,84.5C 373.5,85.5 373.5,86.5 373.5,87.5C 371.74,91.5465 370.74,95.8799 370.5,100.5C 369.566,101.568 369.232,102.901 369.5,104.5C 365.346,120.778 361.012,137.111 356.5,153.5C 355.662,153.842 355.328,154.508 355.5,155.5C 354.662,155.842 354.328,156.508 354.5,157.5C 351.939,159.64 349.605,161.973 347.5,164.5C 346.833,164.5 346.5,164.833 346.5,165.5C 338.274,169.366 329.608,170.866 320.5,170C 319.484,169.481 318.818,168.647 318.5,167.5C 319.648,163.911 320.315,160.244 320.5,156.5C 322.167,154.616 324.334,154.282 327,155.5C 332.312,155.649 336.479,153.649 339.5,149.5C 340.848,148.473 341.348,147.14 341,145.5C 334.845,146.836 328.678,146.67 322.5,145C 319.172,143.521 316.506,141.355 314.5,138.5C 314.672,137.508 314.338,136.842 313.5,136.5C 312.537,132.204 312.371,127.871 313,123.5C 314.663,115.85 316.163,108.183 317.5,100.5C 318.434,99.4324 318.768,98.099 318.5,96.5C 320.102,92.7607 321.102,88.7607 321.5,84.5C 327.5,84.5 333.5,84.5 339.5,84.5 Z M 339.5,84.5 C 340.258,86.9815 340.258,89.6481 339.5,92.5C 339.167,92.5 338.833,92.5 338.5,92.5C 338.575,89.7938 338.908,87.1272 339.5,84.5 Z M 354.5,88.5 C 354.26,93.1201 353.26,97.4535 351.5,101.5C 351.74,96.8799 352.74,92.5465 354.5,88.5 Z M 336.5,100.5 C 336.26,105.12 335.26,109.453 333.5,113.5C 333.74,108.88 334.74,104.547 336.5,100.5 Z M 350.5,105.5 C 350.26,110.12 349.26,114.453 347.5,118.5C 347.704,115.482 348.037,112.482 348.5,109.5C 349.167,108.167 349.833,106.833 350.5,105.5 Z M 332.5,117.5 C 331.761,121.015 331.761,124.348 332.5,127.5C 332.5,128.167 332.5,128.833 332.5,129.5C 330.974,128.508 330.307,127.008 330.5,125C 330.646,122.24 331.313,119.74 332.5,117.5 Z M 344.5,126.5 C 344.833,126.5 345.167,126.5 345.5,126.5C 345.5,127.833 345.5,129.167 345.5,130.5C 342.962,130.507 340.462,130.841 338,131.5C 335.889,131.299 334.055,130.633 332.5,129.5C 333.833,129.5 335.167,129.5 336.5,129.5C 337.5,130.833 338.5,130.833 339.5,129.5C 341.167,129.5 342.833,129.5 344.5,129.5C 344.5,128.5 344.5,127.5 344.5,126.5 Z"/></g>
<g><path style="opacity:0.012" fill="#0e044a" d="M 374.5,87.5 C 374.351,86.448 374.517,85.448 375,84.5C 375.74,85.7494 375.573,86.7494 374.5,87.5 Z"/></g>
<g><path style="opacity:0.016" fill="#152f44" d="M 196.5,89.5 C 196.343,88.1266 196.51,86.7932 197,85.5C 197.765,87.0657 197.598,88.3991 196.5,89.5 Z"/></g>
<g><path style="opacity:0.016" fill="#162847" d="M 151.5,86.5 C 151.833,86.5 152.167,86.5 152.5,86.5C 152.784,88.4147 152.451,90.0813 151.5,91.5C 151.5,89.8333 151.5,88.1667 151.5,86.5 Z"/></g>
<g><path style="opacity:0.004" fill="#12142c" d="M 313.5,87.5 C 314.268,86.7375 314.768,85.7375 315,84.5C 315.484,86.9129 315.15,89.2462 314,91.5C 313.51,90.2068 313.343,88.8734 313.5,87.5 Z"/></g>
<g><path style="opacity:0.016" fill="#142b40" d="M 373.5,87.5 C 373.833,87.5 374.167,87.5 374.5,87.5C 374.167,92.8333 373.833,92.8333 373.5,87.5 Z"/></g>
<g><path style="opacity:0.016" fill="#143450" d="M 151.5,91.5 C 151.649,92.552 151.483,93.552 151,94.5C 150.26,93.2506 150.427,92.2506 151.5,91.5 Z"/></g>
<g><path style="opacity:0.016" fill="#162a44" d="M 195.5,89.5 C 195.833,89.5 196.167,89.5 196.5,89.5C 196.706,92.4951 196.04,95.1617 194.5,97.5C 194.5,96.1667 194.5,94.8333 194.5,93.5C 195.434,92.4324 195.768,91.099 195.5,89.5 Z"/></g>
<g><path style="opacity:0.008" fill="#000080" d="M 193.5,97.5 C 193.833,97.5 194.167,97.5 194.5,97.5C 194.167,100.167 193.833,100.167 193.5,97.5 Z"/></g>
<g><path style="opacity:0.016" fill="#162546" d="M 338.5,92.5 C 338.833,92.5 339.167,92.5 339.5,92.5C 339.579,95.2706 339.079,97.9373 338,100.5C 337.51,99.2068 337.343,97.8734 337.5,96.5C 338.434,95.4324 338.768,94.099 338.5,92.5 Z"/></g>
<g><path style="opacity:0.004" fill="#101a2a" d="M 149.5,99.5 C 149.343,98.1266 149.51,96.7932 150,95.5C 150.765,97.0657 150.598,98.3991 149.5,99.5 Z"/></g>
<g><path style="opacity:0.004" fill="#131734" d="M 129.5,100.5 C 128.566,101.568 128.232,102.901 128.5,104.5C 127.357,101.932 127.524,99.2654 129,96.5C 129.49,97.7932 129.657,99.1266 129.5,100.5 Z"/></g>
<g><path style="opacity:0.012" fill="#131642" d="M 318.5,96.5 C 317.566,97.5676 317.232,98.901 317.5,100.5C 316.357,97.9321 316.524,95.2654 318,92.5C 318.49,93.7932 318.657,95.1266 318.5,96.5 Z"/></g>
<g><path style="opacity:0.016" fill="#152f44" d="M 149.5,99.5 C 149.768,101.099 149.434,102.432 148.5,103.5C 148.232,101.901 148.566,100.568 149.5,99.5 Z"/></g>
<g><path style="opacity:0.012" fill="#060753" d="M 174.5,100.5 C 180.509,100.334 186.509,100.501 192.5,101C 186.843,101.499 181.176,101.666 175.5,101.5C 174.955,105.172 174.622,104.838 174.5,100.5 Z"/></g>
<g><path style="opacity:0.016" fill="#132440" d="M 218.5,100.5 C 221.167,100.5 223.833,100.5 226.5,100.5C 226.5,100.833 226.5,101.167 226.5,101.5C 224.167,101.5 221.833,101.5 219.5,101.5C 219.768,103.099 219.434,104.432 218.5,105.5C 218.5,103.833 218.5,102.167 218.5,100.5 Z"/></g>
<g><path style="opacity:0.012" fill="#0f0f4f" d="M 285.5,101.5 C 285.5,101.167 285.5,100.833 285.5,100.5C 287.735,100.205 289.735,100.539 291.5,101.5C 290.833,101.5 290.5,101.833 290.5,102.5C 290.167,102.5 289.833,102.5 289.5,102.5C 288.432,101.566 287.099,101.232 285.5,101.5 Z"/></g>
<g><path style="opacity:0.02" fill="#10183a" d="M 226.5,101.5 C 227.5,101.5 228.5,101.5 229.5,101.5C 229.5,102.167 229.5,102.833 229.5,103.5C 228.29,103.068 227.29,102.401 226.5,101.5 Z"/></g>
<g><path style="opacity:0.004" fill="#121430" d="M 281.5,101.5 C 282.833,101.5 284.167,101.5 285.5,101.5C 284.07,102.537 282.403,103.204 280.5,103.5C 280.833,102.833 281.167,102.167 281.5,101.5 Z"/></g>
<g><path style="opacity:0.004" fill="#11182c" d="M 289.5,102.5 C 289.833,102.5 290.167,102.5 290.5,102.5C 290.5,103.5 290.5,104.5 290.5,105.5C 289.566,106.568 289.232,107.901 289.5,109.5C 289.167,109.5 288.833,109.5 288.5,109.5C 288.448,107.097 288.781,104.764 289.5,102.5 Z"/></g>
<g><path style="opacity:0.004" fill="#171e45" d="M 309.5,104.5 C 310.29,103.391 310.79,102.058 311,100.5C 311.584,103.257 311.25,105.923 310,108.5C 309.51,107.207 309.343,105.873 309.5,104.5 Z"/></g>
<g><path style="opacity:0.004" fill="#172046" d="M 370.5,100.5 C 371.643,103.068 371.476,105.735 370,108.5C 369.51,107.207 369.343,105.873 369.5,104.5C 370.434,103.432 370.768,102.099 370.5,100.5 Z"/></g>
<g><path style="opacity:0.004" fill="#131530" d="M 278.5,103.5 C 279.167,103.5 279.833,103.5 280.5,103.5C 279.5,105.167 278.167,106.5 276.5,107.5C 276.5,106.833 276.5,106.167 276.5,105.5C 277.167,105.5 277.5,105.167 277.5,104.5C 278.167,104.5 278.5,104.167 278.5,103.5 Z"/></g>
<g><path style="opacity:0.012" fill="#16394c" d="M 253.5,111.5 C 252.833,111.5 252.167,111.5 251.5,111.5C 251.528,100.996 252.195,100.996 253.5,111.5 Z"/></g>
<g><path style="opacity:0.012" fill="#151d49" d="M 350.5,105.5 C 349.833,106.833 349.167,108.167 348.5,109.5C 348.421,106.729 348.921,104.063 350,101.5C 350.49,102.793 350.657,104.127 350.5,105.5 Z"/></g>
<g><path style="opacity:0.016" fill="#162246" d="M 147.5,103.5 C 147.833,103.5 148.167,103.5 148.5,103.5C 148.579,106.271 148.079,108.937 147,111.5C 146.51,110.207 146.343,108.873 146.5,107.5C 147.434,106.432 147.768,105.099 147.5,103.5 Z"/></g>
<g><path style="opacity:0.004" fill="#0d171f" d="M 275.5,107.5 C 275.833,107.5 276.167,107.5 276.5,107.5C 276.34,109.153 275.674,110.486 274.5,111.5C 274.5,110.5 274.5,109.5 274.5,108.5C 275.167,108.5 275.5,108.167 275.5,107.5 Z"/></g>
<g><path style="opacity:0.016" fill="#152b3f" d="M 126.5,113.5 C 125.732,114.263 125.232,115.263 125,116.5C 124.672,113.793 125.005,111.126 126,108.5C 126.494,110.134 126.66,111.801 126.5,113.5 Z"/></g>
<g><path style="opacity:0.008" fill="#171e4f" d="M 120.5,114.5 C 120.335,110.818 120.501,107.152 121,103.5C 121.81,107.358 121.643,111.024 120.5,114.5 Z"/></g>
<g><path style="opacity:0.008" fill="#101061" d="M 251.5,111.5 C 252.167,111.5 252.833,111.5 253.5,111.5C 253.5,112.833 253.5,114.167 253.5,115.5C 252.596,116.209 252.263,117.209 252.5,118.5C 251.596,117.791 251.263,116.791 251.5,115.5C 251.5,114.167 251.5,112.833 251.5,111.5 Z"/></g>
<g><path style="opacity:0.016" fill="#162246" d="M 171.5,112.5 C 172.643,115.068 172.476,117.735 171,120.5C 170.51,119.207 170.343,117.873 170.5,116.5C 171.434,115.432 171.768,114.099 171.5,112.5 Z"/></g>
<g><path style="opacity:0.004" fill="#12192d" d="M 99.5,116.5 C 99.5,117.5 99.5,118.5 99.5,119.5C 98.6618,119.842 98.3284,120.508 98.5,121.5C 98.1667,121.5 97.8333,121.5 97.5,121.5C 97.4021,119.447 98.0687,117.78 99.5,116.5 Z"/></g>
<g><path style="opacity:0.008" fill="#151958" d="M 119.5,114.5 C 119.833,114.5 120.167,114.5 120.5,114.5C 120.784,116.415 120.451,118.081 119.5,119.5C 119.5,117.833 119.5,116.167 119.5,114.5 Z"/></g>
<g><path style="opacity:0.016" fill="#152a42" d="M 195.5,118.5 C 194.566,119.568 194.232,120.901 194.5,122.5C 193.482,119.623 193.649,116.623 195,113.5C 195.494,115.134 195.66,116.801 195.5,118.5 Z"/></g>
<g><path style="opacity:0.004" fill="#131730" d="M 230.5,116.5 C 230.5,117.833 230.5,119.167 230.5,120.5C 229.662,120.842 229.328,121.508 229.5,122.5C 229.167,122.5 228.833,122.5 228.5,122.5C 228.595,120.214 229.262,118.214 230.5,116.5 Z"/></g>
<g><path style="opacity:0.02" fill="#11274e" d="M 250.5,115.5 C 250.833,115.5 251.167,115.5 251.5,115.5C 251.263,116.791 251.596,117.791 252.5,118.5C 252.5,121.833 252.5,125.167 252.5,128.5C 251.833,125.833 251.167,123.167 250.5,120.5C 250.5,118.833 250.5,117.167 250.5,115.5 Z"/></g>
<g><path style="opacity:0.016" fill="#192860" d="M 118.5,119.5 C 118.833,119.5 119.167,119.5 119.5,119.5C 119.737,120.791 119.404,121.791 118.5,122.5C 118.5,121.5 118.5,120.5 118.5,119.5 Z"/></g>
<g><path style="opacity:0.016" fill="#152655" d="M 249.5,120.5 C 249.833,120.5 250.167,120.5 250.5,120.5C 250.737,121.791 250.404,122.791 249.5,123.5C 249.5,122.5 249.5,121.5 249.5,120.5 Z"/></g>
<g><path style="opacity:0.012" fill="#10194e" d="M 117.5,122.5 C 117.833,122.5 118.167,122.5 118.5,122.5C 118.672,123.492 118.338,124.158 117.5,124.5C 117.5,123.833 117.5,123.167 117.5,122.5 Z"/></g>
<g><path style="opacity:0.016" fill="#102d39" d="M 306.5,139.5 C 305.759,133.529 305.425,127.529 305.5,121.5C 306.29,120.391 306.79,119.058 307,117.5C 307.167,118.333 307.333,119.167 307.5,120C 306.753,126.662 306.419,133.162 306.5,139.5 Z"/></g>
<g><path style="opacity:0.012" fill="#151e4a" d="M 346.5,122.5 C 345.566,123.568 345.232,124.901 345.5,126.5C 345.167,126.5 344.833,126.5 344.5,126.5C 344.421,123.729 344.921,121.063 346,118.5C 346.49,119.793 346.657,121.127 346.5,122.5 Z"/></g>
<g><path style="opacity:0.016" fill="#0e3946" d="M 149.5,134.5 C 148.353,130.354 148.186,126.02 149,121.5C 149.499,125.821 149.666,130.154 149.5,134.5 Z"/></g>
<g><path style="opacity:0.024" fill="#12214b" d="M 228.5,122.5 C 228.5,123.167 228.5,123.833 228.5,124.5C 227.833,124.5 227.5,124.833 227.5,125.5C 227.167,125.5 226.833,125.5 226.5,125.5C 226.427,123.973 227.094,122.973 228.5,122.5 Z"/></g>
<g><path style="opacity:0.012" fill="#1c3e64" d="M 116.5,124.5 C 116.833,124.5 117.167,124.5 117.5,124.5C 117.672,125.492 117.338,126.158 116.5,126.5C 116.5,125.833 116.5,125.167 116.5,124.5 Z"/></g>
<g><path style="opacity:0.016" fill="#162546" d="M 143.5,120.5 C 144.643,123.068 144.476,125.735 143,128.5C 142.51,127.207 142.343,125.873 142.5,124.5C 143.434,123.432 143.768,122.099 143.5,120.5 Z"/></g>
<g><path style="opacity:0.004" fill="#0d201f" d="M 248.5,123.5 C 248.833,123.5 249.167,123.5 249.5,123.5C 249.539,126.089 248.539,128.089 246.5,129.5C 246.5,128.833 246.5,128.167 246.5,127.5C 247.338,127.158 247.672,126.492 247.5,125.5C 248.338,125.158 248.672,124.492 248.5,123.5 Z"/></g>
<g><path style="opacity:0.012" fill="#000055" d="M 115.5,126.5 C 115.833,126.5 116.167,126.5 116.5,126.5C 116.672,127.492 116.338,128.158 115.5,128.5C 115.5,127.833 115.5,127.167 115.5,126.5 Z"/></g>
<g><path style="opacity:0.004" fill="#141b38" d="M 273.5,114.5 C 273.015,119.729 273.682,124.729 275.5,129.5C 274.833,129.5 274.167,129.5 273.5,129.5C 273.672,128.508 273.338,127.842 272.5,127.5C 272.182,122.968 272.515,118.634 273.5,114.5 Z"/></g>
<g><path style="opacity:0.004" fill="#161f39" d="M 285.5,123.5 C 285.5,125.167 285.5,126.833 285.5,128.5C 284.833,128.5 284.167,128.5 283.5,128.5C 284.024,126.694 284.691,125.028 285.5,123.5 Z"/></g>
<g><path style="opacity:0.004" fill="#111426" d="M 183.5,129.5 C 181.5,129.5 179.5,129.5 177.5,129.5C 179.343,128.717 181.343,128.05 183.5,127.5C 184.463,127.97 184.463,128.637 183.5,129.5 Z"/></g>
<g><path style="opacity:0.016" fill="#14263b" d="M 223.5,127.5 C 223.167,128.167 222.833,128.833 222.5,129.5C 221.5,129.5 220.5,129.5 219.5,129.5C 220.514,128.326 221.847,127.66 223.5,127.5 Z"/></g>
<g><path style="opacity:0.02" fill="#142157" d="M 332.5,127.5 C 333.995,127.989 335.329,128.655 336.5,129.5C 335.167,129.5 333.833,129.5 332.5,129.5C 332.5,128.833 332.5,128.167 332.5,127.5 Z"/></g>
<g><path style="opacity:0.004" fill="#121230" d="M 344.5,126.5 C 344.5,127.5 344.5,128.5 344.5,129.5C 342.833,129.5 341.167,129.5 339.5,129.5C 341.294,128.767 342.961,127.767 344.5,126.5 Z"/></g>
<g><path style="opacity:0.004" fill="#0b1919" d="M 114.5,128.5 C 114.833,128.5 115.167,128.5 115.5,128.5C 115.672,129.492 115.338,130.158 114.5,130.5C 114.5,129.833 114.5,129.167 114.5,128.5 Z"/></g>
<g><path style="opacity:0.016" fill="#093d40" d="M 213.5,126.5 C 213.5,127.5 213.5,128.5 213.5,129.5C 215.5,129.5 217.5,129.5 219.5,129.5C 219.5,129.833 219.5,130.167 219.5,130.5C 217.167,130.5 214.833,130.5 212.5,130.5C 212.5,130.167 212.5,129.833 212.5,129.5C 212.263,128.209 212.596,127.209 213.5,126.5 Z"/></g>
<g><path style="opacity:0.016" fill="#00403f" d="M 113.5,130.5 C 113.833,130.5 114.167,130.5 114.5,130.5C 114.315,131.17 113.981,131.17 113.5,130.5 Z"/></g>
<g><path style="opacity:0.008" fill="#000071" d="M 245.5,129.5 C 245.833,129.5 246.167,129.5 246.5,129.5C 246.672,130.492 246.338,131.158 245.5,131.5C 245.5,130.833 245.5,130.167 245.5,129.5 Z"/></g>
<g><path style="opacity:0.016" fill="#00403f" d="M 244.5,131.5 C 244.833,131.5 245.167,131.5 245.5,131.5C 245.315,132.17 244.981,132.17 244.5,131.5 Z"/></g>
<g><path style="opacity:0.004" fill="#161639" d="M 112.5,131.5 C 112.833,131.5 113.167,131.5 113.5,131.5C 112.968,134.46 112.301,134.793 111.5,132.5C 112.167,132.5 112.5,132.167 112.5,131.5 Z"/></g>
<g><path style="opacity:0.004" fill="#111b28" d="M 252.5,128.5 C 252.833,128.5 253.167,128.5 253.5,128.5C 253.232,130.099 253.566,131.432 254.5,132.5C 254.766,134.347 254.432,135.014 253.5,134.5C 252.652,132.591 252.318,130.591 252.5,128.5 Z"/></g>
<g><path style="opacity:0.004" fill="#121428" d="M 243.5,132.5 C 243.833,132.5 244.167,132.5 244.5,132.5C 243.968,135.46 243.301,135.793 242.5,133.5C 243.167,133.5 243.5,133.167 243.5,132.5 Z"/></g>
<g><path style="opacity:0.016" fill="#192860" d="M 149.5,134.5 C 149.833,134.5 150.167,134.5 150.5,134.5C 150.5,135.5 150.5,136.5 150.5,137.5C 149.596,136.791 149.263,135.791 149.5,134.5 Z"/></g>
<g><path style="opacity:0.016" fill="#162a44" d="M 185.5,130.5 C 186.643,133.068 186.476,135.735 185,138.5C 184.51,137.207 184.343,135.873 184.5,134.5C 185.434,133.432 185.768,132.099 185.5,130.5 Z"/></g>
<g><path style="opacity:0.004" fill="#12142c" d="M 59.5,139.5 C 58.7321,140.263 58.2321,141.263 58,142.5C 57.5162,140.087 57.8495,137.754 59,135.5C 59.49,136.793 59.6567,138.127 59.5,139.5 Z"/></g>
<g><path style="opacity:0.008" fill="#1b2572" d="M 150.5,137.5 C 150.833,137.5 151.167,137.5 151.5,137.5C 151.167,140.167 150.833,140.167 150.5,137.5 Z"/></g>
<g><path style="opacity:0.004" fill="#121325" d="M 313.5,136.5 C 313.328,137.492 313.662,138.158 314.5,138.5C 314.607,140.379 314.107,140.712 313,139.5C 312.26,138.251 312.427,137.251 313.5,136.5 Z"/></g>
<g><path style="opacity:0.004" fill="#121428" d="M 257.5,138.5 C 258.167,138.5 258.5,138.833 258.5,139.5C 258.253,141.975 257.587,141.975 256.5,139.5C 256.624,138.893 256.957,138.56 257.5,138.5 Z"/></g>
<g><path style="opacity:0.016" fill="#00403f" d="M 103.5,140.5 C 104.833,141.167 104.833,141.167 103.5,140.5 Z"/></g>
<g><path style="opacity:0.012" fill="#000062" d="M 101.5,142.5 C 101.5,142.167 101.5,141.833 101.5,141.5C 102.167,141.5 102.833,141.5 103.5,141.5C 103.158,142.338 102.492,142.672 101.5,142.5 Z"/></g>
<g><path style="opacity:0.004" fill="#171e45" d="M 138.5,141.5 C 139.29,140.391 139.79,139.058 140,137.5C 140.584,140.257 140.25,142.923 139,145.5C 138.51,144.207 138.343,142.873 138.5,141.5 Z"/></g>
<g><path style="opacity:0.016" fill="#00403f" d="M 100.5,142.5 C 100.833,142.5 101.167,142.5 101.5,142.5C 101.315,143.17 100.981,143.17 100.5,142.5 Z"/></g>
<g><path style="opacity:0.016" fill="#172347" d="M 261.5,142.5 C 262.167,142.5 262.5,142.833 262.5,143.5C 261.503,144.713 260.503,144.546 259.5,143C 260.094,142.536 260.761,142.369 261.5,142.5 Z"/></g>
<g><path style="opacity:0.004" fill="#0c2222" d="M 287.5,142.5 C 288.167,142.833 288.833,143.167 289.5,143.5C 289.631,144.239 289.464,144.906 289,145.5C 288.329,144.748 287.496,144.414 286.5,144.5C 286.5,144.167 286.5,143.833 286.5,143.5C 287.167,143.5 287.5,143.167 287.5,142.5 Z"/></g>
<g><path style="opacity:0.016" fill="#152640" d="M 308.5,145.5 C 308.351,144.448 308.517,143.448 309,142.5C 309.74,143.749 309.573,144.749 308.5,145.5 Z"/></g>
<g><path style="opacity:0.008" fill="#1b2572" d="M 284.5,145.5 C 284.5,145.167 284.5,144.833 284.5,144.5C 285.167,144.5 285.833,144.5 286.5,144.5C 286.158,145.338 285.492,145.672 284.5,145.5 Z"/></g>
<g><path style="opacity:0.004" fill="#101324" d="M 117.5,142.5 C 118.598,143.601 118.765,144.934 118,146.5C 117.51,145.207 117.343,143.873 117.5,142.5 Z"/></g>
<g><path style="opacity:0.012" fill="#132055" d="M 282.5,146.5 C 282.5,146.167 282.5,145.833 282.5,145.5C 283.167,145.5 283.833,145.5 284.5,145.5C 284.158,146.338 283.492,146.672 282.5,146.5 Z"/></g>
<g><path style="opacity:0.004" fill="#000000" d="M 136.5,146.5 C 137.833,147.167 137.833,147.167 136.5,146.5 Z"/></g>
<g><path style="opacity:0.016" fill="#152655" d="M 279.5,147.5 C 279.5,147.167 279.5,146.833 279.5,146.5C 280.5,146.5 281.5,146.5 282.5,146.5C 281.791,147.404 280.791,147.737 279.5,147.5 Z"/></g>
<g><path style="opacity:0.004" fill="#000000" d="M 291.5,146.5 C 291.5,146.833 291.5,147.167 291.5,147.5C 290.83,147.019 290.83,146.685 291.5,146.5 Z"/></g>
<g><path style="opacity:0.016" fill="#073e48" d="M 136.5,147.5 C 131.015,148.652 125.349,148.818 119.5,148C 125.157,147.501 130.824,147.334 136.5,147.5 Z"/></g>
<g><path style="opacity:0.008" fill="#17225a" d="M 207.5,147.5 C 211.846,147.334 216.179,147.501 220.5,148C 216.514,148.499 212.514,148.666 208.5,148.5C 208.737,149.791 208.404,150.791 207.5,151.5C 207.5,150.167 207.5,148.833 207.5,147.5 Z"/></g>
<g><path style="opacity:0.008" fill="#171d4f" d="M 279.5,147.5 C 276.36,148.641 273.027,148.808 269.5,148C 272.817,147.502 276.15,147.335 279.5,147.5 Z"/></g>
<g><path style="opacity:0.016" fill="#023e44" d="M 291.5,147.5 C 296.844,147.334 302.177,147.501 307.5,148C 301.984,148.817 296.65,148.651 291.5,147.5 Z"/></g>
<g><path style="opacity:0.016" fill="#132e54" d="M 339.5,149.5 C 335.25,148.728 330.917,148.228 326.5,148C 328.667,147.833 330.833,147.667 333,147.5C 335.61,147.533 337.777,148.2 339.5,149.5 Z"/></g>
<g><path style="opacity:0.016" fill="#142b40" d="M 206.5,151.5 C 206.833,151.5 207.167,151.5 207.5,151.5C 207.768,153.099 207.434,154.432 206.5,155.5C 206.5,154.167 206.5,152.833 206.5,151.5 Z"/></g>
<g><path style="opacity:0.004" fill="#000000" d="M 321.5,153.5 C 321.897,152.475 322.563,152.308 323.5,153C 322.906,153.464 322.239,153.631 321.5,153.5 Z"/></g>
<g><path style="opacity:0.016" fill="#162b44" d="M 186.5,156.5 C 185.566,157.568 185.232,158.901 185.5,160.5C 185.167,160.5 184.833,160.5 184.5,160.5C 184.547,157.432 185.047,154.432 186,151.5C 186.494,153.134 186.66,154.801 186.5,156.5 Z"/></g>
<g><path style="opacity:0.012" fill="#1c3e64" d="M 356.5,153.5 C 357.833,154.167 357.833,154.833 356.5,155.5C 356.5,154.833 356.5,154.167 356.5,153.5 Z"/></g>
<g><path style="opacity:0.008" fill="#000071" d="M 355.5,155.5 C 355.833,155.5 356.167,155.5 356.5,155.5C 356.672,156.492 356.338,157.158 355.5,157.5C 355.5,156.833 355.5,156.167 355.5,155.5 Z"/></g>
<g><path style="opacity:0.012" fill="#141642" d="M 320.5,156.5 C 319.71,157.609 319.21,158.942 319,160.5C 318.202,158.741 318.369,157.074 319.5,155.5C 320.107,155.624 320.44,155.957 320.5,156.5 Z"/></g>
<g><path style="opacity:0.016" fill="#00403f" d="M 354.5,157.5 C 354.833,157.5 355.167,157.5 355.5,157.5C 355.315,158.17 354.981,158.17 354.5,157.5 Z"/></g>
<g><path style="opacity:0.016" fill="#162a44" d="M 205.5,155.5 C 205.833,155.5 206.167,155.5 206.5,155.5C 206.706,158.495 206.04,161.162 204.5,163.5C 204.5,162.167 204.5,160.833 204.5,159.5C 205.434,158.432 205.768,157.099 205.5,155.5 Z"/></g>
<g><path style="opacity:0.012" fill="#0c0e47" d="M 184.5,160.5 C 184.768,162.099 184.434,163.432 183.5,164.5C 183.232,162.901 183.566,161.568 184.5,160.5 Z"/></g>
<g><path style="opacity:0.008" fill="#000080" d="M 203.5,163.5 C 203.833,163.5 204.167,163.5 204.5,163.5C 204.672,164.492 204.338,165.158 203.5,165.5C 203.5,164.833 203.5,164.167 203.5,163.5 Z"/></g>
<g><path style="opacity:0.004" fill="#000000" d="M 183.5,164.5 C 182.833,165.167 182.833,165.167 183.5,164.5 Z"/></g>
<g><path style="opacity:0.004" fill="#000000" d="M 202.5,165.5 C 202.833,165.5 203.167,165.5 203.5,165.5C 203.315,166.17 202.981,166.17 202.5,165.5 Z"/></g>
<g><path style="opacity:0.004" fill="#161639" d="M 347.5,164.5 C 349.975,164.747 349.975,165.413 347.5,166.5C 346.893,166.376 346.56,166.043 346.5,165.5C 347.167,165.5 347.5,165.167 347.5,164.5 Z"/></g>
<g><path style="opacity:0.012" fill="#000059" d="M 202.5,166.5 C 197.015,167.652 191.349,167.818 185.5,167C 191.157,166.501 196.824,166.334 202.5,166.5 Z"/></g>
</svg>
