<?xml version="1.0" encoding="UTF-8"?>
<!DOCTYPE svg PUBLIC "-//W3C//DTD SVG 1.1//EN" "http://www.w3.org/Graphics/SVG/1.1/DTD/svg11.dtd">
<svg xmlns="http://www.w3.org/2000/svg" version="1.1" width="1280px" height="831px" style="shape-rendering:geometricPrecision; text-rendering:geometricPrecision; image-rendering:optimizeQuality; fill-rule:evenodd; clip-rule:evenodd" xmlns:xlink="http://www.w3.org/1999/xlink">
<g><path style="opacity:0.987" fill="#c8026e" d="M 252.5,83.5 C 306.98,80.3102 346.813,102.644 372,150.5C 376.562,161.415 379.562,172.748 381,184.5C 381.667,199.833 381.667,215.167 381,230.5C 380.215,232.286 379.049,233.786 377.5,235C 369.265,236.138 360.931,236.638 352.5,236.5C 343.761,236.623 335.095,236.123 326.5,235C 324.683,233.2 323.516,231.034 323,228.5C 322.667,214.5 322.333,200.5 322,186.5C 316.968,164.597 303.802,150.097 282.5,143C 255.103,136.574 233.269,144.74 217,167.5C 213.683,173.117 211.35,179.117 210,185.5C 208.767,200.794 208.101,216.127 208,231.5C 206.773,233.726 204.939,235.226 202.5,236C 187.167,236.667 171.833,236.667 156.5,236C 154.671,235.727 153.171,234.893 152,233.5C 150.86,224.763 150.36,215.93 150.5,207C 148.678,153.193 172.012,114.86 220.5,92C 230.983,87.9453 241.649,85.112 252.5,83.5 Z"/></g>
<g><path style="opacity:0.991" fill="#c8026e" d="M 130.5,278.5 C 220.501,278.333 310.501,278.5 400.5,279C 426.116,284.283 441.283,299.783 446,325.5C 446.5,392.833 446.667,460.166 446.5,527.5C 385.166,527.667 323.832,527.5 262.5,527C 235.928,525.726 215.928,513.726 202.5,491C 269.166,490.5 335.833,490.333 402.5,490.5C 402.667,477.496 402.5,464.496 402,451.5C 397.252,398.456 371.419,359.623 324.5,335C 269.352,311.925 219.018,319.592 173.5,358C 130.872,401.895 120.039,452.729 141,510.5C 158.785,549.947 188.285,576.447 229.5,590C 238.999,592.639 248.666,594.305 258.5,595C 320.832,595.5 383.166,595.667 445.5,595.5C 441.725,614.785 430.725,628.285 412.5,636C 408.277,637.472 403.943,638.472 399.5,639C 310.167,639.667 220.833,639.667 131.5,639C 106.333,633.833 91.1667,618.667 86,593.5C 85.3333,503.5 85.3333,413.5 86,323.5C 91.0075,298.66 105.841,283.66 130.5,278.5 Z"/></g>
<g><path style="opacity:0.993" fill="#706f6e" d="M 606.5,321.5 C 665.871,320.422 709.704,345.755 738,397.5C 759.484,447.049 755.484,494.383 726,539.5C 702.968,570.839 672.135,589.339 633.5,595C 605.192,596.411 576.859,596.911 548.5,596.5C 548.5,645.5 548.5,694.5 548.5,743.5C 525.5,743.5 502.5,743.5 479.5,743.5C 479.333,647.166 479.5,550.833 480,454.5C 484.325,394.988 513.825,353.488 568.5,330C 580.977,325.674 593.644,322.841 606.5,321.5 Z M 610.5,389.5 C 650.106,390.278 674.273,409.945 683,448.5C 685.717,478.899 674.217,502.065 648.5,518C 639.399,522.692 629.733,525.359 619.5,526C 595.836,526.5 572.169,526.667 548.5,526.5C 548.333,501.164 548.5,475.831 549,450.5C 555.479,415.853 575.979,395.52 610.5,389.5 Z"/></g>
<g><path style="opacity:0.997" fill="#706f6e" d="M 857.5,321.5 C 905.167,321.5 952.833,321.5 1000.5,321.5C 1000.5,343.833 1000.5,366.167 1000.5,388.5C 955.165,388.333 909.832,388.5 864.5,389C 850.814,393.207 846.314,402.04 851,415.5C 853.592,418.762 856.759,421.262 860.5,423C 892.833,423.333 925.167,423.667 957.5,424C 1003.62,429.785 1030.45,455.618 1038,501.5C 1039.73,534.531 1027.56,561.031 1001.5,581C 988.886,589.761 974.886,594.761 959.5,596C 874.165,596.833 788.831,596.667 703.5,595.5C 724.97,585.53 741.47,570.197 753,549.5C 757.167,542 761.333,534.5 765.5,527C 828.5,526.667 891.5,526.333 954.5,526C 969.044,522.078 973.211,513.245 967,499.5C 965.062,496.894 962.562,495.061 959.5,494C 925.227,492.687 890.894,492.02 856.5,492C 828.402,488.203 806.902,474.37 792,450.5C 773.061,412.822 777.394,378.156 805,346.5C 819.785,332.356 837.285,324.023 857.5,321.5 Z"/></g>
<g><path style="opacity:0.982" fill="#c7026e" d="M 257.5,385.5 C 289.361,383.927 313.361,396.76 329.5,424C 287.163,424.833 244.829,424.667 202.5,423.5C 215.257,402.632 233.591,389.965 257.5,385.5 Z"/></g>
<g><path style="opacity:0.944" fill="#71706f" d="M 657.5,666.5 C 659.857,666.337 662.19,666.503 664.5,667C 667.22,670.875 666.554,674.209 662.5,677C 656,678.5 653.5,676 655,669.5C 656.045,668.627 656.878,667.627 657.5,666.5 Z"/></g>
<g><path style="opacity:0.945" fill="#706f6e" d="M 677.5,666.5 C 685.993,665.471 688.327,668.637 684.5,676C 679.643,678.741 676.309,677.575 674.5,672.5C 674.984,670.199 675.984,668.199 677.5,666.5 Z"/></g>
<g><path style="opacity:0.963" fill="#706f6e" d="M 640.5,683.5 C 644.226,683.177 647.893,683.511 651.5,684.5C 648.953,697.114 646.62,709.78 644.5,722.5C 646.301,732.581 652.301,736.414 662.5,734C 668.641,731.859 672.807,727.693 675,721.5C 677.62,708.902 679.786,696.236 681.5,683.5C 685.167,683.5 688.833,683.5 692.5,683.5C 690.298,699.051 687.131,714.384 683,729.5C 677.001,739.671 668.001,744.671 656,744.5C 638.791,742.945 631.791,733.612 635,716.5C 637.051,705.524 638.885,694.524 640.5,683.5 Z"/></g>
<g><path style="opacity:0.939" fill="#6f6e6d" d="M 980.5,682.5 C 987.518,682.77 989.351,686.103 986,692.5C 977.744,696.731 974.577,694.398 976.5,685.5C 977.901,684.479 979.235,683.479 980.5,682.5 Z"/></g>
<g><path style="opacity:0.968" fill="#706f6e" d="M 705.5,683.5 C 708.898,683.18 712.232,683.513 715.5,684.5C 713.741,691.453 712.574,698.453 712,705.5C 718.918,699.579 726.751,698.079 735.5,701C 742.183,704.699 745.183,710.366 744.5,718C 742.755,738.401 731.755,746.734 711.5,743C 709.376,741.878 707.543,740.378 706,738.5C 704.991,740.025 704.491,741.692 704.5,743.5C 701.5,743.5 698.5,743.5 695.5,743.5C 698.4,723.431 701.734,703.431 705.5,683.5 Z M 722.5,708.5 C 729.938,708.101 734.272,711.601 735.5,719C 733.973,728.527 728.473,734.027 719,735.5C 708.778,732.524 706.111,726.191 711,716.5C 714.15,712.689 717.983,710.023 722.5,708.5 Z"/></g>
<g><path style="opacity:0.947" fill="#706f6e" d="M 773.5,699.5 C 793.2,697.578 800.866,706.245 796.5,725.5C 785.167,725.5 773.833,725.5 762.5,725.5C 762.245,729.493 763.911,732.326 767.5,734C 774.415,736.19 780.748,735.023 786.5,730.5C 788.167,732.5 789.833,734.5 791.5,736.5C 786.113,742.08 779.446,744.746 771.5,744.5C 756.456,742.935 750.289,734.602 753,719.5C 755.783,708.549 762.616,701.882 773.5,699.5 Z M 774.5,708.5 C 781.564,707.276 786.231,709.942 788.5,716.5C 780.5,717.833 772.5,717.833 764.5,716.5C 767.011,712.64 770.344,709.974 774.5,708.5 Z"/></g>
<g><path style="opacity:0.951" fill="#706f6e" d="M 827.5,699.5 C 832.412,699.063 837.078,699.896 841.5,702C 842.535,703.507 842.368,705.007 841,706.5C 839.959,708.585 838.459,710.252 836.5,711.5C 827.177,707.414 820.677,710.081 817,719.5C 815.559,727.147 814.225,734.814 813,742.5C 809.943,743.451 806.777,743.784 803.5,743.5C 805.446,729.103 807.779,714.769 810.5,700.5C 813.5,700.5 816.5,700.5 819.5,700.5C 819.281,701.675 819.614,702.675 820.5,703.5C 822.765,701.873 825.099,700.539 827.5,699.5 Z"/></g>
<g><path style="opacity:0.951" fill="#706f6e" d="M 936.5,699.5 C 956.693,697.024 964.693,705.691 960.5,725.5C 949.167,725.5 937.833,725.5 926.5,725.5C 926.245,729.493 927.911,732.326 931.5,734C 938.415,736.19 944.748,735.023 950.5,730.5C 952.167,732.5 953.833,734.5 955.5,736.5C 950.035,741.89 943.368,744.557 935.5,744.5C 922.907,744.074 916.574,737.574 916.5,725C 917.086,711.633 923.753,703.133 936.5,699.5 Z M 938.5,708.5 C 945.564,707.276 950.231,709.942 952.5,716.5C 944.5,717.833 936.5,717.833 928.5,716.5C 931.011,712.64 934.344,709.974 938.5,708.5 Z"/></g>
<g><path style="opacity:0.953" fill="#706f6e" d="M 1006.5,699.5 C 1015.04,698.141 1022.71,699.975 1029.5,705C 1027.32,707.35 1024.98,709.517 1022.5,711.5C 1015.21,705.781 1008.54,706.281 1002.5,713C 1003.17,714.333 1004.17,715.333 1005.5,716C 1011.8,716.659 1017.8,718.326 1023.5,721C 1029.24,730.825 1026.91,738.158 1016.5,743C 1007.87,745.503 999.538,744.836 991.5,741C 989.981,739.649 988.648,738.149 987.5,736.5C 989.483,734.016 991.65,731.683 994,729.5C 999.773,735.576 1006.61,737.076 1014.5,734C 1017.17,731.667 1017.17,729.333 1014.5,727C 1008.24,726.182 1002.24,724.515 996.5,722C 993.135,717.181 992.635,712.014 995,706.5C 998.257,703.048 1002.09,700.715 1006.5,699.5 Z"/></g>
<g><path style="opacity:0.963" fill="#706f6e" d="M 1115.5,699.5 C 1129.98,699.146 1136.14,706.146 1134,720.5C 1132.67,727.833 1131.33,735.167 1130,742.5C 1126.94,743.451 1123.78,743.784 1120.5,743.5C 1121.44,734.784 1122.78,726.117 1124.5,717.5C 1124.47,711.634 1121.47,708.634 1115.5,708.5C 1109.8,709.37 1105.63,712.37 1103,717.5C 1100.79,726.046 1099.29,734.713 1098.5,743.5C 1095.17,743.5 1091.83,743.5 1088.5,743.5C 1090.73,729.149 1093.06,714.816 1095.5,700.5C 1098.5,700.5 1101.5,700.5 1104.5,700.5C 1104.24,701.978 1104.57,703.311 1105.5,704.5C 1108.66,702.255 1111.99,700.588 1115.5,699.5 Z"/></g>
<g><path style="opacity:0.961" fill="#706f6e" d="M 1164.5,699.5 C 1171.33,698.439 1177.33,700.106 1182.5,704.5C 1183.43,703.311 1183.76,701.978 1183.5,700.5C 1186.83,700.5 1190.17,700.5 1193.5,700.5C 1190.78,716.509 1187.94,732.509 1185,748.5C 1181.73,758.39 1174.9,763.89 1164.5,765C 1156.16,766.471 1148.99,764.304 1143,758.5C 1141.66,754.974 1141.16,751.308 1141.5,747.5C 1144.5,747.5 1147.5,747.5 1150.5,747.5C 1150.54,751.09 1152.21,753.59 1155.5,755C 1168.51,757.608 1175.34,752.441 1176,739.5C 1166.05,746.471 1156.39,746.137 1147,738.5C 1140.12,724.321 1142.95,712.488 1155.5,703C 1158.57,701.704 1161.57,700.538 1164.5,699.5 Z M 1165.5,708.5 C 1179.32,709.133 1183.16,715.8 1177,728.5C 1170.18,736.757 1162.85,737.423 1155,730.5C 1151.78,719.935 1155.28,712.602 1165.5,708.5 Z"/></g>
<g><path style="opacity:0.955" fill="#706f6e" d="M 845.5,700.5 C 849.673,699.956 853.506,700.623 857,702.5C 858.088,712.201 859.421,721.868 861,731.5C 866.106,721.622 870.939,711.622 875.5,701.5C 877,701.167 878.5,700.833 880,700.5C 881.981,700.629 883.647,701.296 885,702.5C 886.24,712.18 887.573,721.847 889,731.5C 894.106,721.622 898.939,711.622 903.5,701.5C 907.107,700.511 910.774,700.177 914.5,700.5C 908.106,715.12 900.773,729.287 892.5,743C 888.848,743.499 885.182,743.665 881.5,743.5C 880.708,735.083 879.375,726.749 877.5,718.5C 873.078,726.343 868.912,734.343 865,742.5C 861.214,743.795 857.38,743.795 853.5,742.5C 850.704,728.519 848.037,714.519 845.5,700.5 Z"/></g>
<g><path style="opacity:0.947" fill="#706f6e" d="M 974.5,700.5 C 977.898,700.18 981.232,700.513 984.5,701.5C 981.787,715.113 979.287,728.779 977,742.5C 973.943,743.451 970.777,743.784 967.5,743.5C 969.446,729.103 971.779,714.769 974.5,700.5 Z"/></g>
<g><path style="opacity:0.956" fill="#706f6e" d="M 1040.5,700.5 C 1043.83,700.5 1047.17,700.5 1050.5,700.5C 1048.89,710.148 1047.72,719.815 1047,729.5C 1048.8,733.235 1051.8,734.902 1056,734.5C 1061.94,734.187 1065.94,731.187 1068,725.5C 1070.15,717.281 1071.65,708.948 1072.5,700.5C 1075.83,700.5 1079.17,700.5 1082.5,700.5C 1080.06,714.816 1077.73,729.149 1075.5,743.5C 1072.5,743.5 1069.5,743.5 1066.5,743.5C 1066.66,741.801 1066.49,740.134 1066,738.5C 1058.36,744.114 1050.2,744.947 1041.5,741C 1038.02,737.424 1036.35,733.091 1036.5,728C 1038.03,718.853 1039.36,709.686 1040.5,700.5 Z"/></g>
</svg>
