<?xml version="1.0" encoding="UTF-8"?>
<!DOCTYPE svg PUBLIC "-//W3C//DTD SVG 1.1//EN" "http://www.w3.org/Graphics/SVG/1.1/DTD/svg11.dtd">
<svg xmlns="http://www.w3.org/2000/svg" version="1.1" width="452px" height="452px" style="shape-rendering:geometricPrecision; text-rendering:geometricPrecision; image-rendering:optimizeQuality; fill-rule:evenodd; clip-rule:evenodd" xmlns:xlink="http://www.w3.org/1999/xlink">
<g><path style="opacity:0.973" fill="#1564c0" d="M 99.5,46.5 C 183.501,46.3333 267.501,46.5 351.5,47C 367.308,50.651 377.808,60.151 383,75.5C 384.615,82.7811 385.782,90.1144 386.5,97.5C 384.364,111.173 376.697,115.673 363.5,111C 361.291,109.127 359.458,106.96 358,104.5C 356.869,97.8599 355.869,91.1933 355,84.5C 353.373,79.9378 350.206,77.1045 345.5,76C 265.5,75.3333 185.5,75.3333 105.5,76C 100.794,77.1045 97.6271,79.9378 96,84.5C 95.3208,91.9851 93.9874,99.3184 92,106.5C 87.4703,112.171 81.637,114.004 74.5,112C 68.3317,109.657 64.9984,105.157 64.5,98.5C 63.4428,78.7897 70.7761,63.2897 86.5,52C 90.7415,49.6512 95.0748,47.8179 99.5,46.5 Z"/></g>
<g><path style="opacity:0.971" fill="#414141" d="M 78.5,140.5 C 88.7884,138.65 97.2884,141.65 104,149.5C 118.219,181.937 131.885,214.604 145,247.5C 158.992,214.867 172.992,182.201 187,149.5C 194.746,140.612 204.246,138.112 215.5,142C 224.988,146.471 229.821,153.971 230,164.5C 234.594,205.508 239.26,246.508 244,287.5C 246.974,297.457 244.141,304.957 235.5,310C 225.879,312.108 219.379,308.608 216,299.5C 211.52,261.851 207.187,224.184 203,186.5C 188.667,221.167 174.333,255.833 160,290.5C 153.642,302.396 144.975,304.396 134,296.5C 118.276,259.996 102.943,223.329 88,186.5C 83.6667,224.167 79.3333,261.833 75,299.5C 71.621,308.608 65.121,312.108 55.5,310C 51.3333,308.5 48.5,305.667 47,301.5C 46.3333,296.5 46.3333,291.5 47,286.5C 51.854,243.481 56.854,200.481 62,157.5C 65.0191,149.316 70.5191,143.649 78.5,140.5 Z"/></g>
<g><path style="opacity:0.972" fill="#414141" d="M 283.5,142.5 C 306.878,142.052 330.211,142.552 353.5,144C 382.209,154.408 393.043,174.575 386,204.5C 384.973,207.754 383.473,210.754 381.5,213.5C 405.237,232.452 410.737,255.785 398,283.5C 389.426,297.545 376.926,305.712 360.5,308C 334.833,308.667 309.167,308.667 283.5,308C 279.532,307.036 276.365,304.869 274,301.5C 272.343,251.583 272.01,201.583 273,151.5C 275.489,147.168 278.989,144.168 283.5,142.5 Z M 301.5,171.5 C 315.504,171.333 329.504,171.5 343.5,172C 357.25,175.577 361.75,184.077 357,197.5C 353.91,201.925 349.743,204.758 344.5,206C 339.167,206.333 333.833,206.667 328.5,207C 320.695,210.781 317.862,216.947 320,225.5C 321.902,230.4 325.402,233.567 330.5,235C 339.833,235.333 349.167,235.667 358.5,236C 374.48,242.468 378.98,253.634 372,269.5C 369.011,273.491 365.178,276.324 360.5,278C 340.88,279.438 321.213,279.938 301.5,279.5C 301.5,243.5 301.5,207.5 301.5,171.5 Z"/></g>
<g><path style="opacity:0.974" fill="#1565c0" d="M 48.5,338.5 C 64.3104,337.819 70.6437,345.319 67.5,361C 67.7272,367.893 71.0605,372.559 77.5,375C 176.167,375.667 274.833,375.667 373.5,375C 379.939,372.559 383.273,367.893 383.5,361C 380.854,352.61 382.854,345.61 389.5,340C 402.043,335.386 409.543,339.553 412,352.5C 414.804,371.443 408.637,386.61 393.5,398C 388.828,400.837 383.828,402.837 378.5,404C 276.5,404.667 174.5,404.667 72.5,404C 53.7777,399.278 42.611,387.445 39,368.5C 37.7258,359.845 38.7258,351.511 42,343.5C 43.8049,341.174 45.9716,339.508 48.5,338.5 Z"/></g>
</svg>
