<svg id="svg" version="1.1" xmlns="http://www.w3.org/2000/svg" xmlns:xlink="http://www.w3.org/1999/xlink" width="400" height="211.38392857142858" viewBox="0, 0, 400,211.38392857142858"><g id="svgg"><path id="path0" d="M312.232 38.798 C 311.346 39.279,311.205 40.082,311.205 44.630 C 311.205 50.671,310.819 50.317,317.415 50.317 C 323.610 50.317,323.044 50.909,323.044 44.427 L 323.044 39.516 322.525 38.997 L 322.007 38.478 317.399 38.486 C 313.806 38.493,312.667 38.562,312.232 38.798 M323.890 50.265 C 322.699 50.860,322.637 51.287,322.646 58.803 C 322.657 67.824,321.795 67.019,331.444 67.019 L 338.299 67.019 338.917 66.401 L 339.535 65.783 339.535 58.502 L 339.535 51.220 338.981 50.666 C 338.676 50.362,338.350 50.160,338.255 50.218 C 338.161 50.276,338.024 50.227,337.951 50.109 C 337.692 49.689,324.757 49.832,323.890 50.265 M302.294 66.835 C 301.226 67.226,300.538 68.572,300.453 70.436 L 300.378 72.093 299.185 72.098 C 296.899 72.109,293.843 72.507,292.921 72.915 C 292.414 73.140,291.958 73.283,291.908 73.233 C 291.858 73.183,291.483 73.453,291.074 73.833 C 289.182 75.595,289.231 74.881,289.212 101.340 C 289.204 113.859,289.126 124.101,289.040 124.101 C 288.867 124.101,288.278 125.945,288.310 126.388 C 288.321 126.541,288.279 126.616,288.217 126.554 C 288.094 126.431,287.321 127.336,287.305 127.623 C 287.293 127.828,285.099 129.662,284.716 129.787 C 284.576 129.833,284.223 129.968,283.932 130.087 C 283.642 130.206,283.356 130.313,283.298 130.326 C 283.240 130.338,282.764 130.460,282.241 130.596 C 280.432 131.066,280.020 131.145,279.639 131.096 C 279.428 131.069,279.143 131.140,279.004 131.252 C 278.695 131.504,272.921 131.522,272.609 131.272 C 272.485 131.173,271.805 131.066,271.096 131.033 C 270.388 131.000,269.852 130.901,269.906 130.814 C 269.960 130.727,269.882 130.655,269.733 130.655 C 267.474 130.655,263.946 127.952,262.972 125.476 L 262.474 124.207 262.418 102.326 C 262.357 77.960,262.296 76.586,261.185 74.686 C 260.660 73.786,258.626 72.532,258.160 72.820 C 258.052 72.887,257.931 72.843,257.891 72.723 C 257.508 71.574,244.365 72.099,242.248 73.348 C 241.101 74.024,239.613 76.752,240.116 77.254 C 240.184 77.323,240.133 77.378,240.003 77.378 C 239.863 77.378,239.799 77.637,239.846 78.010 C 239.890 78.357,239.838 78.696,239.731 78.762 C 239.455 78.933,239.468 122.344,239.744 122.515 C 239.864 122.589,239.917 123.272,239.868 124.113 C 239.821 124.921,239.857 125.581,239.949 125.581 C 240.040 125.581,240.179 126.176,240.258 126.903 C 240.384 128.067,241.050 131.042,241.382 131.924 C 241.447 132.098,241.534 132.407,241.573 132.609 C 241.694 133.221,243.274 136.608,243.638 137.032 C 244.281 137.783,245.455 139.531,245.455 139.738 C 245.455 139.852,245.740 140.156,246.089 140.414 C 246.438 140.672,246.723 141.003,246.723 141.150 C 246.723 141.298,246.969 141.589,247.269 141.798 C 247.569 142.007,248.530 142.807,249.404 143.577 C 250.935 144.924,255.115 147.357,255.899 147.357 C 256.085 147.357,256.237 147.444,256.237 147.549 C 256.237 147.654,256.451 147.694,256.712 147.636 C 257.095 147.553,257.126 147.577,256.871 147.759 C 256.553 147.986,256.808 148.079,257.662 148.049 C 257.806 148.044,257.861 148.140,257.785 148.263 C 257.700 148.400,257.777 148.436,257.985 148.356 C 258.171 148.285,258.357 148.328,258.399 148.452 C 258.440 148.576,258.817 148.689,259.237 148.704 C 259.658 148.719,259.966 148.789,259.923 148.858 C 259.680 149.253,266.292 150.424,270.507 150.733 C 277.534 151.248,286.598 150.545,291.015 149.143 C 291.596 148.958,292.283 148.765,292.542 148.713 C 293.303 148.561,294.029 148.246,294.180 148.001 C 294.258 147.876,294.410 147.829,294.520 147.896 C 294.629 147.964,294.968 147.823,295.274 147.582 C 295.579 147.342,295.964 147.146,296.129 147.146 C 296.408 147.146,297.584 146.544,299.736 145.300 C 300.230 145.014,300.634 144.688,300.634 144.576 C 300.634 144.464,300.730 144.432,300.847 144.504 C 300.964 144.576,301.653 144.066,302.380 143.370 C 303.106 142.675,304.199 141.657,304.810 141.108 C 305.420 140.560,305.920 140.033,305.920 139.937 C 305.920 139.841,306.475 138.968,307.154 137.998 C 308.417 136.193,309.572 133.955,309.354 133.737 C 309.287 133.670,309.330 133.615,309.450 133.615 C 309.690 133.615,310.607 130.555,311.140 127.975 C 311.436 126.546,311.493 123.825,311.565 107.981 L 311.647 89.641 316.258 89.641 C 323.484 89.641,323.044 90.382,323.044 78.204 C 323.044 69.256,323.041 69.194,322.566 68.294 C 322.302 67.797,322.008 67.407,321.912 67.430 C 321.816 67.452,321.618 67.306,321.472 67.107 C 321.325 66.907,321.096 66.811,320.962 66.893 C 320.828 66.976,320.719 66.943,320.719 66.820 C 320.719 66.527,303.095 66.541,302.294 66.835 M80.406 72.325 C 78.855 72.505,76.444 73.212,75.930 73.636 C 75.773 73.765,75.507 73.892,75.338 73.916 C 74.507 74.038,71.882 76.980,71.882 77.790 C 71.882 77.912,71.793 78.013,71.684 78.013 C 71.507 78.013,71.274 78.516,71.159 79.149 C 71.135 79.280,71.054 79.577,70.978 79.810 C 70.237 82.092,70.181 84.832,70.239 116.204 C 70.304 151.510,70.132 148.396,72.073 149.408 C 73.381 150.090,78.014 150.124,79.472 149.463 C 81.427 148.576,81.430 148.551,81.353 134.038 L 81.290 122.093 92.495 122.093 C 105.933 122.093,107.721 121.994,111.722 121.024 C 113.747 120.533,117.405 118.963,118.288 118.205 C 118.520 118.006,119.061 117.663,119.490 117.443 C 119.919 117.223,120.223 116.966,120.165 116.872 C 120.107 116.779,120.193 116.702,120.356 116.702 C 120.520 116.702,120.825 116.512,121.036 116.279 C 121.246 116.047,121.369 115.856,121.308 115.856 C 121.247 115.856,121.589 115.441,122.068 114.934 C 122.547 114.427,123.034 113.880,123.150 113.719 C 123.266 113.557,123.604 113.092,123.900 112.685 C 125.014 111.153,126.083 108.310,126.761 105.074 C 127.526 101.421,127.570 92.060,126.834 89.624 C 126.714 89.226,126.575 88.615,126.525 88.266 C 126.337 86.934,126.144 86.301,125.321 84.302 C 124.854 83.169,124.383 82.241,124.274 82.241 C 124.165 82.241,124.130 82.154,124.196 82.048 C 124.262 81.941,124.244 81.822,124.156 81.783 C 124.068 81.744,123.571 81.142,123.052 80.444 C 121.167 77.909,116.791 74.409,115.909 74.732 C 115.764 74.785,115.645 74.744,115.645 74.641 C 115.645 74.024,109.603 72.638,105.507 72.317 C 102.206 72.057,82.648 72.063,80.406 72.325 M303.485 72.522 C 303.399 72.661,303.754 72.731,304.476 72.716 C 310.039 72.603,311.357 74.813,311.254 84.082 L 311.198 89.200 307.224 89.262 C 304.586 89.303,303.090 89.244,302.774 89.086 C 302.028 88.713,301.057 87.696,301.057 87.288 C 301.057 87.084,300.986 86.873,300.899 86.819 C 300.811 86.765,300.766 83.530,300.798 79.629 L 300.857 72.536 302.173 72.461 C 302.896 72.420,303.518 72.368,303.554 72.345 C 303.590 72.323,303.559 72.402,303.485 72.522 M107.556 83.040 C 108.631 83.279,109.664 83.629,109.851 83.817 C 110.061 84.027,110.367 84.109,110.646 84.031 C 111.006 83.931,111.034 83.950,110.782 84.127 C 110.469 84.346,110.699 84.468,111.258 84.380 C 111.345 84.366,111.416 84.444,111.416 84.552 C 111.416 84.661,111.583 84.802,111.786 84.867 C 112.529 85.103,113.936 86.731,114.640 88.168 C 115.037 88.979,115.441 89.570,115.537 89.483 C 115.633 89.395,115.650 89.497,115.574 89.709 C 115.497 89.921,115.535 90.280,115.656 90.508 C 115.778 90.736,115.921 91.181,115.974 91.497 C 116.027 91.813,116.160 92.548,116.268 93.129 C 116.515 94.452,116.527 100.205,116.285 101.480 C 115.969 103.152,115.841 103.650,115.627 104.050 C 115.512 104.264,115.462 104.440,115.516 104.440 C 116.441 104.440,112.793 109.198,111.469 109.718 C 111.091 109.866,110.782 110.071,110.782 110.174 C 110.782 110.276,110.711 110.340,110.624 110.316 C 110.536 110.292,109.989 110.430,109.408 110.622 C 108.827 110.815,107.970 111.038,107.505 111.117 C 107.040 111.196,106.564 111.330,106.448 111.416 C 106.332 111.501,105.975 111.557,105.655 111.540 C 105.336 111.522,105.074 111.583,105.074 111.674 C 105.074 111.765,99.744 111.839,93.229 111.839 L 81.383 111.839 81.442 98.467 C 81.512 82.668,81.395 83.346,84.169 82.655 C 85.814 82.245,105.445 82.568,107.556 83.040 M141.438 89.519 C 133.599 90.413,132.612 91.112,132.574 95.791 C 132.555 98.212,133.042 99.436,134.264 100.043 C 134.988 100.402,136.474 100.564,136.293 100.264 C 136.240 100.177,136.681 100.081,137.272 100.052 C 137.864 100.022,138.401 99.914,138.466 99.810 C 139.229 98.592,157.547 98.542,158.337 99.756 C 158.403 99.857,158.624 99.914,158.828 99.883 C 159.032 99.851,159.151 99.903,159.092 99.998 C 159.034 100.093,159.265 100.268,159.607 100.387 C 160.061 100.545,160.256 100.537,160.330 100.355 C 160.386 100.218,160.439 100.272,160.448 100.476 C 160.458 100.679,160.559 100.846,160.674 100.846 C 160.869 100.846,161.462 101.275,162.021 101.820 C 162.428 102.217,163.332 103.271,163.362 103.383 C 163.378 103.441,163.461 103.774,163.547 104.123 C 163.633 104.471,163.855 104.990,164.040 105.276 C 164.312 105.696,164.391 106.611,164.451 110.086 L 164.525 114.376 157.897 114.378 C 154.251 114.378,150.412 114.423,149.366 114.476 C 146.138 114.640,143.676 114.828,143.522 114.923 C 143.442 114.973,142.870 115.064,142.251 115.125 C 141.632 115.187,141.042 115.322,140.939 115.425 C 140.836 115.528,140.621 115.561,140.460 115.500 C 140.300 115.438,140.169 115.493,140.169 115.622 C 140.169 115.751,140.040 115.856,139.881 115.856 C 139.147 115.856,134.672 117.480,134.672 117.747 C 134.672 117.831,134.546 117.900,134.392 117.900 C 133.992 117.900,132.210 119.161,132.062 119.549 C 131.993 119.727,131.800 119.873,131.632 119.873 C 130.558 119.873,127.568 125.320,127.047 128.225 C 126.384 131.924,126.837 137.699,127.930 139.466 C 128.169 139.853,128.304 140.169,128.230 140.169 C 127.996 140.169,129.564 142.978,130.413 144.080 C 130.861 144.662,131.344 145.111,131.486 145.079 C 131.628 145.047,131.694 145.103,131.632 145.202 C 131.531 145.366,135.516 148.414,135.832 148.414 C 135.906 148.414,135.899 148.295,135.816 148.150 C 135.734 148.005,135.875 148.100,136.129 148.362 C 136.384 148.623,136.718 148.837,136.874 148.837 C 137.029 148.837,137.590 149.029,138.122 149.265 C 142.790 151.330,156.462 151.453,162.554 149.484 C 163.296 149.245,164.009 149.049,164.140 149.048 C 164.515 149.048,167.019 147.816,167.021 147.631 C 167.023 147.538,167.427 147.273,167.920 147.041 C 168.737 146.657,170.809 144.745,172.069 143.213 C 172.671 142.481,173.945 139.857,174.060 139.112 C 174.105 138.821,174.202 138.441,174.274 138.266 C 174.443 137.861,174.604 137.028,174.846 135.307 C 175.114 133.399,175.100 106.596,174.830 104.863 C 174.713 104.107,174.575 103.213,174.524 102.876 C 174.397 102.042,173.986 100.784,173.759 100.539 C 173.657 100.429,173.573 100.209,173.573 100.050 C 173.573 99.566,172.466 97.469,172.273 97.588 C 172.174 97.649,172.093 97.602,172.093 97.483 C 172.093 97.364,171.808 96.941,171.459 96.544 C 171.110 96.147,170.825 95.738,170.825 95.637 C 170.825 95.535,170.478 95.167,170.055 94.819 C 169.632 94.471,169.168 94.072,169.023 93.932 C 168.879 93.792,168.702 93.737,168.630 93.809 C 168.558 93.880,168.499 93.844,168.499 93.727 C 168.499 93.610,167.762 93.143,166.860 92.688 C 165.959 92.233,165.171 91.792,165.108 91.708 C 164.926 91.467,163.265 90.928,163.127 91.066 C 163.058 91.135,163.002 91.090,163.002 90.967 C 163.002 90.728,161.279 90.265,158.351 89.716 C 155.893 89.256,144.873 89.127,141.438 89.519 M180.874 90.897 C 180.804 91.010,180.624 91.055,180.474 90.997 C 179.982 90.808,179.079 91.307,178.632 92.014 C 177.995 93.020,178.492 98.138,179.167 97.523 C 179.267 97.432,179.277 97.482,179.189 97.634 C 179.030 97.910,179.624 100.542,179.941 100.962 C 180.131 101.214,181.602 106.717,181.761 107.770 C 181.818 108.147,181.939 108.457,182.029 108.457 C 182.120 108.457,182.183 108.576,182.169 108.721 C 182.118 109.267,183.348 113.953,183.543 113.953 C 183.654 113.953,183.685 114.053,183.609 114.174 C 183.534 114.296,183.587 114.532,183.726 114.700 C 183.866 114.868,183.927 115.143,183.862 115.311 C 183.798 115.480,183.817 115.647,183.906 115.684 C 183.995 115.721,184.577 117.748,185.200 120.190 C 185.823 122.632,186.404 124.679,186.492 124.739 C 186.579 124.799,186.636 124.989,186.618 125.162 C 186.571 125.616,187.146 127.907,187.307 127.907 C 187.381 127.907,187.453 128.261,187.465 128.693 C 187.477 129.126,187.592 129.514,187.720 129.557 C 187.847 129.600,187.896 129.726,187.827 129.837 C 187.758 129.948,187.800 130.158,187.920 130.303 C 188.040 130.448,188.231 130.943,188.344 131.404 C 189.591 136.487,190.440 139.507,190.725 139.871 C 190.824 139.998,190.845 140.163,190.771 140.237 C 190.592 140.416,191.297 142.259,191.788 142.893 C 192.002 143.171,192.178 143.553,192.178 143.743 C 192.178 144.256,194.116 147.149,194.359 146.998 C 194.474 146.927,194.512 146.961,194.442 147.073 C 194.273 147.347,195.340 148.544,195.905 148.714 C 196.153 148.789,196.569 149.035,196.830 149.261 C 198.431 150.650,203.652 151.337,207.138 150.617 C 207.849 150.470,207.995 150.803,207.540 151.533 C 207.449 151.678,207.428 151.884,207.494 151.990 C 207.560 152.097,207.538 152.216,207.447 152.255 C 207.355 152.294,206.912 153.261,206.463 154.403 C 206.013 155.546,205.425 156.806,205.155 157.204 C 203.629 159.454,203.192 159.926,201.691 160.950 C 201.168 161.308,200.692 161.654,200.634 161.720 C 200.576 161.785,200.433 161.859,200.317 161.882 C 200.201 161.906,199.561 162.120,198.895 162.358 C 198.230 162.596,197.540 162.791,197.363 162.791 C 197.185 162.791,197.040 162.873,197.040 162.973 C 197.040 163.073,196.813 163.112,196.536 163.059 C 196.259 163.006,195.973 163.058,195.901 163.175 C 195.829 163.292,195.479 163.342,195.123 163.286 C 194.767 163.230,194.344 163.294,194.182 163.428 C 194.020 163.563,193.806 163.622,193.706 163.561 C 193.398 163.370,191.249 164.089,190.839 164.519 C 189.793 165.615,190.271 170.454,191.581 172.033 C 192.477 173.112,195.464 173.473,198.745 172.898 C 199.377 172.787,200.223 172.651,200.624 172.596 C 201.026 172.541,201.463 172.407,201.595 172.297 C 201.728 172.187,201.884 172.144,201.942 172.203 C 202.109 172.370,203.764 171.736,205.497 170.841 C 208.389 169.348,208.811 169.094,209.535 168.406 C 210.825 167.181,212.790 165.069,212.817 164.879 C 212.832 164.777,212.855 164.598,212.870 164.482 C 212.885 164.366,212.988 164.294,213.100 164.323 C 213.449 164.414,216.369 158.879,216.155 158.533 C 216.090 158.427,216.162 158.367,216.316 158.399 C 216.485 158.434,216.590 158.271,216.581 157.991 C 216.572 157.736,216.643 157.575,216.739 157.634 C 216.835 157.693,216.925 157.641,216.940 157.518 C 216.988 157.107,217.025 156.978,217.153 156.765 C 217.222 156.649,217.485 155.888,217.737 155.074 C 217.988 154.260,218.292 153.286,218.412 152.910 C 218.681 152.066,219.562 148.382,219.752 147.304 C 219.829 146.868,219.993 146.512,220.117 146.512 C 220.240 146.512,220.291 146.381,220.229 146.220 C 220.168 146.060,220.194 145.846,220.288 145.745 C 220.381 145.643,220.808 143.990,221.236 142.072 C 221.665 140.153,222.148 138.108,222.311 137.526 C 222.474 136.945,222.912 135.137,223.284 133.510 C 223.656 131.882,224.028 130.502,224.109 130.444 C 224.191 130.386,224.462 129.434,224.712 128.330 C 224.962 127.225,225.209 126.131,225.263 125.899 C 226.096 122.256,227.813 115.302,227.899 115.222 C 228.043 115.088,227.874 115.764,229.989 106.871 C 230.984 102.685,231.851 99.212,231.914 99.154 C 231.978 99.096,232.065 98.906,232.108 98.732 C 232.151 98.557,232.318 97.939,232.480 97.357 C 233.851 92.422,232.862 90.783,228.541 90.830 C 225.260 90.865,224.101 91.061,224.101 91.581 C 224.101 91.691,224.020 91.729,223.921 91.668 C 223.239 91.247,222.164 93.736,221.240 97.875 C 220.836 99.683,220.404 101.543,220.279 102.008 C 220.155 102.474,220.054 103.021,220.056 103.224 C 220.057 103.428,219.975 103.594,219.872 103.594 C 219.770 103.594,219.723 103.784,219.767 104.017 C 219.812 104.249,219.772 104.440,219.679 104.440 C 219.451 104.440,218.995 106.754,219.168 107.033 C 219.243 107.154,219.209 107.195,219.093 107.123 C 218.967 107.045,218.766 107.612,218.599 108.517 C 218.443 109.356,218.288 110.137,218.254 110.254 C 218.219 110.370,218.095 110.893,217.977 111.416 C 217.859 111.940,217.382 113.938,216.916 115.856 C 216.450 117.775,216.018 119.582,215.957 119.873 C 215.895 120.164,215.743 120.658,215.619 120.970 C 215.494 121.283,215.455 121.640,215.531 121.763 C 215.607 121.886,215.558 121.987,215.421 121.987 C 215.277 121.987,215.219 122.164,215.283 122.410 C 215.344 122.643,215.309 122.833,215.206 122.833 C 215.103 122.833,215.052 123.116,215.092 123.462 C 215.132 123.808,215.083 124.041,214.982 123.978 C 214.882 123.916,214.799 123.942,214.798 124.036 C 214.797 124.259,213.960 128.096,213.125 131.712 C 212.763 133.282,212.417 134.841,212.356 135.177 C 212.296 135.513,212.158 135.952,212.050 136.154 C 211.942 136.355,211.914 136.580,211.988 136.653 C 212.061 136.726,212.018 136.786,211.891 136.786 C 211.679 136.786,211.285 137.959,211.376 138.319 C 211.398 138.406,211.333 138.478,211.231 138.478 C 211.129 138.478,210.927 138.764,210.782 139.113 C 209.675 141.785,204.465 142.325,202.252 139.996 C 201.921 139.648,201.659 139.307,201.671 139.238 C 201.738 138.827,201.662 138.683,201.447 138.815 C 201.308 138.901,201.260 138.874,201.336 138.751 C 201.409 138.632,201.262 138.118,201.010 137.608 C 200.757 137.098,200.571 136.603,200.596 136.509 C 200.659 136.277,200.180 134.624,199.967 134.339 C 199.796 134.109,198.535 129.367,197.988 126.899 C 197.827 126.171,197.624 125.459,197.536 125.317 C 197.449 125.176,197.365 124.916,197.351 124.739 C 197.310 124.241,196.788 122.118,196.648 121.882 C 196.579 121.765,196.490 121.433,196.450 121.144 C 196.410 120.855,196.251 120.332,196.096 119.981 C 195.941 119.631,195.756 119.107,195.684 118.816 C 195.613 118.525,194.977 116.052,194.269 113.319 C 193.562 110.587,192.790 107.590,192.554 106.660 C 192.318 105.729,192.058 104.921,191.976 104.863 C 191.894 104.804,191.474 103.377,191.043 101.691 C 190.612 100.005,190.064 97.912,189.825 97.040 C 189.587 96.168,189.359 95.294,189.319 95.098 C 189.280 94.902,189.129 94.522,188.985 94.253 C 188.841 93.983,188.740 93.739,188.759 93.710 C 189.123 93.172,186.943 91.211,185.689 90.948 C 184.361 90.670,181.036 90.635,180.874 90.897 M164.436 128.805 L 164.349 134.355 163.664 135.835 C 162.808 137.685,160.935 139.540,159.307 140.149 C 154.080 142.105,143.602 141.761,140.969 139.548 C 139.252 138.105,138.839 137.650,138.391 136.713 C 136.951 133.700,137.319 129.215,139.209 126.738 C 139.889 125.845,142.869 124.364,144.609 124.053 C 145.365 123.918,146.032 123.738,146.092 123.653 C 146.284 123.379,147.733 123.328,156.204 123.291 L 164.523 123.256 164.436 128.805 " stroke="none" fill="#a4c414" fill-rule="evenodd"></path><path id="path1" d="M239.721 123.091 C 239.819 123.678,239.848 123.707,239.915 123.284 C 239.958 123.009,239.906 122.697,239.800 122.591 C 239.683 122.473,239.652 122.670,239.721 123.091 M274.683 131.445 C 275.235 131.489,276.139 131.489,276.691 131.445 C 277.244 131.401,276.792 131.366,275.687 131.366 C 274.582 131.366,274.131 131.401,274.683 131.445 " stroke="none" fill="#a8c414" fill-rule="evenodd"></path><path id="path2" d="M239.721 123.091 C 239.819 123.678,239.848 123.707,239.915 123.284 C 239.958 123.009,239.906 122.697,239.800 122.591 C 239.683 122.473,239.652 122.670,239.721 123.091 M274.683 131.445 C 275.235 131.489,276.139 131.489,276.691 131.445 C 277.244 131.401,276.792 131.366,275.687 131.366 C 274.582 131.366,274.131 131.401,274.683 131.445 " stroke="none" fill="#a8c414" fill-rule="evenodd"></path><path id="path3" d="M239.721 123.091 C 239.819 123.678,239.848 123.707,239.915 123.284 C 239.958 123.009,239.906 122.697,239.800 122.591 C 239.683 122.473,239.652 122.670,239.721 123.091 M274.683 131.445 C 275.235 131.489,276.139 131.489,276.691 131.445 C 277.244 131.401,276.792 131.366,275.687 131.366 C 274.582 131.366,274.131 131.401,274.683 131.445 " stroke="none" fill="#a8c414" fill-rule="evenodd"></path><path id="path4" d="M239.721 123.091 C 239.819 123.678,239.848 123.707,239.915 123.284 C 239.958 123.009,239.906 122.697,239.800 122.591 C 239.683 122.473,239.652 122.670,239.721 123.091 M274.683 131.445 C 275.235 131.489,276.139 131.489,276.691 131.445 C 277.244 131.401,276.792 131.366,275.687 131.366 C 274.582 131.366,274.131 131.401,274.683 131.445 " stroke="none" fill="#a8c414" fill-rule="evenodd"></path></g></svg>