<?xml version="1.0" encoding="UTF-8"?>
<!DOCTYPE svg PUBLIC "-//W3C//DTD SVG 1.1//EN" "http://www.w3.org/Graphics/SVG/1.1/DTD/svg11.dtd">
<svg xmlns="http://www.w3.org/2000/svg" version="1.1" width="1400px" height="394px" style="shape-rendering:geometricPrecision; text-rendering:geometricPrecision; image-rendering:optimizeQuality; fill-rule:evenodd; clip-rule:evenodd" xmlns:xlink="http://www.w3.org/1999/xlink">
<g><path style="opacity:0.998" fill="#fecb00" d="M -0.5,-0.5 C 466.167,-0.5 932.833,-0.5 1399.5,-0.5C 1399.5,130.833 1399.5,262.167 1399.5,393.5C 932.833,393.5 466.167,393.5 -0.5,393.5C -0.5,262.167 -0.5,130.833 -0.5,-0.5 Z"/></g>
<g><path style="opacity:1" fill="#ff0b00" d="M 1222.5,158.5 C 1243.02,158.837 1263.35,159.837 1283.5,161.5C 1278.24,186.778 1273.24,212.111 1268.5,237.5C 1247.5,237.5 1226.5,237.5 1205.5,237.5C 1201.73,256.472 1198.06,275.472 1194.5,294.5C 1171.17,294.5 1147.83,294.5 1124.5,294.5C 1125.83,287.5 1127.17,280.5 1128.5,273.5C 1144.18,273.833 1159.85,273.499 1175.5,272.5C 1179.88,253.92 1183.88,235.253 1187.5,216.5C 1208.5,216.5 1229.5,216.5 1250.5,216.5C 1252.68,204.129 1255.01,191.796 1257.5,179.5C 1236.82,179.833 1216.16,179.5 1195.5,178.5C 1200.34,158.615 1204.68,138.615 1208.5,118.5C 1195.17,118.5 1181.83,118.5 1168.5,118.5C 1164.06,138.811 1159.73,159.144 1155.5,179.5C 1148.17,179.5 1140.83,179.5 1133.5,179.5C 1138.91,152.114 1144.58,124.781 1150.5,97.5C 1178.83,97.5 1207.17,97.5 1235.5,97.5C 1231.27,117.861 1226.94,138.194 1222.5,158.5 Z"/></g>
<g><path style="opacity:1" fill="#030200" d="M 615.5,118.5 C 632.602,118.349 638.102,126.349 632,142.5C 626.636,148.061 620.136,149.895 612.5,148C 604.25,142.151 602.417,134.651 607,125.5C 609.441,122.546 612.275,120.213 615.5,118.5 Z"/></g>
<g><path style="opacity:1" fill="#020100" d="M 177.5,236.5 C 176.833,236.5 176.5,236.833 176.5,237.5C 175.285,242.787 174.285,248.12 173.5,253.5C 164.5,253.5 155.5,253.5 146.5,253.5C 146.956,248.135 147.623,242.801 148.5,237.5C 156.943,200.712 164.943,163.712 172.5,126.5C 188.17,126.333 203.837,126.5 219.5,127C 240.697,130.688 251.697,143.188 252.5,164.5C 251.781,191.118 238.448,207.285 212.5,213C 202.197,214.038 191.864,214.871 181.5,215.5C 179.413,222.355 178.08,229.355 177.5,236.5 Z"/></g>
<g><path style="opacity:1" fill="#010100" d="M 528.5,235.5 C 527.662,235.842 527.328,236.508 527.5,237.5C 526.286,242.784 525.286,248.118 524.5,253.5C 515.143,253.832 505.81,253.498 496.5,252.5C 497.823,247.563 498.823,242.563 499.5,237.5C 499.5,237.167 499.5,236.833 499.5,236.5C 507.734,200.343 515.734,164.01 523.5,127.5C 547.16,126.334 570.826,126.167 594.5,127C 592.127,134.662 590.46,142.495 589.5,150.5C 574.833,150.5 560.167,150.5 545.5,150.5C 543.573,160.465 541.907,170.465 540.5,180.5C 553.85,180.167 567.183,180.501 580.5,181.5C 578.238,189.001 576.905,196.667 576.5,204.5C 562.5,204.5 548.5,204.5 534.5,204.5C 532.657,214.87 530.657,225.203 528.5,235.5 Z"/></g>
<g><path style="opacity:1" fill="#030201" d="M 485.5,235.5 C 484.662,235.842 484.328,236.508 484.5,237.5C 483.695,242.696 482.361,247.696 480.5,252.5C 467.099,257.302 454.099,256.469 441.5,250C 437.118,246.701 434.118,242.534 432.5,237.5C 432.768,235.901 432.434,234.568 431.5,233.5C 431.335,229.818 431.501,226.152 432,222.5C 438.622,194.958 444.456,167.291 449.5,139.5C 459.212,137.684 468.879,135.684 478.5,133.5C 476.402,142.087 474.736,150.754 473.5,159.5C 482.833,159.5 492.167,159.5 501.5,159.5C 500.295,166.193 498.961,172.859 497.5,179.5C 487.833,180.167 478.167,180.833 468.5,181.5C 465.224,193.709 462.391,206.042 460,218.5C 459.333,222.167 459.333,225.833 460,229.5C 461.167,230.667 462.333,231.833 463.5,233C 470.852,233.582 478.185,233.415 485.5,232.5C 485.5,233.5 485.5,234.5 485.5,235.5 Z"/></g>
<g><path style="opacity:1" fill="#ac8a00" d="M 212.5,150.5 C 206.409,150.211 200.409,150.545 194.5,151.5C 197.087,150.184 200.087,149.517 203.5,149.5C 206.686,149.502 209.686,149.835 212.5,150.5 Z"/></g>
<g><path style="opacity:1" fill="#fac800" d="M 212.5,150.5 C 218.234,151.067 222.067,154.067 224,159.5C 225.263,167.168 224.263,174.501 221,181.5C 217.361,185.734 212.861,188.568 207.5,190C 200.574,191.339 193.574,191.839 186.5,191.5C 188.963,178.114 191.63,164.781 194.5,151.5C 200.409,150.545 206.409,150.211 212.5,150.5 Z"/></g>
<g><path style="opacity:1" fill="#030200" d="M 334.5,237.5 C 319.568,253.643 301.235,259.476 279.5,255C 269.565,252.045 261.898,246.211 256.5,237.5C 256.672,236.508 256.338,235.842 255.5,235.5C 246.351,204.303 255.351,179.803 282.5,162C 299.006,154.38 315.339,154.714 331.5,163C 342.736,171.472 348.403,182.805 348.5,197C 347.71,211.871 343.043,225.371 334.5,237.5 Z"/></g>
<g><path style="opacity:1" fill="#040301" d="M 417.5,236.5 C 417.5,236.833 417.5,237.167 417.5,237.5C 411.163,247.017 402.163,252.517 390.5,254C 376.047,256.201 361.713,255.534 347.5,252C 346.978,251.439 346.645,250.772 346.5,250C 347.439,245.802 348.439,241.635 349.5,237.5C 349.993,235.194 350.326,232.861 350.5,230.5C 362.245,234.121 374.245,235.288 386.5,234C 394.97,231.623 396.636,226.957 391.5,220C 383.919,216.876 376.586,213.209 369.5,209C 360.229,200.763 357.396,190.596 361,178.5C 365.385,169.116 372.552,162.949 382.5,160C 398.03,156.429 413.364,157.096 428.5,162C 426.593,168.702 425.26,175.535 424.5,182.5C 413.717,179.317 402.717,178.15 391.5,179C 383.182,182.611 382.515,187.278 389.5,193C 395.5,195.667 401.5,198.333 407.5,201C 420.234,210.093 423.567,221.926 417.5,236.5 Z"/></g>
<g><path style="opacity:1" fill="#020200" d="M 718.5,235.5 C 717.662,235.842 717.328,236.508 717.5,237.5C 716.244,242.782 715.244,248.115 714.5,253.5C 705.5,253.5 696.5,253.5 687.5,253.5C 687.735,247.993 688.735,242.66 690.5,237.5C 693.777,222.565 696.777,207.565 699.5,192.5C 699.519,183.852 695.186,179.519 686.5,179.5C 677.371,180.457 670.871,185.123 667,193.5C 662.752,207.986 659.252,222.653 656.5,237.5C 654.871,242.688 653.871,248.022 653.5,253.5C 644.167,253.5 634.833,253.5 625.5,253.5C 626.756,248.218 627.756,242.885 628.5,237.5C 629.167,237.5 629.5,237.167 629.5,236.5C 634.68,210.782 640.014,185.115 645.5,159.5C 653.833,159.5 662.167,159.5 670.5,159.5C 669.995,162.841 669.828,166.174 670,169.5C 682.782,156.743 697.616,153.577 714.5,160C 725.309,167.742 729.475,178.242 727,191.5C 723.973,206.137 721.139,220.804 718.5,235.5 Z"/></g>
<g><path style="opacity:1" fill="#030200" d="M 815.5,234.5 C 814.596,235.209 814.263,236.209 814.5,237.5C 813.183,242.769 812.183,248.103 811.5,253.5C 803.5,253.5 795.5,253.5 787.5,253.5C 790.121,244.694 788.454,243.527 782.5,250C 771.732,255.695 760.399,257.028 748.5,254C 740.852,250.854 735.852,245.354 733.5,237.5C 733.737,236.209 733.404,235.209 732.5,234.5C 731.272,216.565 739.106,204.565 756,198.5C 759.803,197.539 763.636,196.706 767.5,196C 777.494,195.5 787.494,195.334 797.5,195.5C 797.665,192.15 797.498,188.817 797,185.5C 795.749,182.619 793.583,180.786 790.5,180C 783.223,178.533 775.889,178.199 768.5,179C 762.487,180.171 756.487,181.337 750.5,182.5C 751.26,175.098 752.927,167.931 755.5,161C 768.975,157.685 782.642,156.685 796.5,158C 814.149,160.313 823.482,170.313 824.5,188C 821.579,203.517 818.579,219.017 815.5,234.5 Z"/></g>
<g><path style="opacity:1" fill="#020200" d="M 920.5,236.5 C 919.185,242.055 917.852,247.722 916.5,253.5C 907.5,253.5 898.5,253.5 889.5,253.5C 890.495,248.176 891.495,242.843 892.5,237.5C 895.697,222.566 898.697,207.566 901.5,192.5C 901.623,184.122 897.456,179.788 889,179.5C 881.233,180.265 875.233,183.932 871,190.5C 868.781,194.271 867.115,198.271 866,202.5C 863.556,214.223 861.056,225.89 858.5,237.5C 857.245,242.776 856.245,248.109 855.5,253.5C 846.5,253.5 837.5,253.5 828.5,253.5C 828.947,248.029 829.947,242.695 831.5,237.5C 831.5,237.167 831.5,236.833 831.5,236.5C 837.621,211.015 842.954,185.348 847.5,159.5C 856.192,159.169 864.859,159.502 873.5,160.5C 872.187,163.405 871.687,166.405 872,169.5C 885.573,156.119 901.073,153.285 918.5,161C 929.067,170.592 932.567,182.425 929,196.5C 925.527,209.721 922.694,223.054 920.5,236.5 Z"/></g>
<g><path style="opacity:1" fill="#040301" d="M 1004.5,233.5 C 1003.57,234.568 1003.23,235.901 1003.5,237.5C 1002.54,242.467 1001.2,247.3 999.5,252C 983.171,257.727 967.504,256.394 952.5,248C 948.935,244.604 945.602,241.104 942.5,237.5C 931.617,207.658 938.95,183.491 964.5,165C 975.055,158.861 986.388,156.528 998.5,158C 1004.86,159.105 1011.19,160.272 1017.5,161.5C 1016.48,168.901 1015.15,176.235 1013.5,183.5C 1007.04,181.311 1000.37,179.978 993.5,179.5C 978.915,181.249 969.748,189.249 966,203.5C 965.333,209.167 965.333,214.833 966,220.5C 969.641,229.743 976.475,234.077 986.5,233.5C 992.629,232.801 998.629,231.468 1004.5,229.5C 1004.91,230.557 1004.91,231.891 1004.5,233.5 Z"/></g>
<g><path style="opacity:1" fill="#040301" d="M 1092.5,236.5 C 1091.15,241.871 1089.49,247.204 1087.5,252.5C 1071.87,257.538 1056.2,257.705 1040.5,253C 1032.76,249.75 1026.76,244.583 1022.5,237.5C 1022.67,236.508 1022.34,235.842 1021.5,235.5C 1012.18,207.941 1018.51,184.775 1040.5,166C 1056.65,155.429 1073.65,153.762 1091.5,161C 1101.17,166.819 1107,175.319 1109,186.5C 1109.67,192.167 1109.67,197.833 1109,203.5C 1107.59,207.728 1106.75,212.061 1106.5,216.5C 1085.5,216.5 1064.5,216.5 1043.5,216.5C 1043.8,224.264 1047.46,229.764 1054.5,233C 1067.71,235.674 1080.55,234.507 1093,229.5C 1093.33,231.847 1093.17,234.181 1092.5,236.5 Z"/></g>
<g><path style="opacity:1" fill="#ff6600" d="M 1222.5,158.5 C 1243.17,158.5 1263.83,158.5 1284.5,158.5C 1284.74,159.791 1284.4,160.791 1283.5,161.5C 1263.35,159.837 1243.02,158.837 1222.5,158.5 Z"/></g>
<g><path style="opacity:1" fill="#020100" d="M 611.5,235.5 C 610.662,235.842 610.328,236.508 610.5,237.5C 609.245,242.776 608.245,248.109 607.5,253.5C 598.5,253.5 589.5,253.5 580.5,253.5C 581.285,248.12 582.285,242.787 583.5,237.5C 583.5,237.167 583.5,236.833 583.5,236.5C 589.682,211.464 595.182,186.131 600,160.5C 609.083,159.515 618.249,159.182 627.5,159.5C 621.95,184.803 616.617,210.136 611.5,235.5 Z"/></g>
<g><path style="opacity:1" fill="#fbc900" d="M 1083.5,187.5 C 1083.5,190.833 1083.5,194.167 1083.5,197.5C 1070.99,197.829 1058.66,197.495 1046.5,196.5C 1051.46,181.017 1061.8,175.184 1077.5,179C 1080.52,181.177 1082.52,184.011 1083.5,187.5 Z"/></g>
<g><path style="opacity:1" fill="#fbc900" d="M 299.5,178.5 C 316.527,178.822 323.36,187.488 320,204.5C 318.803,215.062 314.303,223.896 306.5,231C 294.419,237.891 285.586,235.058 280,222.5C 277.88,206.733 282.38,193.233 293.5,182C 295.727,181.059 297.727,179.892 299.5,178.5 Z"/></g>
<g><path style="opacity:1" fill="#fbc907" d="M 690.5,237.5 C 679.167,237.5 667.833,237.5 656.5,237.5C 659.252,222.653 662.752,207.986 667,193.5C 670.871,185.123 677.371,180.457 686.5,179.5C 695.186,179.519 699.519,183.852 699.5,192.5C 696.777,207.565 693.777,222.565 690.5,237.5 Z"/></g>
<g><path style="opacity:1" fill="#fac807" d="M 892.5,237.5 C 881.167,237.5 869.833,237.5 858.5,237.5C 861.056,225.89 863.556,214.223 866,202.5C 867.115,198.271 868.781,194.271 871,190.5C 875.233,183.932 881.233,180.265 889,179.5C 897.456,179.788 901.623,184.122 901.5,192.5C 898.697,207.566 895.697,222.566 892.5,237.5 Z"/></g>
<g><path style="opacity:1" fill="#806700" d="M 1083.5,187.5 C 1084.48,190.962 1084.81,194.629 1084.5,198.5C 1071.48,198.832 1058.48,198.499 1045.5,197.5C 1045.62,196.893 1045.96,196.56 1046.5,196.5C 1058.66,197.495 1070.99,197.829 1083.5,197.5C 1083.5,194.167 1083.5,190.833 1083.5,187.5 Z"/></g>
<g><path style="opacity:1" fill="#f7c500" d="M 774.5,211.5 C 780.878,211.295 787.211,211.628 793.5,212.5C 791.104,229.402 781.438,237.235 764.5,236C 755.332,229.218 755.332,222.218 764.5,215C 767.85,213.514 771.184,212.347 774.5,211.5 Z"/></g>
<g><path style="opacity:1" fill="#fce37e" d="M 255.5,235.5 C 256.338,235.842 256.672,236.508 256.5,237.5C 229.833,237.5 203.167,237.5 176.5,237.5C 176.5,236.833 176.833,236.5 177.5,236.5C 203.672,236.831 229.672,236.498 255.5,235.5 Z"/></g>
<g><path style="opacity:1" fill="#efd56f" d="M 431.5,233.5 C 432.434,234.568 432.768,235.901 432.5,237.5C 427.5,237.5 422.5,237.5 417.5,237.5C 417.5,237.167 417.5,236.833 417.5,236.5C 422.167,236.5 426.833,236.5 431.5,236.5C 431.5,235.5 431.5,234.5 431.5,233.5 Z"/></g>
<g><path style="opacity:1" fill="#f0d876" d="M 485.5,235.5 C 489.97,236.486 494.637,236.819 499.5,236.5C 499.5,236.833 499.5,237.167 499.5,237.5C 494.5,237.5 489.5,237.5 484.5,237.5C 484.328,236.508 484.662,235.842 485.5,235.5 Z"/></g>
<g><path style="opacity:1" fill="#fbe27d" d="M 528.5,235.5 C 546.659,236.497 564.992,236.83 583.5,236.5C 583.5,236.833 583.5,237.167 583.5,237.5C 564.833,237.5 546.167,237.5 527.5,237.5C 527.328,236.508 527.662,235.842 528.5,235.5 Z"/></g>
<g><path style="opacity:1" fill="#eed776" d="M 611.5,235.5 C 617.31,236.49 623.31,236.823 629.5,236.5C 629.5,237.167 629.167,237.5 628.5,237.5C 622.5,237.5 616.5,237.5 610.5,237.5C 610.328,236.508 610.662,235.842 611.5,235.5 Z"/></g>
<g><path style="opacity:1" fill="#e1c96a" d="M 732.5,234.5 C 733.404,235.209 733.737,236.209 733.5,237.5C 728.167,237.5 722.833,237.5 717.5,237.5C 717.328,236.508 717.662,235.842 718.5,235.5C 720.641,236.163 722.975,236.497 725.5,236.5C 728.269,236.471 730.603,235.805 732.5,234.5 Z"/></g>
<g><path style="opacity:1" fill="#ecd371" d="M 815.5,234.5 C 820.396,236.446 825.729,237.113 831.5,236.5C 831.5,236.833 831.5,237.167 831.5,237.5C 825.833,237.5 820.167,237.5 814.5,237.5C 814.263,236.209 814.596,235.209 815.5,234.5 Z"/></g>
<g><path style="opacity:1" fill="#ebd270" d="M 1004.5,233.5 C 1004.5,234.5 1004.5,235.5 1004.5,236.5C 1010.36,236.822 1016.02,236.489 1021.5,235.5C 1022.34,235.842 1022.67,236.508 1022.5,237.5C 1016.17,237.5 1009.83,237.5 1003.5,237.5C 1003.23,235.901 1003.57,234.568 1004.5,233.5 Z"/></g>
<g><path style="opacity:1" fill="#fefefe" d="M 920.5,236.5 C 927.648,237.492 934.981,237.825 942.5,237.5C 945.602,241.104 948.935,244.604 952.5,248C 967.504,256.394 983.171,257.727 999.5,252C 1001.2,247.3 1002.54,242.467 1003.5,237.5C 1009.83,237.5 1016.17,237.5 1022.5,237.5C 1026.76,244.583 1032.76,249.75 1040.5,253C 1056.2,257.705 1071.87,257.538 1087.5,252.5C 1089.49,247.204 1091.15,241.871 1092.5,236.5C 1099.65,237.492 1106.98,237.825 1114.5,237.5C 1110.83,256.169 1107.17,274.836 1103.5,293.5C 773.903,294.499 444.236,294.833 114.5,294.5C 118.604,275.551 122.604,256.551 126.5,237.5C 133.833,237.5 141.167,237.5 148.5,237.5C 147.623,242.801 146.956,248.135 146.5,253.5C 155.5,253.5 164.5,253.5 173.5,253.5C 174.285,248.12 175.285,242.787 176.5,237.5C 203.167,237.5 229.833,237.5 256.5,237.5C 261.898,246.211 269.565,252.045 279.5,255C 301.235,259.476 319.568,253.643 334.5,237.5C 339.5,237.5 344.5,237.5 349.5,237.5C 348.439,241.635 347.439,245.802 346.5,250C 346.645,250.772 346.978,251.439 347.5,252C 361.713,255.534 376.047,256.201 390.5,254C 402.163,252.517 411.163,247.017 417.5,237.5C 422.5,237.5 427.5,237.5 432.5,237.5C 434.118,242.534 437.118,246.701 441.5,250C 454.099,256.469 467.099,257.302 480.5,252.5C 482.361,247.696 483.695,242.696 484.5,237.5C 489.5,237.5 494.5,237.5 499.5,237.5C 498.823,242.563 497.823,247.563 496.5,252.5C 505.81,253.498 515.143,253.832 524.5,253.5C 525.286,248.118 526.286,242.784 527.5,237.5C 546.167,237.5 564.833,237.5 583.5,237.5C 582.285,242.787 581.285,248.12 580.5,253.5C 589.5,253.5 598.5,253.5 607.5,253.5C 608.245,248.109 609.245,242.776 610.5,237.5C 616.5,237.5 622.5,237.5 628.5,237.5C 627.756,242.885 626.756,248.218 625.5,253.5C 634.833,253.5 644.167,253.5 653.5,253.5C 653.871,248.022 654.871,242.688 656.5,237.5C 667.833,237.5 679.167,237.5 690.5,237.5C 688.735,242.66 687.735,247.993 687.5,253.5C 696.5,253.5 705.5,253.5 714.5,253.5C 715.244,248.115 716.244,242.782 717.5,237.5C 722.833,237.5 728.167,237.5 733.5,237.5C 735.852,245.354 740.852,250.854 748.5,254C 760.399,257.028 771.732,255.695 782.5,250C 788.454,243.527 790.121,244.694 787.5,253.5C 795.5,253.5 803.5,253.5 811.5,253.5C 812.183,248.103 813.183,242.769 814.5,237.5C 820.167,237.5 825.833,237.5 831.5,237.5C 829.947,242.695 828.947,248.029 828.5,253.5C 837.5,253.5 846.5,253.5 855.5,253.5C 856.245,248.109 857.245,242.776 858.5,237.5C 869.833,237.5 881.167,237.5 892.5,237.5C 891.495,242.843 890.495,248.176 889.5,253.5C 898.5,253.5 907.5,253.5 916.5,253.5C 917.852,247.722 919.185,242.055 920.5,236.5 Z"/></g>
<g><path style="opacity:1" fill="#ffd940" d="M 1103.5,293.5 C 939.001,294.833 774.168,295.5 609,295.5C 444,295.5 279.166,295.167 114.5,294.5C 444.236,294.833 773.903,294.499 1103.5,293.5 Z"/></g>
</svg>
