<?xml version="1.0" encoding="UTF-8"?>
<!DOCTYPE svg PUBLIC "-//W3C//DTD SVG 1.1//EN" "http://www.w3.org/Graphics/SVG/1.1/DTD/svg11.dtd">
<svg xmlns="http://www.w3.org/2000/svg" version="1.1" width="250px" height="249px" style="shape-rendering:geometricPrecision; text-rendering:geometricPrecision; image-rendering:optimizeQuality; fill-rule:evenodd; clip-rule:evenodd" xmlns:xlink="http://www.w3.org/1999/xlink">
<g><path style="opacity:1" fill="#c7c934" d="M -0.5,-0.5 C 82.8333,-0.5 166.167,-0.5 249.5,-0.5C 249.5,82.5 249.5,165.5 249.5,248.5C 166.167,248.5 82.8333,248.5 -0.5,248.5C -0.5,165.5 -0.5,82.5 -0.5,-0.5 Z"/></g>
<g><path style="opacity:1" fill="#f9f9f8" d="M 2.5,97.5 C 83.5,97.5 164.5,97.5 245.5,97.5C 245.5,115.833 245.5,134.167 245.5,152.5C 164.5,152.5 83.5,152.5 2.5,152.5C 2.5,134.167 2.5,115.833 2.5,97.5 Z"/></g>
<g><path style="opacity:1" fill="#c7c936" d="M 239.5,112.5 C 191.664,112.168 143.997,112.501 96.5,113.5C 94.5028,123.161 92.5028,132.827 90.5,142.5C 88.8333,142.5 87.1667,142.5 85.5,142.5C 85.557,138.867 84.557,138.7 82.5,142C 78.4087,143.227 74.9087,142.394 72,139.5C 68.6755,131.433 70.5088,124.933 77.5,120C 81.444,119.01 85.1106,119.51 88.5,121.5C 89.9322,118.673 90.5988,115.673 90.5,112.5C 63.5,112.5 36.5,112.5 9.5,112.5C 9.5,109.167 9.5,105.833 9.5,102.5C 86.1667,102.5 162.833,102.5 239.5,102.5C 239.5,105.833 239.5,109.167 239.5,112.5 Z"/></g>
<g><path style="opacity:1" fill="#25254b" d="M 9.5,112.5 C 36.5,112.5 63.5,112.5 90.5,112.5C 90.5988,115.673 89.9322,118.673 88.5,121.5C 85.1106,119.51 81.444,119.01 77.5,120C 70.5088,124.933 68.6755,131.433 72,139.5C 74.9087,142.394 78.4087,143.227 82.5,142C 84.557,138.7 85.557,138.867 85.5,142.5C 87.1667,142.5 88.8333,142.5 90.5,142.5C 92.5028,132.827 94.5028,123.161 96.5,113.5C 143.833,113.5 191.167,113.5 238.5,113.5C 238.5,124.833 238.5,136.167 238.5,147.5C 214.328,147.831 190.328,147.498 166.5,146.5C 169.534,137.867 171.867,129.033 173.5,120C 171.527,119.505 169.527,119.338 167.5,119.5C 167.557,123.133 166.557,123.3 164.5,120C 152.486,118.787 147.32,124.287 149,136.5C 152.567,143.013 157.234,144.013 163,139.5C 163.047,144.67 160.38,147.337 155,147.5C 152.849,147.227 150.849,146.561 149,145.5C 133.407,147.476 117.574,148.142 101.5,147.5C 101.421,144.729 101.921,142.063 103,139.5C 110.514,144.59 116.18,142.923 120,134.5C 123.644,126.125 121.144,120.791 112.5,118.5C 110.303,118.848 108.47,119.848 107,121.5C 105.246,119.75 103.079,119.083 100.5,119.5C 98.8329,128.835 97.1662,138.168 95.5,147.5C 66.8333,147.5 38.1667,147.5 9.5,147.5C 9.5,135.833 9.5,124.167 9.5,112.5 Z"/></g>
<g><path style="opacity:1" fill="#6a6a7b" d="M 96.5,113.5 C 143.997,112.501 191.664,112.168 239.5,112.5C 239.5,124.167 239.5,135.833 239.5,147.5C 239.167,147.5 238.833,147.5 238.5,147.5C 238.5,136.167 238.5,124.833 238.5,113.5C 191.167,113.5 143.833,113.5 96.5,113.5 Z"/></g>
<g><path style="opacity:1" fill="#f0f0ee" d="M 133.5,118.5 C 137.676,118.168 141.176,119.502 144,122.5C 144.487,129.236 143.987,135.903 142.5,142.5C 140.833,142.5 139.167,142.5 137.5,142.5C 137.649,141.448 137.483,140.448 137,139.5C 132.594,143.423 128.261,143.423 124,139.5C 122.357,134.572 123.857,131.072 128.5,129C 132.152,128.501 135.818,128.335 139.5,128.5C 139.703,126.61 139.037,125.11 137.5,124C 134.084,123.107 130.917,123.607 128,125.5C 127.202,123.741 127.369,122.074 128.5,120.5C 130.336,119.972 132.003,119.306 133.5,118.5 Z"/></g>
<g><path style="opacity:1" fill="#f2f2f1" d="M 186.5,118.5 C 198.837,119.836 202.337,126.17 197,137.5C 192.772,142.087 187.606,143.587 181.5,142C 175.975,139.081 174.142,134.581 176,128.5C 178.081,123.584 181.581,120.25 186.5,118.5 Z"/></g>
<g><path style="opacity:1" fill="#f1f1ef" d="M 211.5,118.5 C 214.673,118.401 217.673,119.068 220.5,120.5C 219.754,121.736 219.421,123.07 219.5,124.5C 216.859,123.737 214.192,123.57 211.5,124C 210.978,124.561 210.645,125.228 210.5,126C 212.672,128.172 214.839,130.339 217,132.5C 217.88,139.457 214.713,142.791 207.5,142.5C 204.869,142.679 202.535,142.013 200.5,140.5C 200.865,139.098 201.699,138.098 203,137.5C 205.715,138.738 208.382,138.738 211,137.5C 211.667,136.5 211.667,135.5 211,134.5C 207.261,132.774 205.094,129.94 204.5,126C 204.981,121.688 207.314,119.188 211.5,118.5 Z"/></g>
<g><path style="opacity:1" fill="#bebf35" d="M 32.5,119.5 C 34.1667,119.5 35.8333,119.5 37.5,119.5C 37.3433,120.873 37.51,122.207 38,123.5C 39.3184,120.059 41.8184,118.725 45.5,119.5C 45.5,121.167 45.5,122.833 45.5,124.5C 41.7273,123.822 38.894,125.156 37,128.5C 35.9248,133.035 34.7581,137.535 33.5,142C 31.4213,142.808 29.4213,142.641 27.5,141.5C 29.4812,134.242 31.1478,126.908 32.5,119.5 Z"/></g>
<g><path style="opacity:1" fill="#c1c234" d="M 53.5,119.5 C 63.9993,117.668 68.666,122.001 67.5,132.5C 62.1667,132.5 56.8333,132.5 51.5,132.5C 50.9648,135.238 51.9648,137.072 54.5,138C 57.8708,138.744 61.0375,138.244 64,136.5C 64.0933,141.4 61.5933,143.4 56.5,142.5C 45.4249,140.679 42.5915,134.679 48,124.5C 49.7297,122.598 51.563,120.931 53.5,119.5 Z"/></g>
<g><path style="opacity:1" fill="#26254a" d="M 80.5,123.5 C 84.8243,123.158 86.8243,125.158 86.5,129.5C 86.5972,136.085 83.5972,138.419 77.5,136.5C 75.8281,131.523 76.8281,127.19 80.5,123.5 Z"/></g>
<g><path style="opacity:1" fill="#28274d" d="M 108.5,123.5 C 112.58,123.081 114.58,124.914 114.5,129C 114.825,135.859 111.825,138.359 105.5,136.5C 103.645,131.465 104.645,127.132 108.5,123.5 Z"/></g>
<g><path style="opacity:1" fill="#29284e" d="M 159.5,123.5 C 163.692,123.177 165.692,125.177 165.5,129.5C 164.907,135.616 161.74,137.95 156,136.5C 154.539,131.284 155.705,126.95 159.5,123.5 Z"/></g>
<g><path style="opacity:1" fill="#2b294f" d="M 186.5,123.5 C 191.039,122.539 193.372,124.373 193.5,129C 192.92,135.941 189.42,138.441 183,136.5C 182.125,135.127 181.625,133.627 181.5,132C 182.137,128.537 183.803,125.704 186.5,123.5 Z"/></g>
<g><path style="opacity:1" fill="#262247" d="M 55.5,123.5 C 59.8514,122.533 62.1847,124.2 62.5,128.5C 59.1016,128.82 55.7683,128.487 52.5,127.5C 53.5244,126.148 54.5244,124.815 55.5,123.5 Z"/></g>
<g><path style="opacity:1" fill="#2c2b4f" d="M 132.5,131.5 C 134.604,131.201 136.604,131.534 138.5,132.5C 137.231,136.633 134.564,138.466 130.5,138C 128.933,135.094 129.6,132.928 132.5,131.5 Z"/></g>
<g><path style="opacity:1" fill="#cacac2" d="M 166.5,146.5 C 190.328,147.498 214.328,147.831 238.5,147.5C 238.833,147.5 239.167,147.5 239.5,147.5C 214.997,148.829 190.33,148.829 165.5,147.5C 165.624,146.893 165.957,146.56 166.5,146.5 Z"/></g>
</svg>
