<?xml version="1.0" encoding="utf-8"?>
<!-- Generator: Adobe Illustrator 19.0.0, SVG Export Plug-In . SVG Version: 6.00 Build 0)  -->
<svg version="1.1" id="layer" xmlns="http://www.w3.org/2000/svg" xmlns:xlink="http://www.w3.org/1999/xlink" x="0px" y="0px"
	 viewBox="-153 -46 652 652" style="enable-background:new -153 -46 652 652;" xml:space="preserve">
<style type="text/css">
	.st0{fill:#C7C933;}
	.st1{fill:#FFFFFF;}
	.st2{fill:#23234B;}
</style>
<rect x="-82" y="25" class="st0" width="500" height="500"/>
<rect x="-74.8" y="220.4" class="st1" width="485.5" height="111.7"/>
<g>
	<path class="st2" d="M177.4,298.2c0,3.2,3,4.7,6,4.7c8.8,0,11.5-6.1,13.4-13.4h-4.1C186.9,289.6,177.4,290.5,177.4,298.2z"/>
	<path class="st2" d="M296.9,273.3c-9.3,0-14,10.3-14,18.5c0,6,2.5,10.6,9.2,10.6c9.1,0,13.7-10.6,13.7-18.3
		C305.8,278.2,303.8,273.3,296.9,273.3z"/>
	<path class="st2" d="M-61.4,251.8v69.9h171.3l10.4-50.6c0.4-2.2,0.8-4,1-5.9h11.2l-1.3,6h0.2c3.4-4.8,7.7-7,13.6-7
		c11.3,0,16.6,7.7,16.6,18.4c0,14.2-7.8,29-23.6,29c-5.2,0-10.6-1.8-12.5-8.1h-0.2l-3.7,18.2h93.6l1.3-4.3c4.7,1.9,9.1,3.5,14.2,3.5
		c12.5,0,14.3-8.7,17.1-19h-0.2c-3,5.5-8.7,8.6-15.2,8.6c-11,0-15.8-9.2-15.8-19.2c0-13.5,8.3-27.2,23-27.2c6,0,11,2.9,13.8,7.7
		l1.3-6.6h11.3c-0.4,1.2-0.9,3.4-1.5,6.3l-7.2,34c-1.3,6.5-3.3,11.9-6.5,16.1h146.3v-69.9H-61.4z M203.6,310.5h-9.9l1.2-6.9h-0.2
		c-4,5.1-8.1,8-14.6,8c-8.2,0-14-4.6-14-12.9c0-15,16.7-16.1,27.8-16.1h4.1c0.4-1.2,0.4-2.6,0.4-3.9c0-4.6-4.9-5.9-9.1-5.9
		c-5.2,0-10.2,1.3-14.9,3.5l1.7-9.4c5-1.8,10.1-2.7,15.4-2.7c9.1,0,17.6,3.3,17.6,14C209.1,284.2,204.7,302,203.6,310.5z
		 M291.1,311.6c-12.8,0-20.6-7.9-20.6-20.7c0-15.1,11.6-26.7,26.8-26.7c12.2,0,20.8,7.4,20.8,19.9
		C318.2,300,307.2,311.6,291.1,311.6z M357,274.9c-3.1-1.1-6.3-2.1-9.7-2.1c-3.5,0-7.9,1-7.9,4.6c0,5.7,15.3,7.8,15.3,18.9
		c0,11.8-10.3,15.3-20.4,15.3c-4.7,0-9.5-0.7-13.8-2.7l2.6-9.4c3.3,1.9,6.7,3.5,11.3,3.5c4,0,8.1-1.3,8.1-5c0-7.3-15.3-8-15.3-19.4
		c0-10.6,10.3-14.4,19.6-14.4c4.3,0,8.7,0.8,12.8,1.8L357,274.9z"/>
	<path class="st2" d="M229.2,291.2c0,5.5,2.2,10.1,7.5,10.1c9.4,0,13.3-9.9,13.3-18.6c0-5.3-3.1-9.5-8.5-9.5
		C232.9,273.3,229.2,284.5,229.2,291.2z"/>
	<path class="st2" d="M136.3,302.4c9.9,0,13-12.3,13-19.4c0-5.5-2.8-9.7-8.3-9.7c-8,0-12.5,10.6-12.5,18.5
		C128.6,297.6,130.6,302.4,136.3,302.4z"/>
</g>
<g>
	<path class="st0" d="M397.4,231.5H-61.4v20.3h162.7l-4.1,18.8c-3.7-4.2-8.2-6.4-14-6.4c-15.4,0-22.8,15-22.8,28.6
		c0,9.8,4.8,18.8,15.6,18.8c6.9,0,11.3-2.8,14.8-7.7h0.2l-1.1,6.7h11c0.3-2.3,1-6.2,1.7-10l10.6-48.7h284.4L397.4,231.5L397.4,231.5
		z M79.9,302.4c-5.8,0-7.2-6.2-7.2-10.7c0-6.8,4-18.4,12.4-18.4c6,0,8.5,5.5,8.5,10.7C93.6,292.4,88.5,302.4,79.9,302.4z"/>
	<path class="st0" d="M7.8,264.2c-5.5,0-11.3,4.7-13.4,9.6h-0.2l1.6-8.5h-11.3c-0.4,2.1-0.7,4.1-1.1,6.1l-8.1,39.2h11.8l4.2-20.3
		c1.5-7.3,5.5-14.8,13.9-14.8c1.5,0,3.2,0.3,4.5,0.7l2.5-11.5C10.9,264.2,9.3,264.2,7.8,264.2z"/>
	<path class="st0" d="M36.4,264.2c-14.9,0-25.8,13.5-25.8,27.6c0,13.5,8.8,19.8,21.8,19.8c4.8,0,9.9-1.1,14.4-2.6l1.5-9.3
		c-4.4,2-9.1,3.3-13.9,3.3c-8.1,0-12.6-3.1-12.6-11.4h31.9c0.7-3.3,1.1-6.7,1.1-10.1C55,269.9,47.6,264.2,36.4,264.2z M43.5,283.4
		h-20c2.3-6.2,5.5-10.6,12.8-10.6c4.9,0,7.5,2.7,7.5,7.6C43.7,281.4,43.6,282.4,43.5,283.4z"/>
</g>
</svg>
