<?xml version="1.0" encoding="UTF-8" ?>
<!DOCTYPE svg PUBLIC "-//W3C//DTD SVG 1.1//EN" "http://www.w3.org/Graphics/SVG/1.1/DTD/svg11.dtd">
<svg width="399pt" height="91pt" viewBox="0 0 399 91" version="1.1" xmlns="http://www.w3.org/2000/svg">
<path fill="#ffffff" d=" M 0.00 0.00 L 399.00 0.00 L 399.00 91.00 L 0.00 91.00 L 0.00 0.00 Z" />
<path fill="#009dd4" d=" M 237.16 6.99 L 237.67 7.05 C 249.30 18.83 261.24 30.35 272.70 42.27 C 270.35 42.52 267.98 42.58 265.62 42.50 C 259.10 35.79 252.24 29.43 245.66 22.79 C 244.21 24.08 242.86 25.47 241.53 26.87 C 246.99 32.49 252.65 37.90 258.12 43.51 C 255.70 43.21 253.30 43.62 251.15 44.77 C 243.94 37.64 236.84 30.40 229.64 23.26 C 225.78 27.00 222.07 30.87 218.21 34.61 C 220.58 37.54 223.56 39.92 226.08 42.73 C 222.71 42.24 219.32 42.55 216.02 43.32 C 211.19 43.51 206.28 43.74 201.61 42.31 C 213.27 30.34 225.37 18.83 237.16 6.99 Z" />
<path fill="#ffffff" d=" M 241.53 26.87 C 242.86 25.47 244.21 24.08 245.66 22.79 C 252.24 29.43 259.10 35.79 265.62 42.50 C 266.92 43.76 268.21 45.04 269.50 46.32 C 261.60 54.31 253.61 62.21 245.68 70.17 C 244.17 68.89 242.81 67.43 241.45 66.00 C 247.81 59.30 254.67 53.12 261.07 46.46 C 260.09 45.47 259.09 44.51 258.12 43.51 C 252.65 37.90 246.99 32.49 241.53 26.87 Z" />
<path fill="#ffffff" d=" M 218.21 34.61 C 222.07 30.87 225.78 27.00 229.64 23.26 C 236.84 30.40 243.94 37.64 251.15 44.77 C 251.64 45.27 252.62 46.26 253.11 46.75 C 245.17 54.46 237.60 62.68 229.45 70.09 C 225.77 66.30 221.96 62.65 218.30 58.85 C 222.25 54.85 226.29 50.93 230.20 46.88 C 228.87 45.45 227.43 44.14 226.08 42.73 C 223.56 39.92 220.58 37.54 218.21 34.61 Z" />
<path fill="#035eaa" d=" M 11.44 33.53 C 16.16 31.39 21.63 31.71 26.62 32.59 C 30.97 33.39 33.81 37.51 34.03 41.77 C 30.79 41.76 27.55 41.71 24.31 41.80 C 24.18 37.59 16.30 36.18 16.03 40.82 C 20.16 44.02 26.46 43.00 30.83 46.18 C 36.40 49.16 36.20 57.76 31.44 61.44 C 26.30 65.45 19.07 64.92 13.04 63.71 C 8.36 62.65 5.83 57.98 5.29 53.53 C 8.48 52.88 11.83 53.42 15.08 53.25 C 15.32 57.94 22.36 60.12 24.83 56.02 C 25.83 53.62 23.04 52.24 21.17 51.76 C 16.59 50.57 11.22 49.89 8.02 46.00 C 4.79 41.95 6.90 35.59 11.44 33.53 Z" />
<path fill="#035eaa" d=" M 46.39 32.11 C 49.74 31.97 53.17 31.85 56.49 32.17 C 59.93 42.97 63.72 53.66 67.11 64.47 C 63.72 64.52 60.32 64.53 56.93 64.47 C 56.49 62.73 56.07 60.98 55.54 59.26 C 52.80 59.26 50.06 59.20 47.32 59.30 C 46.84 61.03 46.48 62.79 45.90 64.50 C 42.50 64.51 39.11 64.51 35.71 64.49 C 39.23 53.68 43.02 42.96 46.39 32.11 Z" />
<path fill="#035eaa" d=" M 69.51 32.01 C 78.75 32.00 88.00 31.99 97.24 32.02 C 97.27 34.34 97.26 36.66 97.24 38.98 C 91.41 39.03 85.59 38.96 79.77 39.01 C 79.73 40.81 79.76 42.60 79.74 44.40 C 84.70 44.62 89.69 44.46 94.65 44.47 C 94.88 46.69 94.69 48.93 94.76 51.17 C 89.80 51.37 84.82 51.20 79.85 51.25 C 79.62 55.64 79.82 60.07 79.76 64.47 C 76.34 64.54 72.93 64.50 69.51 64.49 C 69.49 53.66 69.49 42.84 69.51 32.01 Z" />
<path fill="#035eaa" d=" M 101.76 32.01 C 111.00 31.99 120.25 32.00 129.49 32.01 C 129.51 34.34 129.52 36.67 129.49 38.99 C 123.66 39.02 117.84 38.97 112.01 39.01 C 112.00 40.84 111.93 42.69 112.07 44.52 C 115.88 44.49 119.68 44.48 123.49 44.51 C 123.51 46.76 123.52 49.00 123.48 51.24 C 119.66 51.27 115.84 51.23 112.03 51.25 C 111.97 53.25 111.99 55.24 112.01 57.23 C 117.83 57.26 123.64 57.26 129.45 57.23 C 129.56 59.65 129.49 62.07 129.49 64.49 C 120.24 64.50 111.00 64.52 101.75 64.48 C 101.75 53.66 101.73 42.84 101.76 32.01 Z" />
<path fill="#035eaa" d=" M 133.45 32.34 L 133.79 32.01 C 143.78 32.02 153.77 31.96 163.76 32.04 C 163.75 34.35 163.76 36.66 163.75 38.97 C 160.34 39.20 156.79 38.66 153.46 39.23 C 153.55 47.65 153.49 56.07 153.49 64.49 C 150.16 64.51 146.83 64.51 143.51 64.49 C 143.51 56.04 143.46 47.59 143.54 39.14 C 140.12 38.78 136.66 39.16 133.22 38.94 C 133.11 36.73 133.73 34.56 133.45 32.34 Z" />
<path fill="#035eaa" d=" M 165.85 31.77 C 169.19 31.72 172.54 31.74 175.88 31.76 C 177.95 35.03 179.58 38.55 181.36 41.99 L 181.97 42.00 C 183.78 38.59 185.58 35.18 187.38 31.76 C 190.73 31.76 194.09 31.69 197.44 31.81 C 193.92 38.19 190.25 44.49 186.76 50.89 C 186.70 55.43 186.84 59.98 186.69 64.52 C 183.29 64.47 179.90 64.53 176.51 64.49 C 176.41 59.83 176.63 55.16 176.41 50.51 C 172.86 44.28 169.42 37.99 165.85 31.77 Z" />
<path fill="#009dd4" d=" M 284.25 32.04 C 290.88 32.05 297.55 31.85 304.16 32.15 C 310.03 32.73 313.11 39.18 311.72 44.51 C 308.23 44.70 304.73 44.74 301.25 44.41 C 301.72 43.01 302.18 41.28 301.03 40.07 C 299.32 38.16 296.53 38.84 294.27 38.77 C 294.26 39.51 294.24 40.98 294.23 41.71 C 291.45 41.99 288.67 41.83 285.89 41.82 C 285.66 43.78 285.27 45.71 284.30 47.45 C 284.12 42.32 284.33 37.18 284.25 32.04 Z" />
<path fill="#009dd4" d=" M 320.30 32.08 C 323.59 31.90 326.88 32.04 330.17 32.00 C 331.38 35.53 332.62 39.06 333.67 42.64 C 331.00 42.83 328.31 42.94 325.67 42.42 L 325.05 42.33 C 324.70 43.73 324.47 45.17 324.15 46.58 C 321.29 46.44 318.42 46.44 315.56 46.56 C 317.03 41.70 318.84 36.94 320.30 32.08 Z" />
<path fill="#009dd4" d=" M 339.11 32.04 C 342.46 31.99 345.81 31.99 349.16 32.02 C 351.07 35.27 352.62 38.73 354.51 42.00 C 355.77 41.87 355.84 40.20 356.54 39.40 C 357.75 36.92 359.14 34.54 360.33 32.06 C 363.72 31.91 367.12 32.07 370.52 32.00 C 367.51 37.16 364.77 42.47 361.71 47.58 C 357.30 47.68 352.44 46.33 348.37 48.53 L 348.24 48.59 C 345.30 43.02 342.12 37.57 339.11 32.04 Z" />
<path fill="#009dd4" d=" M 371.85 32.98 C 374.90 31.28 378.60 32.96 381.91 32.23 C 382.29 33.28 382.62 34.35 382.91 35.43 C 383.20 34.38 383.50 33.33 383.80 32.27 C 384.48 32.35 385.84 32.51 386.52 32.59 C 386.43 34.72 386.64 36.87 386.34 38.99 C 383.87 39.15 385.00 36.66 384.49 35.26 C 383.82 36.55 384.54 39.60 382.17 38.80 C 381.90 37.63 381.62 36.46 381.34 35.29 C 381.04 36.65 381.69 39.60 379.32 38.79 C 379.24 37.01 379.14 35.20 379.42 33.43 C 378.75 33.63 377.39 34.02 376.72 34.21 C 376.71 35.73 376.78 37.26 376.70 38.78 C 376.14 38.75 375.02 38.69 374.46 38.65 C 374.47 37.20 374.51 35.75 374.59 34.30 C 373.91 33.97 372.54 33.31 371.85 32.98 Z" />
<path fill="#ffffff" d=" M 294.27 38.77 C 296.53 38.84 299.32 38.16 301.03 40.07 C 302.18 41.28 301.72 43.01 301.25 44.41 C 299.29 46.04 296.63 45.79 294.26 45.76 C 294.20 44.41 294.23 43.06 294.23 41.71 C 294.24 40.98 294.26 39.51 294.27 38.77 Z" />
<path fill="#035eaa" d=" M 285.89 41.82 C 288.67 41.83 291.45 41.99 294.23 41.71 C 294.23 43.06 294.20 44.41 294.26 45.76 C 296.63 45.79 299.29 46.04 301.25 44.41 C 304.73 44.74 308.23 44.70 311.72 44.51 C 311.12 48.05 308.37 51.19 304.80 51.93 C 301.39 53.08 297.64 52.08 294.24 52.71 C 294.26 56.64 294.27 60.57 294.24 64.49 C 290.93 64.55 287.62 64.48 284.31 64.53 C 284.16 58.84 284.23 53.14 284.30 47.45 C 285.27 45.71 285.66 43.78 285.89 41.82 Z" />
<path fill="#ffffff" d=" M 51.29 41.34 C 52.30 44.83 52.88 48.44 53.65 51.99 C 52.56 51.99 50.39 52.00 49.30 52.00 C 49.90 48.43 50.70 44.91 51.29 41.34 Z" />
<path fill="#035eaa" d=" M 265.62 42.50 C 267.98 42.58 270.35 42.52 272.70 42.27 L 272.83 42.27 C 274.20 43.61 275.55 44.97 276.93 46.30 L 276.92 46.70 C 263.85 59.82 250.73 72.89 237.65 86.00 L 237.13 86.00 C 223.97 72.80 210.60 59.86 197.45 46.65 C 198.62 45.03 200.23 43.76 201.61 42.31 C 206.28 43.74 211.19 43.51 216.02 43.32 C 219.32 42.55 222.71 42.24 226.08 42.73 C 227.43 44.14 228.87 45.45 230.20 46.88 C 226.29 50.93 222.25 54.85 218.30 58.85 C 221.96 62.65 225.77 66.30 229.45 70.09 C 237.60 62.68 245.17 54.46 253.11 46.75 C 252.62 46.26 251.64 45.27 251.15 44.77 C 253.30 43.62 255.70 43.21 258.12 43.51 C 259.09 44.51 260.09 45.47 261.07 46.46 C 254.67 53.12 247.81 59.30 241.45 66.00 C 242.81 67.43 244.17 68.89 245.68 70.17 C 253.61 62.21 261.60 54.31 269.50 46.32 C 268.21 45.04 266.92 43.76 265.62 42.50 Z" />
<path fill="#ffffff" d=" M 325.05 42.33 L 325.67 42.42 C 326.03 45.64 326.90 48.79 327.53 51.97 C 326.08 52.02 324.63 52.02 323.19 51.97 C 323.43 50.16 323.73 48.36 324.15 46.58 C 324.47 45.17 324.70 43.73 325.05 42.33 Z" />
<path fill="#035eaa" d=" M 325.67 42.42 C 328.31 42.94 331.00 42.83 333.67 42.64 L 333.68 42.64 C 336.16 49.93 338.69 57.20 341.01 64.55 C 337.59 64.40 334.15 64.68 330.75 64.40 C 330.21 62.73 329.93 60.99 329.42 59.31 C 326.69 59.18 323.95 59.29 321.23 59.25 C 320.76 61.00 320.26 62.74 319.81 64.49 C 316.42 64.53 313.03 64.54 309.65 64.47 C 311.61 58.50 313.59 52.53 315.56 46.56 C 318.42 46.44 321.29 46.44 324.15 46.58 C 323.73 48.36 323.43 50.16 323.19 51.97 C 324.63 52.02 326.08 52.02 327.53 51.97 C 326.90 48.79 326.03 45.64 325.67 42.42 Z" />
<path fill="#035eaa" d=" M 348.37 48.53 C 352.44 46.33 357.30 47.68 361.71 47.58 C 358.07 52.49 360.51 58.89 359.68 64.53 C 356.37 64.48 353.06 64.55 349.76 64.49 C 349.71 60.09 349.76 55.68 349.74 51.28 C 349.40 50.59 348.71 49.21 348.37 48.53 Z" />
</svg>
