<?xml version="1.0" encoding="UTF-8"?>
<!DOCTYPE svg PUBLIC "-//W3C//DTD SVG 1.1//EN" "http://www.w3.org/Graphics/SVG/1.1/DTD/svg11.dtd">
<svg xmlns="http://www.w3.org/2000/svg" version="1.1" width="500px" height="304px" style="shape-rendering:geometricPrecision; text-rendering:geometricPrecision; image-rendering:optimizeQuality; fill-rule:evenodd; clip-rule:evenodd" xmlns:xlink="http://www.w3.org/1999/xlink">
<g><path style="opacity:0.998" fill="#024786" d="M 30.5,-0.5 C 176.5,-0.5 322.5,-0.5 468.5,-0.5C 478.612,2.31045 486.779,7.97711 493,16.5C 495.467,20.7708 497.634,25.1041 499.5,29.5C 499.5,110.833 499.5,192.167 499.5,273.5C 496.402,283.112 490.735,290.945 482.5,297C 477.863,299.489 473.196,301.656 468.5,303.5C 322.5,303.5 176.5,303.5 30.5,303.5C 20.3881,300.69 12.2215,295.023 6,286.5C 3.53252,282.229 1.36586,277.896 -0.5,273.5C -0.5,192.167 -0.5,110.833 -0.5,29.5C 2.59804,19.8882 8.26471,12.0548 16.5,6C 21.1373,3.51112 25.804,1.34445 30.5,-0.5 Z"/></g>
<g><path style="opacity:1" fill="#fcfdfd" d="M 257.5,71.5 C 279.202,71.081 300.869,71.581 322.5,73C 332.418,77.2593 338.252,84.7593 340,95.5C 341.31,107.39 340.31,119.057 337,130.5C 333.017,137.752 326.851,141.919 318.5,143C 306.838,143.5 295.171,143.667 283.5,143.5C 283.5,151.833 283.5,160.167 283.5,168.5C 274.833,168.5 266.167,168.5 257.5,168.5C 257.5,136.167 257.5,103.833 257.5,71.5 Z"/></g>
<g><path style="opacity:1" fill="#fcfdfd" d="M 357.5,165.5 C 356.596,166.209 356.263,167.209 356.5,168.5C 347.318,168.827 338.318,168.493 329.5,167.5C 339.144,135.591 348.477,103.591 357.5,71.5C 371.167,71.5 384.833,71.5 398.5,71.5C 407.728,103.815 417.395,135.981 427.5,168C 418.506,168.5 409.506,168.666 400.5,168.5C 399.536,162.776 397.87,157.276 395.5,152C 383.838,151.5 372.171,151.333 360.5,151.5C 359.497,156.173 358.497,160.839 357.5,165.5 Z"/></g>
<g><path style="opacity:1" fill="#fbfcfd" d="M 89.5,72.5 C 104.17,72.3334 118.837,72.5001 133.5,73C 147.521,77.8608 153.187,87.6941 150.5,102.5C 142.167,102.5 133.833,102.5 125.5,102.5C 125.664,99.8127 125.497,97.146 125,94.5C 123.745,93.7894 122.579,92.956 121.5,92C 115.167,91.3333 108.833,91.3333 102.5,92C 100.714,92.7845 99.214,93.9512 98,95.5C 97.3333,98.8333 97.3333,102.167 98,105.5C 99.214,107.049 100.714,108.215 102.5,109C 112.813,109.966 123.146,110.632 133.5,111C 142.896,112.099 149.396,116.932 153,125.5C 153.667,133.833 153.667,142.167 153,150.5C 149.441,161.217 141.941,167.05 130.5,168C 118.167,168.667 105.833,168.667 93.5,168C 83.4089,167.709 76.5756,162.876 73,153.5C 72.1697,148.192 71.6697,142.859 71.5,137.5C 79.5,137.5 87.5,137.5 95.5,137.5C 95.1606,141.987 96.8273,145.487 100.5,148C 107.833,148.667 115.167,148.667 122.5,148C 128.465,144.654 129.965,139.82 127,133.5C 126.097,132.299 124.931,131.465 123.5,131C 111.833,130 100.167,129 88.5,128C 77.8259,125.326 72.3259,118.493 72,107.5C 67.8502,90.464 73.6835,78.7974 89.5,72.5 Z"/></g>
<g><path style="opacity:1" fill="#e7ae03" d="M 239.5,115.5 C 221.833,115.5 204.167,115.5 186.5,115.5C 186.5,118.833 186.5,122.167 186.5,125.5C 202.5,125.5 218.5,125.5 234.5,125.5C 232.915,129.838 230.915,134.005 228.5,138C 216.5,138.333 204.5,138.667 192.5,139C 202.411,153.127 215.745,157.794 232.5,153C 237.477,151.503 241.81,149.003 245.5,145.5C 246.486,149.97 246.819,154.637 246.5,159.5C 240.85,163.445 234.516,165.945 227.5,167C 203.82,169.662 186.487,160.495 175.5,139.5C 169.833,138.833 164.167,138.167 158.5,137.5C 160.003,133.16 162.003,129.16 164.5,125.5C 166.833,125.5 169.167,125.5 171.5,125.5C 171.5,122.167 171.5,118.833 171.5,115.5C 166.968,115.818 162.634,115.485 158.5,114.5C 159.679,110.467 161.345,106.634 163.5,103C 167.167,102.667 170.833,102.333 174.5,102C 190.935,73.3904 214.268,65.7237 244.5,79C 247.681,81.0917 250.681,83.425 253.5,86C 252.064,89.7051 250.231,93.2051 248,96.5C 230.308,80.5693 212.642,80.5693 195,96.5C 193.833,98.3333 192.667,100.167 191.5,102C 209.164,102.5 226.83,102.667 244.5,102.5C 243.117,106.934 241.451,111.267 239.5,115.5 Z"/></g>
<g><path style="opacity:1" fill="#6991b7" d="M 306.5,93.5 C 299.167,93.5 291.833,93.5 284.5,93.5C 284.5,102.5 284.5,111.5 284.5,120.5C 291.167,120.5 297.833,120.5 304.5,120.5C 297.687,121.491 290.687,121.825 283.5,121.5C 283.5,111.833 283.5,102.167 283.5,92.5C 291.352,92.1746 299.018,92.508 306.5,93.5 Z"/></g>
<g><path style="opacity:1" fill="#074687" d="M 306.5,93.5 C 310.079,93.9106 312.246,95.9106 313,99.5C 313.667,104.5 313.667,109.5 313,114.5C 311.951,119.051 309.118,121.051 304.5,120.5C 297.833,120.5 291.167,120.5 284.5,120.5C 284.5,111.5 284.5,102.5 284.5,93.5C 291.833,93.5 299.167,93.5 306.5,93.5 Z"/></g>
<g><path style="opacity:1" fill="#104888" d="M 390.5,132.5 C 382.427,133.132 374.76,132.465 367.5,130.5C 370.701,117.362 374.368,104.362 378.5,91.5C 382.97,105.049 386.97,118.715 390.5,132.5 Z"/></g>
<g><path style="opacity:1" fill="#3d3f3d" d="M 158.5,114.5 C 162.634,115.485 166.968,115.818 171.5,115.5C 171.5,118.833 171.5,122.167 171.5,125.5C 169.167,125.5 166.833,125.5 164.5,125.5C 166.265,124.539 168.265,124.205 170.5,124.5C 170.5,121.833 170.5,119.167 170.5,116.5C 166.116,116.826 161.783,116.492 157.5,115.5C 157.624,114.893 157.957,114.56 158.5,114.5 Z"/></g>
<g><path style="opacity:1" fill="#40423c" d="M 239.5,115.5 C 222.341,116.497 205.008,116.83 187.5,116.5C 187.5,119.167 187.5,121.833 187.5,124.5C 203.342,124.17 219.009,124.504 234.5,125.5C 218.5,125.5 202.5,125.5 186.5,125.5C 186.5,122.167 186.5,118.833 186.5,115.5C 204.167,115.5 221.833,115.5 239.5,115.5 Z"/></g>
<g><path style="opacity:1" fill="#8cacc9" d="M 367.5,130.5 C 374.76,132.465 382.427,133.132 390.5,132.5C 382.684,133.492 374.684,133.826 366.5,133.5C 366.263,132.209 366.596,131.209 367.5,130.5 Z"/></g>
<g><path style="opacity:1" fill="#7d6722" d="M 245.5,145.5 C 245.56,144.957 245.893,144.624 246.5,144.5C 247.814,149.652 247.814,154.652 246.5,159.5C 246.819,154.637 246.486,149.97 245.5,145.5 Z"/></g>
<g><path style="opacity:1" fill="#4173a4" d="M 357.5,165.5 C 357.5,166.833 357.5,168.167 357.5,169.5C 347.81,169.832 338.144,169.498 328.5,168.5C 328.624,167.893 328.957,167.56 329.5,167.5C 338.318,168.493 347.318,168.827 356.5,168.5C 356.263,167.209 356.596,166.209 357.5,165.5 Z"/></g>
<g><path style="opacity:1" fill="#f2f5f8" d="M 185.5,196.5 C 186.93,196.421 188.264,196.754 189.5,197.5C 191.89,203.608 190.056,205.608 184,203.5C 183.167,200.829 183.667,198.496 185.5,196.5 Z"/></g>
<g><path style="opacity:1" fill="#f2f5f9" d="M 368.5,196.5 C 372.499,196.091 376.166,196.925 379.5,199C 378.833,200.333 378.167,201.667 377.5,203C 375.557,202.695 373.557,202.695 371.5,203C 369.963,204.11 369.297,205.61 369.5,207.5C 371.833,207.5 374.167,207.5 376.5,207.5C 376.5,209.167 376.5,210.833 376.5,212.5C 374.167,212.5 371.833,212.5 369.5,212.5C 369.5,218.5 369.5,224.5 369.5,230.5C 367.167,230.5 364.833,230.5 362.5,230.5C 362.5,224.5 362.5,218.5 362.5,212.5C 361.5,212.5 360.5,212.5 359.5,212.5C 359.5,210.5 359.5,208.5 359.5,206.5C 360.5,206.5 361.5,206.5 362.5,206.5C 362.412,201.92 364.412,198.587 368.5,196.5 Z"/></g>
<g><path style="opacity:1" fill="#f7f9fb" d="M 175.5,230.5 C 172.921,230.917 170.754,230.25 169,228.5C 161.299,233.531 155.299,231.864 151,223.5C 149.112,213.898 152.945,208.231 162.5,206.5C 164.841,206.363 166.841,207.03 168.5,208.5C 169.479,205.375 169.813,202.042 169.5,198.5C 171.5,198.5 173.5,198.5 175.5,198.5C 175.5,209.167 175.5,219.833 175.5,230.5 Z"/></g>
<g><path style="opacity:1" fill="#6b93b8" d="M 175.5,230.5 C 175.5,219.833 175.5,209.167 175.5,198.5C 173.5,198.5 171.5,198.5 169.5,198.5C 169.813,202.042 169.479,205.375 168.5,208.5C 168.5,204.833 168.5,201.167 168.5,197.5C 171.167,197.5 173.833,197.5 176.5,197.5C 176.828,208.679 176.495,219.679 175.5,230.5 Z"/></g>
<g><path style="opacity:1" fill="#f9fafc" d="M 199.5,199.5 C 201.5,199.5 203.5,199.5 205.5,199.5C 205.5,202.167 205.5,204.833 205.5,207.5C 208.167,207.5 210.833,207.5 213.5,207.5C 213.5,209.167 213.5,210.833 213.5,212.5C 210.833,212.5 208.167,212.5 205.5,212.5C 205.185,216.371 205.518,220.038 206.5,223.5C 206.611,224.117 206.944,224.617 207.5,225C 209.791,225.015 211.958,225.182 214,225.5C 214.825,227.701 214.325,229.534 212.5,231C 208.091,232.262 204.257,231.428 201,228.5C 199.603,223.292 199.103,217.959 199.5,212.5C 198.167,212.5 196.833,212.5 195.5,212.5C 195.5,210.833 195.5,209.167 195.5,207.5C 196.833,207.5 198.167,207.5 199.5,207.5C 199.5,204.833 199.5,202.167 199.5,199.5 Z"/></g>
<g><path style="opacity:1" fill="#f9fafc" d="M 248.5,207.5 C 248.5,209.167 248.5,210.833 248.5,212.5C 245.833,212.5 243.167,212.5 240.5,212.5C 240.335,216.182 240.501,219.848 241,223.5C 242.865,225.673 245.031,226.007 247.5,224.5C 250.697,227.93 250.03,230.097 245.5,231C 239.859,232.82 236.192,230.987 234.5,225.5C 234.5,221.167 234.5,216.833 234.5,212.5C 233.167,212.5 231.833,212.5 230.5,212.5C 230.5,210.833 230.5,209.167 230.5,207.5C 231.833,207.5 233.167,207.5 234.5,207.5C 234.5,204.833 234.5,202.167 234.5,199.5C 236.5,199.5 238.5,199.5 240.5,199.5C 240.5,202.167 240.5,204.833 240.5,207.5C 243.167,207.5 245.833,207.5 248.5,207.5 Z"/></g>
<g><path style="opacity:1" fill="#90aeca" d="M 199.5,199.5 C 201.607,198.532 203.941,198.198 206.5,198.5C 206.5,201.167 206.5,203.833 206.5,206.5C 209.059,206.198 211.393,206.532 213.5,207.5C 210.833,207.5 208.167,207.5 205.5,207.5C 205.5,204.833 205.5,202.167 205.5,199.5C 203.5,199.5 201.5,199.5 199.5,199.5 Z"/></g>
<g><path style="opacity:1" fill="#6b92b8" d="M 248.5,207.5 C 245.833,207.5 243.167,207.5 240.5,207.5C 240.5,204.833 240.5,202.167 240.5,199.5C 238.5,199.5 236.5,199.5 234.5,199.5C 234.5,202.167 234.5,204.833 234.5,207.5C 233.167,207.5 231.833,207.5 230.5,207.5C 231.209,206.596 232.209,206.263 233.5,206.5C 233.5,203.833 233.5,201.167 233.5,198.5C 236.167,198.5 238.833,198.5 241.5,198.5C 241.5,201.167 241.5,203.833 241.5,206.5C 244.059,206.198 246.393,206.532 248.5,207.5 Z"/></g>
<g><path style="opacity:1" fill="#eef2f7" d="M 80.5,206.5 C 86.6126,205.41 91.7792,207.077 96,211.5C 96.0334,213.877 94.7001,215.21 92,215.5C 86.0727,210.689 81.9061,211.855 79.5,219C 79.6431,221.151 80.6431,222.818 82.5,224C 86.3878,224.581 90.0544,224.248 93.5,223C 97.2902,224.819 97.2902,226.819 93.5,229C 83.6645,234.27 76.8312,231.77 73,221.5C 72.3062,214.888 74.8062,209.888 80.5,206.5 Z"/></g>
<g><path style="opacity:1" fill="#f7f9fb" d="M 108.5,230.5 C 106.5,230.5 104.5,230.5 102.5,230.5C 102.5,222.833 102.5,215.167 102.5,207.5C 104.5,207.5 106.5,207.5 108.5,207.5C 109.053,209.657 110.053,209.49 111.5,207C 113.473,206.505 115.473,206.338 117.5,206.5C 117.5,208.833 117.5,211.167 117.5,213.5C 114.03,212.875 111.196,213.875 109,216.5C 108.501,221.155 108.334,225.821 108.5,230.5 Z"/></g>
<g><path style="opacity:1" fill="#eef3f7" d="M 129.5,206.5 C 140.726,205.395 146.059,210.395 145.5,221.5C 139.824,221.334 134.157,221.501 128.5,222C 132.363,226.058 136.697,226.558 141.5,223.5C 145.815,227.73 144.815,230.23 138.5,231C 125.168,232.666 119.668,226.833 122,213.5C 124.069,210.594 126.569,208.261 129.5,206.5 Z"/></g>
<g><path style="opacity:1" fill="#f5f8fa" d="M 183.5,207.5 C 185.833,207.5 188.167,207.5 190.5,207.5C 190.5,215.167 190.5,222.833 190.5,230.5C 188.167,230.5 185.833,230.5 183.5,230.5C 183.5,222.833 183.5,215.167 183.5,207.5 Z"/></g>
<g><path style="opacity:1" fill="#f5f7fa" d="M 255.5,230.5 C 255.5,222.833 255.5,215.167 255.5,207.5C 257.821,207.229 259.821,207.896 261.5,209.5C 262.107,209.376 262.44,209.043 262.5,208.5C 264.82,206.774 267.487,206.107 270.5,206.5C 270.5,208.833 270.5,211.167 270.5,213.5C 267.881,213.232 265.381,213.565 263,214.5C 261.603,219.708 261.103,225.041 261.5,230.5C 259.5,230.5 257.5,230.5 255.5,230.5 Z"/></g>
<g><path style="opacity:1" fill="#f6f8fa" d="M 280.5,206.5 C 284.79,205.987 288.623,206.987 292,209.5C 293.754,207.75 295.921,207.083 298.5,207.5C 298.5,215.167 298.5,222.833 298.5,230.5C 295.921,230.917 293.754,230.25 292,228.5C 283.502,233.94 277.502,231.94 274,222.5C 273.333,219.5 273.333,216.5 274,213.5C 275.694,210.642 277.861,208.309 280.5,206.5 Z"/></g>
<g><path style="opacity:1" fill="#f7f9fb" d="M 316.5,206.5 C 321.039,205.957 324.873,207.29 328,210.5C 329.42,217.05 329.92,223.716 329.5,230.5C 327.167,230.5 324.833,230.5 322.5,230.5C 322.666,225.489 322.499,220.489 322,215.5C 319,211.5 316,211.5 313,215.5C 312.501,220.489 312.334,225.489 312.5,230.5C 310.5,230.5 308.5,230.5 306.5,230.5C 306.5,222.833 306.5,215.167 306.5,207.5C 309.079,207.083 311.246,207.75 313,209.5C 314.145,208.364 315.312,207.364 316.5,206.5 Z"/></g>
<g><path style="opacity:1" fill="#eff3f7" d="M 340.5,206.5 C 345.241,205.963 349.574,206.963 353.5,209.5C 351.849,214.049 349.183,214.715 345.5,211.5C 344,211.453 343,212.119 342.5,213.5C 345.494,215.79 348.827,217.624 352.5,219C 355.929,224.491 354.595,228.491 348.5,231C 342.934,232.54 338.268,231.207 334.5,227C 335.119,225.243 336.286,224.076 338,223.5C 339.555,224.848 341.389,225.514 343.5,225.5C 345.319,225.658 346.652,224.991 347.5,223.5C 345.075,221.855 342.408,220.689 339.5,220C 333.893,214.916 334.226,210.416 340.5,206.5 Z"/></g>
<g><path style="opacity:1" fill="#eef2f7" d="M 387.5,206.5 C 398.854,205.313 404.52,210.313 404.5,221.5C 398.794,221.171 393.128,221.505 387.5,222.5C 388.55,224.873 390.383,225.873 393,225.5C 395.501,225.416 397.834,224.75 400,223.5C 402.356,224.893 402.856,226.726 401.5,229C 389.522,234.843 382.189,231.343 379.5,218.5C 380.218,213.13 382.885,209.13 387.5,206.5 Z"/></g>
<g><path style="opacity:1" fill="#f8fafb" d="M 417.5,217.5 C 416.515,221.634 416.182,225.968 416.5,230.5C 414.5,230.5 412.5,230.5 410.5,230.5C 410.5,222.833 410.5,215.167 410.5,207.5C 413.079,207.083 415.246,207.75 417,209.5C 419.196,206.875 422.03,205.875 425.5,206.5C 425.5,208.833 425.5,211.167 425.5,213.5C 423.473,213.338 421.473,213.505 419.5,214C 418.177,214.816 417.511,215.983 417.5,217.5 Z"/></g>
<g><path style="opacity:1" fill="#799ebf" d="M 108.5,207.5 C 106.5,207.5 104.5,207.5 102.5,207.5C 102.5,215.167 102.5,222.833 102.5,230.5C 104.5,230.5 106.5,230.5 108.5,230.5C 106.393,231.468 104.059,231.802 101.5,231.5C 101.5,223.167 101.5,214.833 101.5,206.5C 104.059,206.198 106.393,206.532 108.5,207.5 Z"/></g>
<g><path style="opacity:1" fill="#b0c4d9" d="M 262.5,208.5 C 262.44,209.043 262.107,209.376 261.5,209.5C 259.821,207.896 257.821,207.229 255.5,207.5C 255.5,215.167 255.5,222.833 255.5,230.5C 254.508,222.684 254.174,214.684 254.5,206.5C 257.533,206.132 260.2,206.798 262.5,208.5 Z"/></g>
<g><path style="opacity:1" fill="#144988" d="M 389.5,212.5 C 392.908,211.828 395.575,212.828 397.5,215.5C 393.833,216.833 390.167,216.833 386.5,215.5C 387.77,214.712 388.77,213.712 389.5,212.5 Z"/></g>
<g><path style="opacity:1" fill="#0b4283" d="M 130.5,212.5 C 133.908,211.828 136.575,212.828 138.5,215.5C 135.167,216.833 131.833,216.833 128.5,215.5C 129.193,214.482 129.859,213.482 130.5,212.5 Z"/></g>
<g><path style="opacity:1" fill="#184b8a" d="M 161.5,212.5 C 169.294,212.8 171.461,216.467 168,223.5C 160.102,226.867 156.769,224.2 158,215.5C 159.145,214.364 160.312,213.364 161.5,212.5 Z"/></g>
<g><path style="opacity:1" fill="#8facc9" d="M 213.5,212.5 C 211.393,213.468 209.059,213.802 206.5,213.5C 206.5,216.833 206.5,220.167 206.5,223.5C 206.5,220.167 206.5,216.833 206.5,213.5C 209.059,213.802 211.393,213.468 213.5,212.5 Z"/></g>
<g><path style="opacity:1" fill="#90aecb" d="M 230.5,212.5 C 231.833,212.5 233.167,212.5 234.5,212.5C 234.5,216.833 234.5,221.167 234.5,225.5C 233.517,221.702 233.183,217.702 233.5,213.5C 232.209,213.737 231.209,213.404 230.5,212.5 Z"/></g>
<g><path style="opacity:1" fill="#154989" d="M 283.5,212.5 C 289.653,212.484 292.486,215.484 292,221.5C 288.645,226.31 284.979,226.644 281,222.5C 279.861,218.579 280.695,215.246 283.5,212.5 Z"/></g>
<g><path style="opacity:1" fill="#85a5c4" d="M 417.5,217.5 C 417.5,222.167 417.5,226.833 417.5,231.5C 414.941,231.802 412.607,231.468 410.5,230.5C 412.5,230.5 414.5,230.5 416.5,230.5C 416.182,225.968 416.515,221.634 417.5,217.5 Z"/></g>
</svg>
