<?xml version="1.0" encoding="UTF-8"?>
<!DOCTYPE svg PUBLIC "-//W3C//DTD SVG 1.1//EN" "http://www.w3.org/Graphics/SVG/1.1/DTD/svg11.dtd">
<svg xmlns="http://www.w3.org/2000/svg" version="1.1" width="2560px" height="1600px" style="shape-rendering:geometricPrecision; text-rendering:geometricPrecision; image-rendering:optimizeQuality; fill-rule:evenodd; clip-rule:evenodd" xmlns:xlink="http://www.w3.org/1999/xlink">
<g><path style="opacity:0.999" fill="#e21836" d="M 481.5,-0.5 C 676.833,-0.5 872.167,-0.5 1067.5,-0.5C 988.065,13.4332 930.898,56.7665 896,129.5C 891.536,140.227 887.869,151.227 885,162.5C 853.18,298.444 821.68,434.444 790.5,570.5C 779.205,575.231 768.371,580.898 758,587.5C 759.183,580.264 761.016,573.098 763.5,566C 762.708,564.04 761.375,562.54 759.5,561.5C 731.017,567.303 702.35,572.136 673.5,576C 672.667,576.833 671.833,577.667 671,578.5C 665.023,626.006 656.357,673.006 645,719.5C 639.51,741.125 634.177,762.791 629,784.5C 628.242,786.769 628.409,788.936 629.5,791C 657.156,790.802 684.823,790.469 712.5,790C 713.333,789.167 714.167,788.333 715,787.5C 724.644,736.615 735.31,685.948 747,635.5C 756.238,629.678 766.071,627.345 776.5,628.5C 715.005,892.482 653.505,1156.48 592,1420.5C 583.301,1449.93 582.301,1479.6 589,1509.5C 602.158,1551.99 629.991,1579.82 672.5,1593C 682.544,1595.39 692.544,1597.23 702.5,1598.5C 503.815,1598.99 305.149,1598.49 106.5,1597C 45.1612,1586.49 9.4945,1550.66 -0.5,1489.5C -0.5,1478.17 -0.5,1466.83 -0.5,1455.5C 100.356,1018.41 202.189,581.409 305,144.5C 327.516,84.9814 367.683,41.8147 425.5,15C 443.639,7.44671 462.306,2.28004 481.5,-0.5 Z"/></g>
<g><path style="opacity:1" fill="#00447c" d="M 1067.5,-0.5 C 1302.5,-0.5 1537.5,-0.5 1772.5,-0.5C 1695.33,12.4941 1638.83,53.8274 1603,123.5C 1596.94,136.678 1592.27,150.345 1589,164.5C 1557.62,299.673 1526.12,434.673 1494.5,569.5C 1458.92,559.931 1426.09,565.931 1396,587.5C 1397,580.471 1398.5,573.471 1400.5,566.5C 1400.33,563.796 1399,562.129 1396.5,561.5C 1368.35,567.394 1340.02,572.227 1311.5,576C 1309.79,576.777 1308.79,578.11 1308.5,580C 1302.82,623.551 1294.99,666.717 1285,709.5C 1279,734.178 1273,758.845 1267,783.5C 1264.91,790.745 1267.58,793.412 1275,791.5C 1300.16,790.74 1325.33,790.24 1350.5,790C 1351.33,789.167 1352.17,788.333 1353,787.5C 1362.3,737.267 1372.64,687.267 1384,637.5C 1385.8,634.837 1388.3,633.003 1391.5,632C 1399.48,627.637 1407.81,626.637 1416.5,629C 1420.33,630.167 1422.83,632.667 1424,636.5C 1424.67,642.833 1424.67,649.167 1424,655.5C 1416.2,699.16 1406.87,742.493 1396,785.5C 1395.33,787.167 1395.33,788.833 1396,790.5C 1411.75,790.828 1427.59,790.828 1443.5,790.5C 1435.62,823.112 1427.95,855.778 1420.5,888.5C 1397.59,888.173 1374.76,888.506 1352,889.5C 1316.38,1006.69 1281.38,1124.02 1247,1241.5C 1246.09,1245.45 1246.76,1249.12 1249,1252.5C 1253.81,1258.99 1259.98,1263.49 1267.5,1266C 1277.17,1266.57 1286.83,1267.07 1296.5,1267.5C 1307.99,1268.49 1319.65,1268.83 1331.5,1268.5C 1318.52,1327.28 1305.02,1385.95 1291,1444.5C 1283.74,1484.02 1291.74,1520.02 1315,1552.5C 1339.23,1580.2 1369.73,1595.53 1406.5,1598.5C 1171.83,1598.5 937.167,1598.5 702.5,1598.5C 692.544,1597.23 682.544,1595.39 672.5,1593C 629.991,1579.82 602.158,1551.99 589,1509.5C 582.301,1479.6 583.301,1449.93 592,1420.5C 653.505,1156.48 715.005,892.482 776.5,628.5C 780.84,629.252 784.007,631.586 786,635.5C 787.506,640.746 787.839,646.079 787,651.5C 779.128,697.608 769.295,743.275 757.5,788.5C 757.833,789.167 758.167,789.833 758.5,790.5C 760.833,790.833 763.167,791.167 765.5,791.5C 790.492,790.735 815.492,790.235 840.5,790C 841.579,789.044 842.745,788.211 844,787.5C 852.594,738.194 862.594,689.194 874,640.5C 877.081,626.31 878.081,611.977 877,597.5C 872.361,578.193 860.194,567.36 840.5,565C 823.407,563.362 806.74,565.196 790.5,570.5C 821.68,434.444 853.18,298.444 885,162.5C 887.869,151.227 891.536,140.227 896,129.5C 930.898,56.7665 988.065,13.4332 1067.5,-0.5 Z"/></g>
<g><path style="opacity:0.999" fill="#007b84" d="M 1772.5,-0.5 C 1996.5,-0.5 2220.5,-0.5 2444.5,-0.5C 2511.28,10.1119 2548.11,49.1119 2555,116.5C 2555.5,125.854 2555.17,135.188 2554,144.5C 2454.97,573.972 2355.3,1003.31 2255,1432.5C 2235.17,1505.98 2190,1557.15 2119.5,1586C 2105.29,1591.51 2090.63,1595.18 2075.5,1597C 1852.52,1598.49 1629.52,1598.99 1406.5,1598.5C 1369.73,1595.53 1339.23,1580.2 1315,1552.5C 1291.74,1520.02 1283.74,1484.02 1291,1444.5C 1305.02,1385.95 1318.52,1327.28 1331.5,1268.5C 1319.65,1268.83 1307.99,1268.49 1296.5,1267.5C 1323.17,1267.5 1349.83,1267.5 1376.5,1267.5C 1381.42,1249.06 1386.76,1230.73 1392.5,1212.5C 1391.67,1212.17 1390.83,1211.83 1390,1211.5C 1374.85,1213.08 1359.69,1214.41 1344.5,1215.5C 1354.48,1173.59 1364.14,1131.59 1373.5,1089.5C 1420.17,1089.67 1466.83,1089.5 1513.5,1089C 1533.8,1086.11 1549.63,1076.28 1561,1059.5C 1565.8,1051.56 1569.8,1043.23 1573,1034.5C 1587.76,985.948 1602.59,937.448 1617.5,889C 1576.14,888.04 1534.8,888.373 1493.5,890C 1478.9,892.314 1464.57,895.647 1450.5,900C 1437.65,906.589 1425.65,914.423 1414.5,923.5C 1414.17,923 1413.83,922.5 1413.5,922C 1416.84,910.972 1420.17,899.972 1423.5,889C 1422.55,888.517 1421.55,888.351 1420.5,888.5C 1427.95,855.778 1435.62,823.112 1443.5,790.5C 1455.17,790.667 1466.84,790.5 1478.5,790C 1480.49,788.681 1481.65,786.848 1482,784.5C 1489.01,741.807 1497.67,699.473 1508,657.5C 1510.72,644.228 1513.05,630.895 1515,617.5C 1518.2,596.937 1511.37,580.937 1494.5,569.5C 1526.12,434.673 1557.62,299.673 1589,164.5C 1592.27,150.345 1596.94,136.678 1603,123.5C 1638.83,53.8274 1695.33,12.4941 1772.5,-0.5 Z"/></g>
<g><path style="opacity:1" fill="#fdfdfd" d="M 1619.5,406.5 C 1674.83,406.333 1730.17,406.5 1785.5,407C 1803.05,407.201 1820.38,409.201 1837.5,413C 1873.16,422.488 1891.49,445.655 1892.5,482.5C 1890.85,536.951 1869.52,581.784 1828.5,617C 1810.09,630.368 1789.76,639.701 1767.5,645C 1732.8,651.407 1697.8,654.074 1662.5,653C 1659.33,654.833 1656.83,657.333 1655,660.5C 1643.9,703.841 1634.4,747.508 1626.5,791.5C 1594.5,791.5 1562.5,791.5 1530.5,791.5C 1551.12,705.798 1571.95,620.132 1593,534.5C 1602.35,491.937 1611.19,449.27 1619.5,406.5 Z"/></g>
<g><path style="opacity:1" fill="#fdfdfd" d="M 357.5,407.5 C 390.346,407.835 423.013,408.835 455.5,410.5C 436.402,480.224 418.235,550.224 401,620.5C 397.351,639.892 394.518,659.392 392.5,679C 392.778,710.778 408.778,727.278 440.5,728.5C 475.588,726.897 499.755,709.897 513,677.5C 518.93,660.448 523.93,643.115 528,625.5C 543.614,552.832 559.114,480.166 574.5,407.5C 580.167,407.5 585.833,407.5 591.5,407.5C 616.35,407.836 641.017,408.836 665.5,410.5C 644.076,490.193 623.576,570.193 604,650.5C 597.253,681.115 584.92,709.115 567,734.5C 546.65,757.771 521.483,773.604 491.5,782C 447.568,794.007 403.235,795.673 358.5,787C 339.492,782.993 322.492,774.993 307.5,763C 295.695,750.551 288.861,735.717 287,718.5C 286.333,712.5 286.333,706.5 287,700.5C 289.667,681.831 292.334,663.164 295,644.5C 312.835,565.826 330.669,487.16 348.5,408.5C 351.428,407.516 354.428,407.183 357.5,407.5 Z"/></g>
<g><path style="opacity:1" fill="#ea5467" d="M 357.5,407.5 C 390.5,407.5 423.5,407.5 456.5,407.5C 456.737,408.791 456.404,409.791 455.5,410.5C 423.013,408.835 390.346,407.835 357.5,407.5 Z"/></g>
<g><path style="opacity:1" fill="#eb5d70" d="M 591.5,407.5 C 616.5,407.5 641.5,407.5 666.5,407.5C 666.737,408.791 666.404,409.791 665.5,410.5C 641.017,408.836 616.35,407.836 591.5,407.5 Z"/></g>
<g><path style="opacity:1" fill="#047b84" d="M 1699.5,462.5 C 1722.2,464.285 1744.87,466.452 1767.5,469C 1784.18,477.012 1792.51,490.345 1792.5,509C 1790.92,539.171 1777.92,562.838 1753.5,580C 1742.01,586.608 1729.67,590.608 1716.5,592C 1701.52,593.198 1686.52,593.698 1671.5,593.5C 1679.75,553.73 1688.59,514.063 1698,474.5C 1698.64,470.509 1699.14,466.509 1699.5,462.5 Z"/></g>
<g><path style="opacity:1" fill="#fbfcfc" d="M 975.5,541.5 C 988.948,540.24 1001.61,542.74 1013.5,549C 1024.63,557.823 1026.46,568.323 1019,580.5C 1007.38,594.416 992.55,602.916 974.5,606C 959.695,609.439 945.695,607.439 932.5,600C 921.037,590.215 919.537,579.048 928,566.5C 941.036,552.733 956.87,544.4 975.5,541.5 Z"/></g>
<g><path style="opacity:1" fill="#fdfdfd" d="M 790.5,570.5 C 806.74,565.196 823.407,563.362 840.5,565C 860.194,567.36 872.361,578.193 877,597.5C 878.081,611.977 877.081,626.31 874,640.5C 862.594,689.194 852.594,738.194 844,787.5C 842.745,788.211 841.579,789.044 840.5,790C 815.492,790.235 790.492,790.735 765.5,791.5C 763.167,791.167 760.833,790.833 758.5,790.5C 758.167,789.833 757.833,789.167 757.5,788.5C 769.295,743.275 779.128,697.608 787,651.5C 787.839,646.079 787.506,640.746 786,635.5C 784.007,631.586 780.84,629.252 776.5,628.5C 766.071,627.345 756.238,629.678 747,635.5C 735.31,685.948 724.644,736.615 715,787.5C 714.167,788.333 713.333,789.167 712.5,790C 684.823,790.469 657.156,790.802 629.5,791C 628.409,788.936 628.242,786.769 629,784.5C 634.177,762.791 639.51,741.125 645,719.5C 656.357,673.006 665.023,626.006 671,578.5C 671.833,577.667 672.667,576.833 673.5,576C 702.35,572.136 731.017,567.303 759.5,561.5C 761.375,562.54 762.708,564.04 763.5,566C 761.016,573.098 759.183,580.264 758,587.5C 768.371,580.898 779.205,575.231 790.5,570.5 Z"/></g>
<g><path style="opacity:1" fill="#fcfdfd" d="M 1494.5,569.5 C 1511.37,580.937 1518.2,596.937 1515,617.5C 1513.05,630.895 1510.72,644.228 1508,657.5C 1497.67,699.473 1489.01,741.807 1482,784.5C 1481.65,786.848 1480.49,788.681 1478.5,790C 1466.84,790.5 1455.17,790.667 1443.5,790.5C 1427.59,790.828 1411.75,790.828 1396,790.5C 1395.33,788.833 1395.33,787.167 1396,785.5C 1406.87,742.493 1416.2,699.16 1424,655.5C 1424.67,649.167 1424.67,642.833 1424,636.5C 1422.83,632.667 1420.33,630.167 1416.5,629C 1407.81,626.637 1399.48,627.637 1391.5,632C 1388.3,633.003 1385.8,634.837 1384,637.5C 1372.64,687.267 1362.3,737.267 1353,787.5C 1352.17,788.333 1351.33,789.167 1350.5,790C 1325.33,790.24 1300.16,790.74 1275,791.5C 1267.58,793.412 1264.91,790.745 1267,783.5C 1273,758.845 1279,734.178 1285,709.5C 1294.99,666.717 1302.82,623.551 1308.5,580C 1308.79,578.11 1309.79,576.777 1311.5,576C 1340.02,572.227 1368.35,567.394 1396.5,561.5C 1399,562.129 1400.33,563.796 1400.5,566.5C 1398.5,573.471 1397,580.471 1396,587.5C 1426.09,565.931 1458.92,559.931 1494.5,569.5 Z"/></g>
<g><path style="opacity:1" fill="#fdfdfd" d="M 2355.5,563.5 C 2357.76,564.562 2358.92,566.228 2359,568.5C 2302.66,664.515 2247.32,761.182 2193,858.5C 2176.11,889.956 2158.44,920.956 2140,951.5C 2130.81,962.355 2119.31,969.521 2105.5,973C 2083.19,974.755 2060.86,974.922 2038.5,973.5C 2043.17,958.167 2047.83,942.833 2052.5,927.5C 2059.19,926.777 2065.85,925.943 2072.5,925C 2075.56,923.939 2078.06,922.106 2080,919.5C 2106.18,879.159 2130.84,837.826 2154,795.5C 2154.67,791.5 2154.67,787.5 2154,783.5C 2146.64,715.675 2138.31,648.008 2129,580.5C 2129.83,579.667 2130.67,578.833 2131.5,578C 2156.03,574.781 2180.37,570.448 2204.5,565C 2208.44,564.01 2212.11,564.51 2215.5,566.5C 2217.78,604.156 2219.94,641.822 2222,679.5C 2231.63,658.237 2242.3,637.571 2254,617.5C 2259.39,605.047 2265.06,592.714 2271,580.5C 2271.83,579.667 2272.67,578.833 2273.5,578C 2301.16,574.233 2328.49,569.399 2355.5,563.5 Z"/></g>
<g><path style="opacity:1" fill="#fcfdfd" d="M 1152.5,565.5 C 1174.92,563.833 1196.92,565.999 1218.5,572C 1249.59,583.664 1264.59,606.164 1263.5,639.5C 1262.27,681.008 1249.77,718.675 1226,752.5C 1201.35,778.071 1171.18,792.237 1135.5,795C 1113.67,796.982 1092.34,794.649 1071.5,788C 1042.43,775.878 1028.1,753.878 1028.5,722C 1029.78,682.507 1041.28,646.34 1063,613.5C 1086.43,585.575 1116.26,569.575 1152.5,565.5 Z"/></g>
<g><path style="opacity:1" fill="#fdfdfd" d="M 2089.5,567.5 C 2091.95,567.085 2093.28,568.085 2093.5,570.5C 2074.8,643.614 2058.8,717.281 2045.5,791.5C 2044.69,791.808 2044.03,792.308 2043.5,793C 2014.49,793.472 1985.49,793.806 1956.5,794C 1955.92,793.107 1955.59,792.107 1955.5,791C 1956.35,786.735 1957.19,782.569 1958,778.5C 1933.64,798.793 1906.48,803.293 1876.5,792C 1849.6,782.723 1834.77,763.889 1832,735.5C 1830.71,691.393 1842.71,651.393 1868,615.5C 1888.58,591.453 1914.41,575.953 1945.5,569C 1968.26,565.803 1986.1,573.637 1999,592.5C 1999.27,588.366 2000.77,584.866 2003.5,582C 2032.42,577.973 2061.09,573.14 2089.5,567.5 Z"/></g>
<g><path style="opacity:1" fill="#fcfcfd" d="M 1004.5,610.5 C 1006.86,610.337 1009.19,610.503 1011.5,611C 1012.06,611.725 1012.39,612.558 1012.5,613.5C 997.757,672.291 984.09,731.124 971.5,790C 942.489,790.461 913.489,790.795 884.5,791C 882.675,789.534 882.175,787.701 883,785.5C 888.139,769.083 893.473,752.749 899,736.5C 907.55,700.146 914.384,663.48 919.5,626.5C 920.912,625.194 922.579,624.36 924.5,624C 951.447,620.273 978.114,615.773 1004.5,610.5 Z"/></g>
<g><path style="opacity:1" fill="#02457c" d="M 1155.5,615.5 C 1168.04,613.343 1175.87,618.343 1179,630.5C 1179.18,658.758 1174.18,686.091 1164,712.5C 1159.76,727.4 1150.59,737.9 1136.5,744C 1124.11,745.89 1116.61,740.723 1114,728.5C 1113.6,695.213 1120.6,663.546 1135,633.5C 1139.88,625.116 1146.71,619.116 1155.5,615.5 Z"/></g>
<g><path style="opacity:1" fill="#047b84" d="M 1958.5,620.5 C 1972.72,618.858 1981.89,624.858 1986,638.5C 1987.53,646.436 1987.86,654.436 1987,662.5C 1984.65,674.568 1981.98,686.568 1979,698.5C 1976.89,710.708 1972.56,722.041 1966,732.5C 1953.78,746.035 1939.28,749.869 1922.5,744C 1918.6,739.979 1916.43,735.145 1916,729.5C 1916.45,703.783 1921.12,678.783 1930,654.5C 1933.6,644.122 1939.1,634.956 1946.5,627C 1950.2,624.098 1954.2,621.932 1958.5,620.5 Z"/></g>
<g><path style="opacity:1" fill="#b9cbda" d="M 1164.5,888.5 C 1192,887.171 1219.67,887.171 1247.5,888.5C 1247.38,889.107 1247.04,889.44 1246.5,889.5C 1219.34,888.502 1192.01,888.169 1164.5,888.5 Z"/></g>
<g><path style="opacity:1" fill="#fcfcfd" d="M 1164.5,888.5 C 1192.01,888.169 1219.34,888.502 1246.5,889.5C 1242.32,898.025 1237.99,906.525 1233.5,915C 1261.17,915.167 1288.84,915.667 1316.5,916.5C 1311.34,932.803 1306.34,949.137 1301.5,965.5C 1263.17,966.333 1224.84,966.833 1186.5,967C 1182.2,970.298 1178.2,973.965 1174.5,978C 1147.25,992.431 1118.25,997.598 1087.5,993.5C 1092.17,977.167 1096.83,960.833 1101.5,944.5C 1109.51,944.666 1117.51,944.5 1125.5,944C 1132.83,941.347 1138.33,936.514 1142,929.5C 1149.51,915.806 1157.01,902.14 1164.5,888.5 Z"/></g>
<g><path style="opacity:1" fill="#fdfdfd" d="M 1420.5,888.5 C 1421.55,888.351 1422.55,888.517 1423.5,889C 1420.17,899.972 1416.84,910.972 1413.5,922C 1413.83,922.5 1414.17,923 1414.5,923.5C 1425.65,914.423 1437.65,906.589 1450.5,900C 1464.57,895.647 1478.9,892.314 1493.5,890C 1534.8,888.373 1576.14,888.04 1617.5,889C 1602.59,937.448 1587.76,985.948 1573,1034.5C 1569.8,1043.23 1565.8,1051.56 1561,1059.5C 1549.63,1076.28 1533.8,1086.11 1513.5,1089C 1466.83,1089.5 1420.17,1089.67 1373.5,1089.5C 1371.17,1089.5 1368.83,1089.5 1366.5,1089.5C 1355.44,1127.19 1344.27,1164.86 1333,1202.5C 1331.69,1211.36 1335.52,1215.69 1344.5,1215.5C 1359.69,1214.41 1374.85,1213.08 1390,1211.5C 1390.83,1211.83 1391.67,1212.17 1392.5,1212.5C 1386.76,1230.73 1381.42,1249.06 1376.5,1267.5C 1349.83,1267.5 1323.17,1267.5 1296.5,1267.5C 1286.83,1267.07 1277.17,1266.57 1267.5,1266C 1259.98,1263.49 1253.81,1258.99 1249,1252.5C 1246.76,1249.12 1246.09,1245.45 1247,1241.5C 1281.38,1124.02 1316.38,1006.69 1352,889.5C 1374.76,888.506 1397.59,888.173 1420.5,888.5 Z"/></g>
<g><path style="opacity:1" fill="#057b85" d="M 1409.5,942.5 C 1448.84,942.167 1488.17,942.5 1527.5,943.5C 1524.42,952.394 1521.76,961.394 1519.5,970.5C 1498.5,970.333 1477.5,970.5 1456.5,971C 1433.2,974.759 1412.37,983.926 1394,998.5C 1399.04,979.878 1404.2,961.211 1409.5,942.5 Z"/></g>
<g><path style="opacity:1" fill="#33959d" d="M 1902.5,989.5 C 1982.66,988.501 2063,988.167 2143.5,988.5C 2143.74,989.791 2143.4,990.791 2142.5,991.5C 2062.84,989.503 1982.84,988.836 1902.5,989.5 Z"/></g>
<g><path style="opacity:1" fill="#fdfdfd" d="M 1973.5,1040.5 C 1974.04,1040.44 1974.38,1040.11 1974.5,1039.5C 1945.49,1039.16 1916.82,1038.16 1888.5,1036.5C 1892.41,1020.51 1897.08,1004.84 1902.5,989.5C 1982.84,988.836 2062.84,989.503 2142.5,991.5C 2137.84,1006.8 2133.17,1022.14 2128.5,1037.5C 2101.51,1038.33 2074.51,1038.83 2047.5,1039C 2043.09,1052.12 2038.76,1065.29 2034.5,1078.5C 2061.5,1079.17 2088.5,1079.83 2115.5,1080.5C 2110.96,1094.79 2106.63,1109.12 2102.5,1123.5C 2073.16,1123.33 2043.83,1123.5 2014.5,1124C 2009.62,1129.37 2004.96,1134.87 2000.5,1140.5C 1999.96,1140.56 1999.62,1140.89 1999.5,1141.5C 2011.15,1142.5 2022.81,1142.83 2034.5,1142.5C 2038.32,1164.37 2042.16,1186.37 2046,1208.5C 2049.07,1210.77 2052.57,1211.94 2056.5,1212C 2062.83,1212.33 2069.17,1212.67 2075.5,1213C 2069.78,1230.71 2064.45,1248.54 2059.5,1266.5C 2042.46,1266.89 2025.46,1266.39 2008.5,1265C 1998.76,1261.38 1990.26,1255.88 1983,1248.5C 1982,1246.5 1981,1244.5 1980,1242.5C 1976.99,1222.75 1973.65,1203.09 1970,1183.5C 1955.33,1203.5 1940.67,1223.5 1926,1243.5C 1914.58,1256.96 1900.08,1264.79 1882.5,1267C 1860.5,1267.5 1838.5,1267.67 1816.5,1267.5C 1817.63,1262.11 1818.96,1256.78 1820.5,1251.5C 1813.49,1251.33 1806.49,1251.5 1799.5,1252C 1797.83,1257 1796.17,1262 1794.5,1267C 1769.83,1267.67 1745.17,1267.67 1720.5,1267C 1722.26,1261.87 1723.93,1256.71 1725.5,1251.5C 1675.83,1250.83 1626.17,1250.17 1576.5,1249.5C 1580.68,1234.1 1585.18,1218.77 1590,1203.5C 1595.33,1202.83 1600.67,1202.17 1606,1201.5C 1637.64,1097.28 1668.8,992.945 1699.5,888.5C 1724.84,888.167 1750.18,888.5 1775.5,889.5C 1772.44,897.968 1770.1,906.301 1768.5,914.5C 1782,904.417 1797,897.584 1813.5,894C 1832.8,892.183 1852.13,890.85 1871.5,890C 1916.83,888.83 1962.16,888.33 2007.5,888.5C 2007.87,899.836 2008.37,911.169 2009,922.5C 2009.9,923.701 2011.07,924.535 2012.5,925C 2020.85,925.168 2029.19,925.668 2037.5,926.5C 2032.73,942.759 2027.73,958.926 2022.5,975C 2001.17,975.667 1979.83,975.667 1958.5,975C 1948.87,973.602 1940.7,969.435 1934,962.5C 1932.14,960.112 1930.81,957.446 1930,954.5C 1928.87,941.529 1927.87,928.529 1927,915.5C 1924.34,923.807 1921.84,932.14 1919.5,940.5C 1910.83,940.334 1902.16,940.5 1893.5,941C 1867.41,1026.45 1841.41,1111.95 1815.5,1197.5C 1822.48,1198.33 1829.48,1198.83 1836.5,1199C 1833.99,1205.68 1831.99,1212.52 1830.5,1219.5C 1839.84,1219.67 1849.17,1219.5 1858.5,1219C 1867.93,1216.56 1875.43,1211.39 1881,1203.5C 1899.46,1176.74 1918.3,1150.24 1937.5,1124C 1911.83,1123.83 1886.16,1123.33 1860.5,1122.5C 1864.83,1108.5 1869.17,1094.5 1873.5,1080.5C 1902.83,1079.83 1932.17,1079.17 1961.5,1078.5C 1965.71,1065.88 1969.71,1053.22 1973.5,1040.5 Z"/></g>
<g><path style="opacity:1" fill="#067c85" d="M 1760.5,940.5 C 1780.51,940.167 1800.51,940.5 1820.5,941.5C 1815.05,956.958 1810.39,972.625 1806.5,988.5C 1783.34,989.222 1761.67,995.222 1741.5,1006.5C 1746.95,984.467 1753.28,962.467 1760.5,940.5 Z"/></g>
<g><path style="opacity:1" fill="#fcfdfd" d="M 1127.5,1052.5 C 1128.04,1052.44 1128.38,1052.11 1128.5,1051.5C 1113.01,1050.83 1097.67,1050.17 1082.5,1049.5C 1086.66,1033.84 1091.33,1018.34 1096.5,1003C 1164.17,1002.5 1231.83,1002.33 1299.5,1002.5C 1294.42,1018.73 1289.76,1035.06 1285.5,1051.5C 1258.16,1051.33 1230.83,1051.5 1203.5,1052C 1198.96,1065.34 1194.96,1078.84 1191.5,1092.5C 1218.83,1092.5 1246.17,1092.5 1273.5,1092.5C 1268.63,1109.11 1263.96,1125.78 1259.5,1142.5C 1231.11,1141.85 1202.94,1142.51 1175,1144.5C 1168.67,1165.5 1162.33,1186.5 1156,1207.5C 1155.51,1213.35 1158.34,1216.52 1164.5,1217C 1169.15,1217.66 1173.82,1218.16 1178.5,1218.5C 1193.2,1216.72 1207.87,1214.72 1222.5,1212.5C 1223.17,1212.83 1223.83,1213.17 1224.5,1213.5C 1218.96,1231.45 1213.63,1249.45 1208.5,1267.5C 1173.17,1267.67 1137.83,1267.5 1102.5,1267C 1082.14,1264.32 1072.31,1252.82 1073,1232.5C 1082.14,1202.9 1090.98,1173.24 1099.5,1143.5C 1084.5,1143.5 1069.5,1143.5 1054.5,1143.5C 1059.15,1126.53 1063.82,1109.53 1068.5,1092.5C 1084.18,1092.83 1099.85,1092.5 1115.5,1091.5C 1119.5,1078.49 1123.5,1065.49 1127.5,1052.5 Z"/></g>
<g><path style="opacity:1" fill="#98c8cc" d="M 1386.5,1020.5 C 1425.33,1019.5 1464.33,1019.17 1503.5,1019.5C 1503.74,1020.79 1503.4,1021.79 1502.5,1022.5C 1465.18,1020.51 1427.51,1019.84 1389.5,1020.5C 1388.5,1020.5 1387.5,1020.5 1386.5,1020.5 Z"/></g>
<g><path style="opacity:1" fill="#184e82" d="M 1386.5,1020.5 C 1387.5,1020.5 1388.5,1020.5 1389.5,1020.5C 1388.15,1028.24 1386.49,1035.91 1384.5,1043.5C 1383.17,1043.5 1381.83,1043.5 1380.5,1043.5C 1382.09,1035.73 1384.09,1028.06 1386.5,1020.5 Z"/></g>
<g><path style="opacity:1" fill="#017b84" d="M 1389.5,1020.5 C 1427.51,1019.84 1465.18,1020.51 1502.5,1022.5C 1500.09,1029.39 1498.09,1036.39 1496.5,1043.5C 1459.17,1043.5 1421.83,1043.5 1384.5,1043.5C 1386.49,1035.91 1388.15,1028.24 1389.5,1020.5 Z"/></g>
<g><path style="opacity:1" fill="#88c1c5" d="M 1888.5,1036.5 C 1916.82,1038.16 1945.49,1039.16 1974.5,1039.5C 1974.38,1040.11 1974.04,1040.44 1973.5,1040.5C 1945,1039.5 1916.34,1039.17 1887.5,1039.5C 1887.26,1038.21 1887.6,1037.21 1888.5,1036.5 Z"/></g>
<g><path style="opacity:1" fill="#0b7d86" d="M 1730.5,1038.5 C 1750.5,1038.5 1770.5,1038.5 1790.5,1038.5C 1785.68,1054.79 1781.01,1071.13 1776.5,1087.5C 1765.69,1088.02 1755.02,1089.52 1744.5,1092C 1732.58,1096.81 1720.91,1101.81 1709.5,1107C 1716.8,1084.27 1723.8,1061.43 1730.5,1038.5 Z"/></g>
<g><path style="opacity:1" fill="#a7bed1" d="M 1082.5,1049.5 C 1097.67,1050.17 1113.01,1050.83 1128.5,1051.5C 1128.38,1052.11 1128.04,1052.44 1127.5,1052.5C 1112.33,1051.83 1096.99,1051.17 1081.5,1050.5C 1081.62,1049.89 1081.96,1049.56 1082.5,1049.5 Z"/></g>
<g><path style="opacity:1" fill="#0a477e" d="M 1373.5,1089.5 C 1364.14,1131.59 1354.48,1173.59 1344.5,1215.5C 1335.52,1215.69 1331.69,1211.36 1333,1202.5C 1344.27,1164.86 1355.44,1127.19 1366.5,1089.5C 1368.83,1089.5 1371.17,1089.5 1373.5,1089.5 Z"/></g>
<g><path style="opacity:1" fill="#fcfdfd" d="M 1505.5,1098.5 C 1523.5,1098.5 1541.5,1098.5 1559.5,1098.5C 1556.96,1113.39 1553.46,1128.06 1549,1142.5C 1540.22,1156.82 1527.39,1164.98 1510.5,1167C 1494.49,1167.39 1478.49,1167.89 1462.5,1168.5C 1462.33,1182.5 1462.5,1196.5 1463,1210.5C 1466.03,1216.43 1470.87,1218.77 1477.5,1217.5C 1492.15,1216.3 1506.82,1215.8 1521.5,1216C 1516.2,1232.74 1511.2,1249.57 1506.5,1266.5C 1476.15,1266.87 1445.81,1266.37 1415.5,1265C 1407.71,1264.19 1401.54,1260.69 1397,1254.5C 1396.18,1252.21 1395.51,1249.88 1395,1247.5C 1395.51,1199.17 1396.35,1150.83 1397.5,1102.5C 1420.5,1102.5 1443.5,1102.5 1466.5,1102.5C 1465.87,1111.82 1465.54,1121.15 1465.5,1130.5C 1472.84,1130.67 1480.17,1130.5 1487.5,1130C 1492.87,1130.07 1496.37,1127.57 1498,1122.5C 1500.5,1114.48 1503,1106.48 1505.5,1098.5 Z"/></g>
<g><path style="opacity:1" fill="#077c85" d="M 1699.5,1140.5 C 1719.5,1140.5 1739.5,1140.5 1759.5,1140.5C 1754.3,1159.62 1748.64,1178.62 1742.5,1197.5C 1722.5,1198.83 1702.5,1198.83 1682.5,1197.5C 1688.37,1178.55 1694.04,1159.55 1699.5,1140.5 Z"/></g>
<g><path style="opacity:1" fill="#77b9bd" d="M 2000.5,1140.5 C 2011.83,1141.17 2023.17,1141.83 2034.5,1142.5C 2022.81,1142.83 2011.15,1142.5 1999.5,1141.5C 1999.62,1140.89 1999.96,1140.56 2000.5,1140.5 Z"/></g>
<g><path style="opacity:1" fill="#a8d1d4" d="M 1576.5,1249.5 C 1626.17,1250.17 1675.83,1250.83 1725.5,1251.5C 1675.5,1251.83 1625.5,1251.5 1575.5,1250.5C 1575.62,1249.89 1575.96,1249.56 1576.5,1249.5 Z"/></g>
</svg>
