<?xml version="1.0" standalone="no"?>
<!DOCTYPE svg PUBLIC "-//W3C//DTD SVG 20010904//EN"
 "http://www.w3.org/TR/2001/REC-SVG-20010904/DTD/svg10.dtd">
<svg version="1.0" xmlns="http://www.w3.org/2000/svg"
 width="300.000000pt" height="300.000000pt" viewBox="0 0 300.000000 300.000000"
 preserveAspectRatio="xMidYMid meet">

<g transform="translate(0.000000,300.000000) scale(0.100000,-0.100000)"
fill="#000000" stroke="none">
<path d="M0 1500 l0 -1500 1500 0 1500 0 0 235 0 235 -178 0 -179 0 -89 100
c-49 55 -91 100 -94 100 -3 0 -45 -45 -94 -100 l-89 -100 -598 0 -599 0 0 480
0 480 -191 0 c-105 0 -189 4 -187 9 2 4 109 247 238 540 l234 531 234 -2 233
-3 77 -175 77 -175 3 178 2 177 287 -2 286 -3 45 -128 c25 -70 48 -124 52
-120 4 4 26 63 50 131 l42 122 219 0 219 0 0 245 0 245 -1500 0 -1500 0 0
-1500z"/>
<path d="M1081 1972 c-99 -225 -181 -412 -181 -415 0 -4 55 -7 123 -7 l124 0
34 85 34 85 191 0 192 0 34 -82 35 -83 241 -3 242 -2 0 281 c0 156 3 279 7
276 3 -4 52 -129 107 -279 l101 -273 100 -3 101 -3 93 258 c52 142 99 269 105
283 8 19 12 -45 14 -257 l2 -283 110 0 110 0 0 415 0 415 -173 0 -173 0 -89
-250 c-50 -137 -93 -250 -96 -250 -4 0 -46 112 -95 250 l-89 250 -177 0 -178
0 0 -405 c0 -223 -3 -405 -7 -405 -5 1 -88 182 -185 403 l-177 402 -149 3
-149 3 -182 -409z m384 68 c26 -63 50 -121 52 -127 4 -10 -21 -13 -106 -13
-70 0 -111 4 -111 10 0 23 103 260 110 253 4 -4 28 -60 55 -123z"/>
<path d="M1220 1015 l0 -415 350 0 350 0 0 95 0 95 -240 0 -240 0 0 65 0 65
235 0 235 0 0 90 0 90 -232 2 -233 3 -3 68 -3 67 241 0 240 0 0 95 0 95 -350
0 -350 0 0 -415z"/>
<path d="M1942 1420 c2 -6 84 -96 183 -201 99 -106 181 -197 183 -203 1 -6
-81 -101 -183 -209 -102 -109 -185 -200 -185 -202 0 -3 64 -5 143 -5 l142 0
115 130 c63 71 117 130 120 130 3 0 58 -58 123 -130 l118 -130 151 0 150 0
-139 148 c-182 191 -243 258 -243 267 0 3 82 94 183 201 100 107 184 199 185
204 2 6 -52 10 -137 10 l-140 0 -116 -127 c-64 -71 -121 -129 -125 -131 -5 -2
-61 56 -126 127 l-118 131 -144 0 c-92 0 -142 -4 -140 -10z"/>
<path d="M2892 1131 c-56 -60 -102 -113 -102 -118 1 -4 48 -57 105 -118 l104
-110 1 228 c0 125 -1 227 -3 227 -2 0 -49 -49 -105 -109z"/>
</g>
</svg>
