<?xml version="1.0" standalone="no"?>
<!DOCTYPE svg PUBLIC "-//W3C//DTD SVG 20010904//EN"
 "http://www.w3.org/TR/2001/REC-SVG-20010904/DTD/svg10.dtd">
<svg version="1.0" xmlns="http://www.w3.org/2000/svg"
 width="92.000000pt" height="59.000000pt" viewBox="0 0 92.000000 59.000000"
 preserveAspectRatio="xMidYMid meet">

<g transform="translate(0.000000,59.000000) scale(0.100000,-0.100000)"
fill="#000000" stroke="none">
<path d="M29 554 c-24 -26 -24 -26 -24 -260 l0 -234 28 -27 c27 -28 29 -28
175 -31 l148 -3 127 134 c70 74 127 143 127 152 0 9 -42 64 -92 122 -51 57
-94 109 -96 114 -2 5 12 9 32 9 32 0 43 -9 140 -121 l106 -121 -49 -57 c-27
-31 -66 -72 -86 -91 -20 -19 -50 -52 -67 -73 -44 -54 -29 -67 77 -67 l83 0
124 131 c67 71 127 137 131 145 6 11 2 24 -15 42 -14 15 -71 80 -127 145 -64
72 -110 117 -122 117 -40 0 -16 -43 92 -165 l110 -125 -20 -26 c-11 -14 -58
-65 -105 -115 -79 -83 -89 -90 -120 -87 l-34 3 99 108 c69 74 97 112 92 121
-4 8 -61 75 -127 150 l-119 137 -95 -3 c-60 -2 -97 -7 -99 -14 -2 -7 48 -72
111 -145 l115 -133 -79 -85 c-43 -47 -91 -99 -107 -114 l-30 -28 -134 3 -134
3 -3 227 -2 228 22 5 c13 3 57 6 98 7 69 3 75 5 78 26 3 22 2 22 -101 22 -98
0 -105 -1 -128 -26z"/>
</g>
</svg>
