<?xml version="1.0" encoding="UTF-8"?>
<svg width="97px" height="27px" viewBox="0 0 97 27" version="1.1" xmlns="http://www.w3.org/2000/svg" xmlns:xlink="http://www.w3.org/1999/xlink">
    <!-- Generator: Sketch 63.1 (92452) - https://sketch.com -->
    <title>v0_mark_dark_M_24px</title>
    <desc>Created with Sketch.</desc>
    <defs>
        <polygon id="path-1" points="0 0 37.9792784 0 37.9792784 24.0079024 0 24.0079024"></polygon>
    </defs>
    <g id="Page-1" stroke="none" stroke-width="1" fill="none" fill-rule="evenodd">
        <g id="Artboard" transform="translate(-1545.000000, -208.000000)">
            <g id="M_24px_dark" transform="translate(200.000000, 206.000000)">
                <g id="v0_mark_dark_M_24px" transform="translate(1345.000000, 2.000000)">
                    <g id="UI-icon/SRC/dark" transform="translate(0.000000, 1.500000)">
                        <g id="SRC_icon_black">
                            <mask id="mask-2" fill="white">
                                <use xlink:href="#path-1"></use>
                            </mask>
                            <g id="path-1"></g>
                            <path d="M37.6674345,11.2365659 L28.5678176,0.549102439 C28.3759249,0.232273171 28.0289747,0.0206634146 27.6329594,0.0206634146 C27.029036,0.0206634146 26.5394038,0.512663415 26.5394038,1.11983415 C26.5394038,1.43973659 26.6755341,1.72773659 26.8926146,1.92866341 L35.1361395,11.9735415 L26.9841931,21.8275902 L26.0953425,21.8275902 L23.4625686,21.8275902 L31.1665226,12.8174927 C31.1714728,12.8119317 31.1759862,12.8063707 31.1807908,12.8008098 L31.1823923,12.8013951 C31.3969977,12.564322 31.4925073,12.2872976 31.4874115,12.0142244 C31.4925073,11.7412976 31.3969977,11.4642732 31.1823923,11.2272 L31.1807908,11.227639 C31.1759862,11.222078 31.1714728,11.2165171 31.1665226,11.2111024 L21.9670284,0.566517073 C21.96499,0.564029268 21.9629517,0.561541463 21.9607678,0.559053659 C21.770331,0.236663415 21.4203234,0.0206634146 21.020377,0.0206634146 L14.5593579,0.0206634146 C13.9554345,0.0206634146 13.4658023,0.512663415 13.4658023,1.11983415 C13.4658023,1.30407805 13.4908444,1.49563902 13.591013,1.63041951 L22.1532429,12.0550537 L14.855787,20.8550049 C14.8124,20.8986146 14.1835801,21.7993463 13.0779402,21.7993463 L4.36254559,21.7993463 C3.1772659,21.7993463 2.19436169,20.869639 2.19436169,19.6346634 L2.19436169,4.38017561 C2.19436169,3.30515122 3.1772659,2.20100488 4.38933487,2.20100488 L9.81139617,2.20100488 C10.4505533,2.20100488 10.9049517,1.76227317 10.9049517,1.11983415 C10.9049517,0.477395122 10.4505533,-0.000117073171 9.81139617,-0.000117073171 L4.3361931,0.0216878049 C1.74243831,0.0216878049 -2.91187739e-05,2.17188293 -2.91187739e-05,4.35778537 L-2.91187739e-05,19.6346634 C-2.91187739e-05,21.9882732 2.06434636,23.9930049 4.3361931,23.9930049 L13.0491126,23.9930049 C13.4885149,23.9930049 13.8904996,23.928322 14.252446,23.8247122 C14.3041318,23.8099317 14.3550897,23.7942732 14.4050284,23.7780293 C15.6063234,23.3867122 16.3313808,22.5827122 16.4717333,22.4123707 L24.6843923,12.7918829 C25.0728368,12.3489073 25.1245226,11.7064683 24.6907985,11.2272 L24.6891969,11.227639 C24.6843923,11.222078 24.6798789,11.2165171 24.6750743,11.2111024 L16.9066222,2.20100488 L19.6038943,2.20100488 L20.4927448,2.20100488 L28.611059,12.0143707 L20.0680475,22.3722732 C20.0652812,22.3753463 20.0705226,22.3842732 20.0826069,22.3981756 C20.0028215,22.5508098 19.9573962,22.7243707 19.9573962,22.908761 C19.9573962,23.5157854 20.4470284,24.0079317 21.0508061,24.0079317 L27.5118253,24.0079317 C27.9119172,24.0079317 28.2616337,23.791639 28.4523617,23.4693951 C28.4544,23.4669073 28.4564383,23.4644195 28.4584766,23.462078 L37.6581165,12.8174927 C37.6629211,12.8119317 37.6674345,12.8063707 37.6722391,12.8008098 L37.6738406,12.8013951 C38.1074192,12.3219805 38.0558789,11.6795415 37.6674345,11.2365659" id="Fill-1" fill="#000000" fill-rule="nonzero" mask="url(#mask-2)"></path>
                        </g>
                    </g>
                    <rect id="Pipe" fill="#000000" x="46" y="1.5" width="1" height="24" rx="0.5"></rect>
                    <g id="UI-Networks/Mastercard" transform="translate(55.000000, 0.500000)">
                        <g id="mc_symbol">
                            <rect id="Rectangle" fill="#FF5F00" fill-rule="nonzero" x="14.8507692" y="2.89917808" width="12.4420513" height="20.1624658"></rect>
                            <path d="M16.1323077,12.9821918 C16.1291837,9.04835666 17.9492954,5.33155954 21.0682051,2.90273972 C15.7696683,-1.22874868 8.16075697,-0.626961666 3.5888095,4.28518103 C-0.983137982,9.19732372 -0.983137982,16.7706215 3.5888095,21.6827642 C8.16075697,26.5949068 15.7696683,27.1966939 21.0682051,23.0652055 C17.9483029,20.6356143 16.1280799,16.9172767 16.1323077,12.9821918 Z" id="Path" fill="#EB001B" fill-rule="nonzero"></path>
                            <polygon id="Path" fill="#F79E1B" fill-rule="nonzero" points="40.5035275 21.0692258 40.5035275 20.6378894 40.6814937 20.6378894 40.6814937 20.566 40.254375 20.566 40.254375 20.6378894 40.4323411 20.6378894 40.4323411 21.0692258"></polygon>
                            <polygon id="Path" fill="#F79E1B" fill-rule="nonzero" points="41.3226165 20.566 41.1802437 20.566 41.0378708 20.925447 40.8954979 20.566 40.753125 20.566 40.753125 21.0692258 40.8599047 21.0692258 40.8599047 20.6738341 40.9782543 20.9973364 41.1090572 20.9973364 41.223527 20.6738341 41.223527 21.0692258 41.3226165 21.0692258"></polygon>
                            <path d="M41.9784615,12.9821918 C41.9784615,17.8913409 39.1531255,22.3694919 34.7026814,24.5147567 C30.2522374,26.6600216 24.957904,26.0957707 21.0682051,23.0616439 C24.1857539,20.630762 26.0060027,16.9144591 26.0060027,12.980411 C26.0060027,9.04636291 24.1857539,5.3300599 21.0682051,2.89917808 C24.957904,-0.134948842 30.2522374,-0.699199631 34.7026814,1.44606519 C39.1531255,3.59133002 41.9784615,8.06948097 41.9784615,12.9786301 L41.9784615,12.9821918 Z" id="Path" fill="#F79E1B" fill-rule="nonzero"></path>
                        </g>
                    </g>
                </g>
            </g>
        </g>
    </g>
</svg>