<?xml version="1.0" encoding="UTF-8"?>
<!DOCTYPE svg PUBLIC "-//W3C//DTD SVG 1.1//EN" "http://www.w3.org/Graphics/SVG/1.1/DTD/svg11.dtd">
<svg xmlns="http://www.w3.org/2000/svg" version="1.1" width="120px" height="75px" style="shape-rendering:geometricPrecision; text-rendering:geometricPrecision; image-rendering:optimizeQuality; fill-rule:evenodd; clip-rule:evenodd" xmlns:xlink="http://www.w3.org/1999/xlink">
<g><path style="opacity:0.998" fill="#242582" d="M 1.5,-0.5 C 39.8333,-0.5 78.1667,-0.5 116.5,-0.5C 117.29,0.40128 118.29,1.06795 119.5,1.5C 119.5,24.8333 119.5,48.1667 119.5,71.5C 118.599,72.2905 117.932,73.2905 117.5,74.5C 79.1667,74.5 40.8333,74.5 2.5,74.5C 1.70951,73.5987 0.709515,72.9321 -0.5,72.5C -0.5,49.1667 -0.5,25.8333 -0.5,2.5C 0.40128,1.70951 1.06795,0.709515 1.5,-0.5 Z"/></g>
<g><path style="opacity:1" fill="#8f8fc0" d="M 26.5,24.5 C 22.6286,24.185 18.9619,24.5184 15.5,25.5C 14.6236,25.6309 13.9569,25.2975 13.5,24.5C 17.9838,23.1889 22.3171,23.1889 26.5,24.5 Z"/></g>
<g><path style="opacity:1" fill="#8a8abd" d="M 38.5,24.5 C 41.0241,23.1997 43.6908,23.1997 46.5,24.5C 46.3764,25.1067 46.0431,25.44 45.5,25.5C 43.3926,24.5318 41.0593,24.1984 38.5,24.5 Z"/></g>
<g><path style="opacity:1" fill="#edeff5" d="M 65.5,23.5 C 69.2396,23.2408 72.9062,23.5741 76.5,24.5C 77.0522,26.0026 77.0522,27.6693 76.5,29.5C 73.1667,29.5 69.8333,29.5 66.5,29.5C 66.3505,30.552 66.5172,31.552 67,32.5C 69.7581,33.7946 72.2581,35.4612 74.5,37.5C 77.1786,43.891 75.1786,48.0576 68.5,50C 64.8333,50.6667 61.1667,50.6667 57.5,50C 55.2617,48.0598 55.2617,45.8931 57.5,43.5C 60.773,44.5851 64.1064,44.7517 67.5,44C 67.9574,43.586 68.2907,43.086 68.5,42.5C 64.9487,40.4448 61.782,37.7781 59,34.5C 58.0871,28.9902 60.2537,25.3235 65.5,23.5 Z"/></g>
<g><path style="opacity:1" fill="#f1f3f8" d="M 15.5,25.5 C 18.9619,24.5184 22.6286,24.185 26.5,24.5C 27.7899,25.0577 28.6232,26.0577 29,27.5C 29.7458,31.8964 30.7458,36.2297 32,40.5C 34.4586,35.2544 36.6253,29.9211 38.5,24.5C 41.0593,24.1984 43.3926,24.5318 45.5,25.5C 42.2871,33.5956 38.7871,41.5956 35,49.5C 32.6194,50.435 30.1194,50.7683 27.5,50.5C 25.8609,42.4404 23.5276,34.607 20.5,27C 18.8455,26.3923 17.1789,25.8923 15.5,25.5 Z"/></g>
<g><path style="opacity:1" fill="#eceef5" d="M 50.5,49.5 C 47.9179,49.9746 45.9179,49.3079 44.5,47.5C 45.6792,40.1142 47.1792,32.7809 49,25.5C 51.1062,23.709 53.6062,23.0423 56.5,23.5C 55.1234,32.3378 53.1234,41.0045 50.5,49.5 Z"/></g>
<g><path style="opacity:1" fill="#f0f2f7" d="M 100.5,47.5 C 99.0821,49.3079 97.0821,49.9746 94.5,49.5C 94.5,48.5 94.5,47.5 94.5,46.5C 91.1501,46.335 87.8168,46.5017 84.5,47C 83.7476,47.6708 83.4142,48.5041 83.5,49.5C 80.9407,49.8016 78.6074,49.4682 76.5,48.5C 79.546,40.738 82.8794,33.0714 86.5,25.5C 89.7439,22.9566 92.9106,22.9566 96,25.5C 97.6092,32.8245 99.1092,40.1579 100.5,47.5 Z"/></g>
<g><path style="opacity:1" fill="#38368d" d="M 89.5,32.5 C 91.3969,34.6975 92.3969,37.3642 92.5,40.5C 90.4727,40.6621 88.4727,40.4955 86.5,40C 87.9913,37.6922 88.9913,35.1922 89.5,32.5 Z"/></g>
<g><path style="opacity:1" fill="#8f8fc0" d="M 44.5,47.5 C 45.9179,49.3079 47.9179,49.9746 50.5,49.5C 48.3926,50.4682 46.0593,50.8016 43.5,50.5C 43.2627,49.209 43.596,48.209 44.5,47.5 Z"/></g>
<g><path style="opacity:1" fill="#8687bb" d="M 76.5,48.5 C 78.6074,49.4682 80.9407,49.8016 83.5,49.5C 80.9759,50.8003 78.3092,50.8003 75.5,49.5C 75.6236,48.8933 75.9569,48.56 76.5,48.5 Z"/></g>
<g><path style="opacity:1" fill="#8786bb" d="M 100.5,47.5 C 101.404,48.209 101.737,49.209 101.5,50.5C 98.9407,50.8016 96.6074,50.4682 94.5,49.5C 97.0821,49.9746 99.0821,49.3079 100.5,47.5 Z"/></g>
</svg>
